{
.appVersion = "908";
DisplayStrings = (
"/Gcommaaccent/Gdotaccent/Lcommaaccent \U00D4/commaaccentcomb"
);
copyright = "Copyright © 2016 by Vernon Adams. All rights reserved.";
date = "2016-07-07 20:36:33 +0000";
designer = "Vernon Adams";
designerURL = "http://www.newtypography.co.uk/";
familyName = SigmarOne;
featurePrefixes = (
{
automatic = 1;
code = "languagesystem DFLT dflt;\012languagesystem latn dflt;\012languagesystem latn CAT;\012languagesystem latn ROM;\012languagesystem latn MOL;\012languagesystem latn KAZ;\012languagesystem latn TAT;\012languagesystem latn TRK;\012languagesystem latn CRT;\012languagesystem latn AZE;\012";
name = Languagesystems;
}
);
features = (
{
automatic = 1;
code = "feature ccmp;\012feature locl;\012feature sups;\012feature frac;\012feature ordn;\012feature salt;\012feature ss01;\012";
name = aalt;
},
{
automatic = 1;
code = "lookup ccmp_Other_1 {\012	@CombiningTopAccents = [acutecomb brevecomb breveinvertedcomb caroncomb circumflexcomb commaturnedabovecomb dblgravecomb dieresiscomb dotaccentcomb gravecomb hookabovecomb hungarumlautcomb macroncomb ringcomb tildecomb];\012	@CombiningNonTopAccents = [brevebelowcomb cedillacomb dieresisbelowcomb dotbelowcomb macronbelowcomb ogonekcomb horncomb];\012	sub [i j]' @CombiningTopAccents by [idotless jdotless];\012	sub [i j]' @CombiningNonTopAccents @CombiningTopAccents by [idotless jdotless];\012} ccmp_Other_1;\012\012lookup ccmp_latn_1 {\012	script latn;\012	lookupflag 0;\012	sub brevecomb acutecomb by brevecomb_acutecomb;\012	sub brevecomb gravecomb by brevecomb_gravecomb;\012	sub brevecomb hookabovecomb by brevecomb_hookabovecomb;\012	sub brevecomb tildecomb by brevecomb_tildecomb;\012	sub circumflexcomb acutecomb by circumflexcomb_acutecomb;\012	sub circumflexcomb gravecomb by circumflexcomb_gravecomb;\012	sub circumflexcomb hookabovecomb by circumflexcomb_hookabovecomb;\012	sub circumflexcomb tildecomb by circumflexcomb_tildecomb;\012} ccmp_latn_1;\012";
name = ccmp;
},
{

glyphs = (
{
glyphname = A;
lastChange = "2016-07-08 07:51:01 +0000";
layers = (
{
anchors = (
{
name = bottom;
position = "{459, 0}";
},
{
name = ogonek;
position = "{826, 10}";
},
{
name = top;
position = "{459, 676}";
}
);
background = {
paths = (
{
closed = 1;
nodes = (
"349 666 LINE",
"350 666 LINE",
"365 667 LINE",
"387 667 LINE",
"412 668 LINE",
"434 670 LINE",
"447 670 LINE",
"447 671 LINE",
"450 671 LINE",
"478 671 LINE",
"517 671 LINE",
"562 671 LINE",
"600 670 LINE",
"627 668 LINE",
"629 666 LINE",
"643 666 LINE",
"669 671 LINE",
"683 671 LINE",
"689 671 LINE",
"701 665 LINE",
"707 665 LINE",
"710 665 LINE",
"713 666 LINE",
"716 666 LINE",
"719 665 LINE",
"726 657 LINE",
"726 655 LINE",
"796 339 LINE",
"812 278 LINE",
"841 151 LINE",
"854 91 LINE",
"855 86 LINE",
"859 69 LINE",
"862 49 LINE",
"864 28 LINE",
"862 10 LINE",
"854 -1 LINE",
"846 -1 LINE",
"842 -1 LINE",
"823 -1 LINE",
"797 0 LINE",
"771 0 LINE",
"747 0 LINE",
"731 0 LINE",
"731 1 LINE",
"668 1 LINE",
"668 2 LINE",
"666 5 LINE",
"658 5 LINE",
"657 5 LINE",
"655 1 LINE",
"654 1 LINE",
"651 1 LINE",
"650 1 LINE",
"634 2 LINE",
"611 3 LINE",
"585 5 LINE",
"576 5 LINE",
"568 17 LINE",
"554 80 LINE",
"546 122 LINE",
"534 120 LINE",
"506 119 LINE",
"476 119 LINE",
"444 119 LINE",
"431 119 LINE",
"422 78 LINE",
"409 17 LINE",
"402 5 LINE",
"398 5 LINE",
"388 1 LINE",
"387 1 LINE",
"384 1 LINE",
"378 1 LINE",
"373 5 LINE",
"370 5 LINE",
"344 4 LINE",
"325 3 LINE",
"316 3 LINE",
"300 2 LINE",
"288 1 LINE",
"280 1 LINE",
"187 1 LINE",
"186 1 LINE",
"171 0 LINE",
"147 0 LINE",
"120 0 LINE",
"95 -1 LINE",
"76 -1 LINE",
"72 -1 LINE",
"64 -1 LINE",
"56 10 LINE",
"54 28 LINE",
"56 49 LINE",
"60 69 LINE",
"63 86 LINE",
"64 91 LINE",
"77 151 LINE",
"106 278 LINE",
"122 339 LINE",
"192 655 LINE",
"192 657 LINE",
"199 665 LINE",
"202 666 LINE",
"205 666 LINE",
"208 665 LINE",
"211 665 LINE",
"224 665 LINE",
"251 671 LINE",
"265 671 LINE",
"286 671 LINE",
"326 666 LINE"
);
},
{
closed = 1;
nodes = (
"486 496 LINE",
"481 470 LINE",
"474 428 LINE",
"465 375 LINE",
"456 321 LINE",
"446 268 LINE",
"443 247 LINE",
"494 247 LINE",
"495 248 LINE",
"500 250 LINE",
"501 250 LINE",
"503 250 LINE",
"513 250 LINE",
"528 246 LINE",
"535 244 LINE",
"531 265 LINE",
"522 318 LINE",
"513 374 LINE",
"503 427 LINE",
"496 469 LINE",
"492 496 LINE",
"491 498 LINE",
"491 500 LINE",
"490 502 LINE",
"490 507 LINE",
"489 511 LINE",
"488 507 LINE",
"487 502 LINE",
"486 500 LINE",
"486 498 LINE"
);
}
);
};
layerId = UUID0;
paths = (
{
closed = 1;
nodes = (
"74 -1 OFFCURVE",
"79 -1 OFFCURVE",
"85 -1 CURVE SMOOTH",
"92 -1 OFFCURVE",
"100 -1 OFFCURVE",
"108 0 CURVE",
"116 0 OFFCURVE",
"125 0 OFFCURVE",
"134 0 CURVE",
"152 0 OFFCURVE",
"168 0 OFFCURVE",
"179 1 CURVE",
"184 1 OFFCURVE",
"187 1 OFFCURVE",
"187 1 CURVE SMOOTH",
"280 1 LINE",
"280 1 OFFCURVE",
"281 1 OFFCURVE",
"284 1 CURVE",
"286 1 OFFCURVE",
"290 1 OFFCURVE",
"294 2 CURVE SMOOTH",
"298 2 OFFCURVE",
"303 2 OFFCURVE",
"309 3 CURVE",
"314 3 OFFCURVE",
"319 3 OFFCURVE",
"325 3 CURVE",
"338 4 OFFCURVE",
"353 4 OFFCURVE",
"370 5 CURVE SMOOTH",
"372 5 OFFCURVE",
"374 4 OFFCURVE",
"375 3 CURVE SMOOTH",
"377 1 OFFCURVE",
"380 1 OFFCURVE",
"384 1 CURVE SMOOTH",
"387 1 LINE SMOOTH",
"387 1 OFFCURVE",
"390 1 OFFCURVE",
"393 3 CURVE SMOOTH",
"396 4 OFFCURVE",
"399 5 OFFCURVE",
"402 5 CURVE",
"411 21 OFFCURVE",
"419 64 OFFCURVE",
"431 119 CURVE",
"440 119 OFFCURVE",
"450 119 OFFCURVE",
"460 119 CURVE",
"470 119 OFFCURVE",
"480 119 OFFCURVE",
"491 119 CURVE SMOOTH",
"511 119 OFFCURVE",
"530 120 OFFCURVE",
"546 122 CURVE",
"557 65 OFFCURVE",
"566 21 OFFCURVE",
"576 5 CURVE",
"589 5 OFFCURVE",
"607 4 OFFCURVE",
"623 3 CURVE SMOOTH",
"630 2 OFFCURVE",
"637 2 OFFCURVE",
"643 1 CURVE SMOOTH",
"648 1 OFFCURVE",
"650 1 OFFCURVE",
"651 1 CURVE SMOOTH",
"654 1 LINE SMOOTH",
"655 1 OFFCURVE",
"656 1 OFFCURVE",
"656 3 CURVE SMOOTH",
"657 4 OFFCURVE",
"657 5 OFFCURVE",
"658 5 CURVE SMOOTH",
"663 5 OFFCURVE",
"666 4 OFFCURVE",
"667 3 CURVE",
"667 2 OFFCURVE",
"668 1 OFFCURVE",
"668 1 CURVE",
"731 1 LINE",
"731 0 OFFCURVE",
"734 0 OFFCURVE",
"739 0 CURVE SMOOTH",
"745 0 OFFCURVE",
"751 0 OFFCURVE",
"759 0 CURVE",
"767 0 OFFCURVE",
"775 0 OFFCURVE",
"784 0 CURVE",
"793 0 OFFCURVE",
"802 0 OFFCURVE",
"810 0 CURVE",
"818 -1 OFFCURVE",
"826 -1 OFFCURVE",
"833 -1 CURVE SMOOTH",
"839 -1 OFFCURVE",
"843 -1 OFFCURVE",
"846 -1 CURVE SMOOTH",
"851 -1 OFFCURVE",
"855 1 OFFCURVE",
"858 5 CURVE SMOOTH",
"863 12 OFFCURVE",
"865 24 OFFCURVE",
"863 39 CURVE SMOOTH",
"862 52 OFFCURVE",
"859 66 OFFCURVE",
"857 78 CURVE",
"855 83 OFFCURVE",
"854 88 OFFCURVE",
"854 91 CURVE",
"837 171 OFFCURVE",
"817 258 OFFCURVE",
"796 339 CURVE",
"726 655 LINE",
"726 658 OFFCURVE",
"720 664 OFFCURVE",
"716 666 CURVE",
"714 666 OFFCURVE",
"713 666 OFFCURVE",
"712 666 CURVE",
"710 665 OFFCURVE",
"709 665 OFFCURVE",
"707 665 CURVE SMOOTH",
"703 665 OFFCURVE",
"699 666 OFFCURVE",
"695 668 CURVE SMOOTH",
"691 670 OFFCURVE",
"687 671 OFFCURVE",
"683 671 CURVE SMOOTH",
"674 671 OFFCURVE",
"665 670 OFFCURVE",
"656 668 CURVE SMOOTH",
"647 667 OFFCURVE",
"638 666 OFFCURVE",
"629 666 CURVE",
"627 667 OFFCURVE",
"623 668 OFFCURVE",
"614 669 CURVE SMOOTH",
"596 671 OFFCURVE",
"569 671 OFFCURVE",
"540 671 CURVE SMOOTH",
"524 671 OFFCURVE",
"511 671 OFFCURVE",
"498 671 CURVE SMOOTH",
"484 671 OFFCURVE",
"473 671 OFFCURVE",
"464 671 CURVE",
"455 671 OFFCURVE",
"449 671 OFFCURVE",
"447 671 CURVE",
"447 670 OFFCURVE",
"445 670 OFFCURVE",
"440 670 CURVE",
"436 670 OFFCURVE",
"430 670 OFFCURVE",
"423 669 CURVE SMOOTH",
"416 669 OFFCURVE",
"408 668 OFFCURVE",
"399 668 CURVE SMOOTH",
"391 667 OFFCURVE",
"383 667 OFFCURVE",
"376 667 CURVE SMOOTH",
"369 667 OFFCURVE",
"362 667 OFFCURVE",
"357 667 CURVE",
"352 666 OFFCURVE",
"350 666 OFFCURVE",
"349 666 CURVE SMOOTH",
"333 666 OFFCURVE",
"319 667 OFFCURVE",
"306 668 CURVE SMOOTH",
"293 670 OFFCURVE",
"279 671 OFFCURVE",
"265 671 CURVE SMOOTH",
"256 671 OFFCURVE",
"247 670 OFFCURVE",
"237 668 CURVE SMOOTH",
"228 666 OFFCURVE",
"219 665 OFFCURVE",
"211 665 CURVE SMOOTH",
"209 665 OFFCURVE",
"208 665 OFFCURVE",
"207 666 CURVE",
"205 666 OFFCURVE",
"204 666 OFFCURVE",
"202 666 CURVE",
"198 664 OFFCURVE",
"192 658 OFFCURVE",
"192 655 CURVE",
"122 339 LINE",
"101 258 OFFCURVE",
"81 171 OFFCURVE",
"64 91 CURVE",
"63 85 OFFCURVE",
"60 73 OFFCURVE",
"58 59 CURVE SMOOTH",
"55 45 OFFCURVE",
"53 31 OFFCURVE",
"55 19 CURVE",
"57 7 OFFCURVE",
"62 -1 OFFCURVE",
"72 -1 CURVE SMOOTH"
);
},
{
closed = 1;
nodes = (
"530 245 OFFCURVE",
"525 247 OFFCURVE",
"521 248 CURVE SMOOTH",
"515 250 OFFCURVE",
"509 250 OFFCURVE",
"503 250 CURVE SMOOTH",
"501 250 LINE SMOOTH",
"500 250 OFFCURVE",
"496 249 OFFCURVE",
"494 247 CURVE",
"443 247 LINE",
"445 261 OFFCURVE",
"448 276 OFFCURVE",
"451 294 CURVE SMOOTH",
"454 312 OFFCURVE",
"457 330 OFFCURVE",
"460 348 CURVE SMOOTH",
"466 385 OFFCURVE",
"473 421 OFFCURVE",
"478 449 CURVE SMOOTH",
"480 463 OFFCURVE",
"482 474 OFFCURVE",
"484 483 CURVE SMOOTH",
"485 491 OFFCURVE",
"486 496 OFFCURVE",
"486 496 CURVE SMOOTH",
"486 498 OFFCURVE",
"486 499 OFFCURVE",
"486 500 CURVE SMOOTH",
"487 501 OFFCURVE",
"487 503 OFFCURVE",
"487 505 CURVE",
"488 506 OFFCURVE",
"488 509 OFFCURVE",
"489 511 CURVE",
"489 509 OFFCURVE",
"490 506 OFFCURVE",
"490 505 CURVE",
"490 501 OFFCURVE",
"491 499 OFFCURVE",
"492 496 CURVE",
"492 496 OFFCURVE",
"493 491 OFFCURVE",
"494 482 CURVE SMOOTH",
"496 474 OFFCURVE",
"498 462 OFFCURVE",
"500 448 CURVE SMOOTH",
"502 434 OFFCURVE",
"505 418 OFFCURVE",
"508 400 CURVE SMOOTH",
"511 382 OFFCURVE",
"514 364 OFFCURVE",
"518 346 CURVE SMOOTH",
"521 327 OFFCURVE",
"524 309 OFFCURVE",
"527 292 CURVE SMOOTH",
"530 273 OFFCURVE",
"532 258 OFFCURVE",
"535 244 CURVE"
);
}
);
width = 918;
}
);
leftKerningGroup = A;
rightKerningGroup = A;
unicode = 0041;
},
{
color = 9;
glyphname = Aringacute;
lastChange = "2016-07-08 07:58:51 +0000";
layers = (
{
background = {
components = (
{
name = ringcomb;
transform = "{1, 0, 0, 1, 59, 98}";
}
);
};
components = (
{
name = A;
}
);
guideLines = (
{
angle = 90;
position = "{917, 537}";
}
);
layerId = UUID0;
paths = (
{
closed = 1;
nodes = (
"701 903 OFFCURVE",
"707 903 OFFCURVE",
"713 904 CURVE SMOOTH",
"718 905 OFFCURVE",
"724 904 OFFCURVE",
"730 904 CURVE SMOOTH",
"748 904 LINE",
"750 905 LINE",
"754 903 LINE",
"758 904 OFFCURVE",
"761 904 OFFCURVE",
"766 904 CURVE SMOOTH",
"770 904 OFFCURVE",
"774 904 OFFCURVE",
"778 904 CURVE SMOOTH",
"781 904 OFFCURVE",
"784 907 OFFCURVE",
"787 913 CURVE SMOOTH",
"793 925 OFFCURVE",
"802 944 OFFCURVE",
"807 962 CURVE SMOOTH",
"810 972 OFFCURVE",
"814 980 OFFCURVE",
"816 986 CURVE",
"823 1000 OFFCURVE",
"828 1012 OFFCURVE",
"833 1025 CURVE SMOOTH",
"838 1038 OFFCURVE",
"840 1051 OFFCURVE",
"849 1063 CURVE SMOOTH",
"852 1067 OFFCURVE",
"854 1072 OFFCURVE",
"857 1078 CURVE SMOOTH",
"860 1083 OFFCURVE",
"862 1088 OFFCURVE",
"865 1094 CURVE SMOOTH",
"868 1100 OFFCURVE",
"871 1105 OFFCURVE",
"873 1111 CURVE SMOOTH",
"877 1123 OFFCURVE",
"883 1132 OFFCURVE",
"886 1138 CURVE SMOOTH",
"889 1144 OFFCURVE",
"888 1147 OFFCURVE",
"883 1150 CURVE SMOOTH",
"879 1152 OFFCURVE",
"873 1153 OFFCURVE",
"865 1155 CURVE",
"864 1155 OFFCURVE",
"863 1155 OFFCURVE",
"863 1155 CURVE",
"862 1154 OFFCURVE",
"861 1154 OFFCURVE",
"860 1154 CURVE",
"856 1156 LINE",
"829 1157 LINE",
"828 1157 OFFCURVE",
"827 1158 OFFCURVE",
"825 1158 CURVE",
"824 1158 OFFCURVE",
"822 1159 OFFCURVE",
"822 1159 CURVE",
"820 1159 OFFCURVE",
"818 1159 OFFCURVE",
"815 1159 CURVE",
"813 1159 OFFCURVE",
"810 1159 OFFCURVE",
"809 1158 CURVE",
"805 1160 LINE",
"794 1160 OFFCURVE",
"782 1159 OFFCURVE",
"771 1159 CURVE SMOOTH",
"759 1159 OFFCURVE",
"746 1158 OFFCURVE",
"731 1158 CURVE",
"704 1154 LINE",
"700 1149 LINE",
"693 1116 OFFCURVE",
"689 1086 OFFCURVE",
"685 1053 CURVE",
"685 1042 OFFCURVE",
"685 1031 OFFCURVE",
"685 1020 CURVE SMOOTH",
"685 1009 OFFCURVE",
"683 998 OFFCURVE",
"683 987 CURVE SMOOTH",
"683 965 OFFCURVE",
"681 944 OFFCURVE",
"683 922 CURVE SMOOTH",
"684 913 OFFCURVE",
"685 903 OFFCURVE",
"696 903 CURVE SMOOTH"
);
},
{
closed = 1;
nodes = (
"480 714 OFFCURVE",
"513 713 OFFCURVE",
"545 721 CURVE SMOOTH",
"576 729 OFFCURVE",
"603 743 OFFCURVE",
"623 772 CURVE",
"627 774 LINE",
"652 809 OFFCURVE",
"664 854 OFFCURVE",
"664 895 CURVE SMOOTH",
"664 934 OFFCURVE",
"657 966 OFFCURVE",
"643 993 CURVE SMOOTH",
"629 1020 OFFCURVE",
"605 1041 OFFCURVE",
"574 1062 CURVE",
"558 1071 OFFCURVE",
"542 1076 OFFCURVE",
"522 1079 CURVE SMOOTH",
"503 1082 OFFCURVE",
"480 1082 OFFCURVE",
"448 1082 CURVE SMOOTH",
"448 1082 OFFCURVE",
"447 1082 OFFCURVE",
"447 1082 CURVE SMOOTH",
"445 1082 OFFCURVE",
"444 1082 OFFCURVE",
"444 1081 CURVE",
"437 1082 OFFCURVE",
"430 1082 OFFCURVE",
"423 1082 CURVE SMOOTH",
"374 1082 OFFCURVE",
"336 1057 OFFCURVE",
"309 1020 CURVE SMOOTH",
"282 983 OFFCURVE",
"267 936 OFFCURVE",
"267 890 CURVE SMOOTH",
"267 866 OFFCURVE",
"271 836 OFFCURVE",
"283 808 CURVE SMOOTH",
"295 780 OFFCURVE",
"310 754 OFFCURVE",
"336 740 CURVE SMOOTH",
"374 719 OFFCURVE",
"413 712 OFFCURVE",
"450 713 CURVE SMOOTH"
);
},
{
closed = 1;
nodes = (
"443 827 OFFCURVE",
"432 830 OFFCURVE",
"424 835 CURVE SMOOTH",
"408 845 OFFCURVE",
"398 857 OFFCURVE",
"398 868 CURVE SMOOTH",
"398 872 OFFCURVE",
"395 875 OFFCURVE",
"395 875 CURVE",
"395 878 OFFCURVE",
"395 879 OFFCURVE",
"395 881 CURVE SMOOTH",
"395 883 OFFCURVE",
"395 885 OFFCURVE",
"395 886 CURVE SMOOTH",
"395 924 OFFCURVE",
"405 947 OFFCURVE",
"417 960 CURVE SMOOTH",
"430 974 OFFCURVE",
"445 977 OFFCURVE",
"456 977 CURVE SMOOTH",
"472 977 OFFCURVE",
"484 976 OFFCURVE",
"495 973 CURVE SMOOTH",
"515 968 OFFCURVE",
"528 957 OFFCURVE",
"535 946 CURVE SMOOTH",
"542 936 OFFCURVE",
"545 926 OFFCURVE",
"545 919 CURVE",
"545 917 OFFCURVE",
"545 915 OFFCURVE",
"545 915 CURVE",
"545 911 OFFCURVE",
"544 900 OFFCURVE",
"540 887 CURVE SMOOTH",
"536 873 OFFCURVE",
"528 860 OFFCURVE",
"514 847 CURVE SMOOTH",
"502 836 OFFCURVE",
"483 827 OFFCURVE",
"456 827 CURVE SMOOTH"
);
}
);
width = 918;
}
);
leftKerningGroup = A;
rightKerningGroup = A;
unicode = 01FA;
},
{
glyphname = AE;
lastChange = "2016-07-08 07:51:01 +0000";
layers = (
{
anchors = (
{
name = bottom;
position = "{605, 0}";
},
{
name = top;
position = "{742, 676}";
}
);
background = {
paths = (
{
closed = 1;
nodes = (
"500 666 LINE",
"501 666 LINE",
"513 667 LINE",
"531 667 LINE",
"552 668 LINE",
"569 670 LINE",
"580 670 LINE",
"580 671 LINE",
"583 671 LINE",
"616 671 LINE",
"660 671 LINE",
"708 671 LINE",
"727 670 LINE",
"777 671 LINE",
"870 674 LINE",
"965 675 LINE",
"1065 673 LINE",
"1123 669 LINE",
"1130 669 LINE",
"1138 645 LINE",
"1143 607 LINE",
"1147 563 LINE",
"1151 543 LINE",
"1151 531 LINE",
"1150 520 LINE",
"1147 515 LINE",
"1142 516 LINE",
"1138 516 LINE",
"1091 516 LINE",
"994 515 LINE",
"945 515 LINE",
"940 515 LINE",
"933 491 LINE",
"928 458 LINE",
"926 426 LINE",
"926 418 LINE",
"926 404 LINE",
"933 397 LINE",
"941 397 LINE",
"987 397 LINE",
"1075 397 LINE",
"1119 393 LINE",
"1126 392 LINE",
"1137 391 LINE",
"1145 388 LINE",
"1150 379 LINE",
"1153 370 LINE",
"1157 281 LINE",
"1157 278 LINE",
"1157 269 LINE",
"1137 259 LINE",
"1104 254 LINE",
"1063 253 LINE",
"1041 253 LINE",
"998 253 LINE",
"950 255 LINE",
"927 250 LINE",
"922 232 LINE",
"922 213 LINE",
"922 195 LINE",
"918 161 LINE",
"919 142 LINE",
"968 142 LINE",
"1064 143 LINE",
"1112 143 LINE",
"1113 143 LINE",
"1117 128 LINE",
"1121 105 LINE",
"1125 77 LINE",
"1128 51 LINE",
"1130 30 LINE",
"1130 26 LINE",
"1130 17 LINE",
"1121 5 LINE",
"1110 5 LINE",
"1078 5 LINE",
"1020 1 LINE",
"988 1 LINE",
"950 1 LINE",
"873 0 LINE",
"834 0 LINE",
"831 -1 LINE",
"827 -1 LINE",
"823 -1 LINE",
"803 -1 LINE",
"777 0 LINE",
"750 0 LINE",
"738 0 LINE",
"671 0 LINE",
"669 0 LINE",
"662 0 LINE",
"658 1 LINE",
"650 1 LINE",
"650 2 LINE",
"639 3 LINE",
"637 1 LINE",
"636 1 LINE",
"633 1 LINE",
"632 1 LINE",
"616 2 LINE",
"594 3 LINE",
"568 5 LINE",
"558 5 LINE",
"554 17 LINE",
"554 80 LINE",
"555 122 LINE",
"533 118 LINE",
"475 119 LINE",
"449 119 LINE",
"432 78 LINE",
"404 17 LINE",
"394 5 LINE",
"390 5 LINE",
"379 1 LINE",
"378 1 LINE",
"375 1 LINE",
"370 1 LINE",
"365 5 LINE",
"362 5 LINE",
"336 4 LINE",
"317 3 LINE",
"308 3 LINE",
"292 2 LINE",
"279 1 LINE",
"271 1 LINE",
"179 1 LINE",
"178 1 LINE",
"162 0 LINE",
"139 0 LINE",
"112 0 LINE",
"86 -1 LINE",
"67 -1 LINE",
"63 -1 LINE",
"56 -1 LINE",
"50 10 LINE",
"52 28 LINE",
"59 49 LINE",
"66 69 LINE",
"74 86 LINE",
"76 91 LINE",
"102 151 LINE",
"161 278 LINE",
"190 339 LINE",
"341 655 LINE",
"341 657 LINE",
"350 665 LINE",
"354 666 LINE",
"356 666 LINE",
"359 665 LINE",
"362 665 LINE",
"375 665 LINE",
"403 671 LINE",
"417 671 LINE",
"438 671 LINE",
"477 666 LINE"
);
},
{
closed = 1;
nodes = (
"579 496 LINE",
"579 496 LINE",
"570 470 LINE",
"555 428 LINE",
"536 375 LINE",
"517 321 LINE",
"497 268 LINE",
"490 247 LINE",
"531 247 LINE",
"541 247 LINE",
"563 247 LINE",
"571 244 LINE",
"572 265 LINE",
"575 318 LINE",
"579 374 LINE",
"581 427 LINE",
"583 469 LINE",
"585 496 LINE",
"585 496 LINE",
"585 500 LINE",
"585 502 LINE",
"585 507 LINE",
"585 511 LINE",
"584 507 LINE",
"582 502 LINE",
"581 500 LINE",
"580 498 LINE"
);
}
);
};
layerId = UUID0;
paths = (
{
closed = 1;
nodes = (
"66 -1 OFFCURVE",
"70 -1 OFFCURVE",
"77 -1 CURVE SMOOTH",
"83 -1 OFFCURVE",
"91 -1 OFFCURVE",
"99 0 CURVE",
"107 0 OFFCURVE",
"116 0 OFFCURVE",
"125 0 CURVE",
"144 0 OFFCURVE",
"160 0 OFFCURVE",
"170 1 CURVE",
"175 1 OFFCURVE",
"178 1 OFFCURVE",
"179 1 CURVE SMOOTH",
"271 1 LINE",
"271 1 OFFCURVE",
"273 1 OFFCURVE",
"275 1 CURVE",
"278 1 OFFCURVE",
"281 1 OFFCURVE",
"286 2 CURVE SMOOTH",
"290 2 OFFCURVE",
"295 2 OFFCURVE",
"300 3 CURVE",
"306 3 OFFCURVE",
"311 3 OFFCURVE",
"317 3 CURVE",
"330 4 OFFCURVE",
"345 4 OFFCURVE",
"362 5 CURVE SMOOTH",
"364 5 OFFCURVE",
"366 4 OFFCURVE",
"368 3 CURVE",
"369 1 OFFCURVE",
"372 1 OFFCURVE",
"375 1 CURVE SMOOTH",
"378 1 LINE SMOOTH",
"379 1 OFFCURVE",
"381 1 OFFCURVE",
"385 3 CURVE",
"388 4 OFFCURVE",
"392 5 OFFCURVE",
"394 5 CURVE",
"407 21 OFFCURVE",
"426 64 OFFCURVE",
"449 119 CURVE",
"466 119 OFFCURVE",
"484 119 OFFCURVE",
"504 119 CURVE SMOOTH",
"523 118 OFFCURVE",
"540 120 OFFCURVE",
"555 122 CURVE",
"554 94 OFFCURVE",
"554 69 OFFCURVE",
"554 48 CURVE SMOOTH",
"554 27 OFFCURVE",
"555 13 OFFCURVE",
"558 5 CURVE",
"571 5 OFFCURVE",
"590 4 OFFCURVE",
"605 3 CURVE SMOOTH",
"612 2 OFFCURVE",
"619 2 OFFCURVE",
"625 1 CURVE SMOOTH",
"630 1 OFFCURVE",
"632 1 OFFCURVE",
"633 1 CURVE SMOOTH",
"636 1 LINE SMOOTH",
"637 1 OFFCURVE",
"638 2 OFFCURVE",
"639 3 CURVE",
"650 2 LINE",
"650 1 LINE",
"658 1 LINE",
"664 0 OFFCURVE",
"669 0 OFFCURVE",
"671 0 CURVE SMOOTH",
"738 0 LINE SMOOTH",
"754 0 OFFCURVE",
"773 0 OFFCURVE",
"791 0 CURVE",
"799 -1 OFFCURVE",
"807 -1 OFFCURVE",
"813 -1 CURVE SMOOTH",
"820 -1 OFFCURVE",
"825 -1 OFFCURVE",
"827 -1 CURVE SMOOTH",
"830 -1 OFFCURVE",
"832 0 OFFCURVE",
"834 0 CURVE",
"860 0 OFFCURVE",
"886 0 OFFCURVE",
"912 1 CURVE SMOOTH",
"937 1 OFFCURVE",
"962 1 OFFCURVE",
"988 1 CURVE SMOOTH",
"1009 1 OFFCURVE",
"1030 1 OFFCURVE",
"1049 3 CURVE SMOOTH",
"1068 4 OFFCURVE",
"1089 5 OFFCURVE",
"1110 5 CURVE SMOOTH",
"1124 5 OFFCURVE",
"1130 14 OFFCURVE",
"1130 26 CURVE SMOOTH",
"1130 29 OFFCURVE",
"1129 34 OFFCURVE",
"1129 41 CURVE",
"1127 55 OFFCURVE",
"1125 73 OFFCURVE",
"1123 91 CURVE SMOOTH",
"1121 110 OFFCURVE",
"1118 126 OFFCURVE",
"1115 136 CURVE",
"1114 141 OFFCURVE",
"1113 143 OFFCURVE",
"1112 143 CURVE SMOOTH",
"1080 143 OFFCURVE",
"1048 143 OFFCURVE",
"1016 143 CURVE SMOOTH",
"984 142 OFFCURVE",
"952 142 OFFCURVE",
"919 142 CURVE",
"919 154 OFFCURVE",
"919 167 OFFCURVE",
"920 178 CURVE SMOOTH",
"922 189 OFFCURVE",
"922 201 OFFCURVE",
"922 213 CURVE SMOOTH",
"922 238 OFFCURVE",
"923 249 OFFCURVE",
"938 252 CURVE",
"946 254 OFFCURVE",
"958 254 OFFCURVE",
"974 254 CURVE SMOOTH",
"990 253 OFFCURVE",
"1012 253 OFFCURVE",
"1041 253 CURVE SMOOTH",
"1070 253 OFFCURVE",
"1099 253 OFFCURVE",
"1121 257 CURVE SMOOTH",
"1143 260 OFFCURVE",
"1157 266 OFFCURVE",
"1157 278 CURVE SMOOTH",
"1157 281 LINE",
"1153 370 LINE",
"1151 376 OFFCURVE",
"1149 380 OFFCURVE",
"1148 383 CURVE",
"1144 389 OFFCURVE",
"1139 391 OFFCURVE",
"1132 392 CURVE",
"1128 392 OFFCURVE",
"1124 393 OFFCURVE",
"1119 393 CURVE SMOOTH",
"1089 396 OFFCURVE",
"1060 397 OFFCURVE",
"1031 397 CURVE SMOOTH",
"1001 397 OFFCURVE",
"972 397 OFFCURVE",
"941 397 CURVE SMOOTH",
"930 397 OFFCURVE",
"926 400 OFFCURVE",
"926 418 CURVE SMOOTH",
"926 423 OFFCURVE",
"926 431 OFFCURVE",
"927 442 CURVE SMOOTH",
"929 463 OFFCURVE",
"932 487 OFFCURVE",
"937 503 CURVE SMOOTH",
"939 511 OFFCURVE",
"942 515 OFFCURVE",
"945 515 CURVE SMOOTH",
"978 515 OFFCURVE",
"1010 515 OFFCURVE",
"1042 516 CURVE SMOOTH",
"1075 516 OFFCURVE",
"1107 516 OFFCURVE",
"1138 516 CURVE SMOOTH",
"1141 516 OFFCURVE",
"1143 516 OFFCURVE",
"1145 516 CURVE",
"1148 515 OFFCURVE",
"1150 518 OFFCURVE",
"1151 525 CURVE",
"1151 529 OFFCURVE",
"1151 535 OFFCURVE",
"1151 543 CURVE",
"1149 557 OFFCURVE",
"1146 570 OFFCURVE",
"1145 585 CURVE SMOOTH",
"1142 615 OFFCURVE",
"1139 641 OFFCURVE",
"1134 657 CURVE",
"1131 665 OFFCURVE",
"1127 669 OFFCURVE",
"1123 669 CURVE",
"1084 672 OFFCURVE",
"1049 674 OFFCURVE",
"1015 674 CURVE SMOOTH",
"948 676 OFFCURVE",
"886 674 OFFCURVE",
"824 672 CURVE SMOOTH",
"792 671 OFFCURVE",
"760 671 OFFCURVE",
"727 670 CURVE SMOOTH",
"702 671 OFFCURVE",
"667 671 OFFCURVE",
"638 671 CURVE SMOOTH",
"623 671 OFFCURVE",
"610 671 OFFCURVE",
"600 671 CURVE",
"588 671 OFFCURVE",
"582 671 OFFCURVE",
"580 671 CURVE",
"580 670 OFFCURVE",
"578 670 OFFCURVE",
"575 670 CURVE",
"571 670 OFFCURVE",
"566 670 OFFCURVE",
"561 669 CURVE SMOOTH",
"555 669 OFFCURVE",
"548 668 OFFCURVE",
"542 668 CURVE SMOOTH",
"535 667 OFFCURVE",
"528 667 OFFCURVE",
"522 667 CURVE SMOOTH",
"516 667 OFFCURVE",
"511 667 OFFCURVE",
"507 667 CURVE",
"503 666 OFFCURVE",
"501 666 OFFCURVE",
"500 666 CURVE SMOOTH",
"485 666 OFFCURVE",
"471 667 OFFCURVE",
"458 668 CURVE SMOOTH",
"445 670 OFFCURVE",
"432 671 OFFCURVE",
"417 671 CURVE SMOOTH",
"408 671 OFFCURVE",
"398 670 OFFCURVE",
"389 668 CURVE SMOOTH",
"379 666 OFFCURVE",
"370 665 OFFCURVE",
"362 665 CURVE SMOOTH",
"360 665 OFFCURVE",
"358 665 OFFCURVE",
"357 666 CURVE SMOOTH",
"356 666 OFFCURVE",
"355 666 OFFCURVE",
"354 666 CURVE",
"348 664 OFFCURVE",
"341 658 OFFCURVE",
"341 655 CURVE",
"190 339 LINE SMOOTH",
"151 258 OFFCURVE",
"111 171 OFFCURVE",
"76 91 CURVE",
"75 88 OFFCURVE",
"73 83 OFFCURVE",
"70 78 CURVE SMOOTH",
"68 72 OFFCURVE",
"65 66 OFFCURVE",
"63 59 CURVE SMOOTH",
"57 45 OFFCURVE",
"52 31 OFFCURVE",
"51 19 CURVE SMOOTH",
"50 7 OFFCURVE",
"53 -1 OFFCURVE",
"63 -1 CURVE SMOOTH"
);
},
{
closed = 1;
nodes = (
"561 248 OFFCURVE",
"543 247 OFFCURVE",
"531 247 CURVE SMOOTH",
"490 247 LINE",
"495 261 OFFCURVE",
"500 276 OFFCURVE",
"507 294 CURVE SMOOTH",
"513 312 OFFCURVE",
"520 330 OFFCURVE",
"526 348 CURVE SMOOTH",
"533 366 OFFCURVE",
"540 384 OFFCURVE",
"546 402 CURVE SMOOTH",
"552 419 OFFCURVE",
"558 435 OFFCURVE",
"563 449 CURVE SMOOTH",
"567 463 OFFCURVE",
"571 474 OFFCURVE",
"575 483 CURVE SMOOTH",
"578 491 OFFCURVE",
"579 496 OFFCURVE",
"579 496 CURVE",
"580 498 OFFCURVE",
"580 499 OFFCURVE",
"581 500 CURVE",
"582 502 OFFCURVE",
"583 506 OFFCURVE",
"585 511 CURVE",
"585 509 OFFCURVE",
"585 506 OFFCURVE",
"585 505 CURVE",
"585 503 OFFCURVE",
"585 501 OFFCURVE",
"585 500 CURVE SMOOTH",
"585 496 LINE SMOOTH",
"585 496 OFFCURVE",
"585 491 OFFCURVE",
"584 482 CURVE SMOOTH",
"584 474 OFFCURVE",
"583 462 OFFCURVE",
"583 448 CURVE SMOOTH",
"582 434 OFFCURVE",
"581 418 OFFCURVE",
"580 400 CURVE SMOOTH",
"579 382 OFFCURVE",
"578 364 OFFCURVE",
"577 346 CURVE SMOOTH",
"575 309 OFFCURVE",
"573 271 OFFCURVE",
"571 244 CURVE"
);
}
);
width = 1210;
}
);
leftKerningGroup = A;
rightKerningGroup = E;
unicode = 00C6;
},
{
glyphname = B;
lastChange = "2016-07-08 07:51:01 +0000";
layers = (
{
anchors = (
{
name = bottom;
position = "{410, 0}";
},
{
name = top;
position = "{410, 676}";
}
);
background = {
paths = (
{
closed = 1;
nodes = (
"58 525 LINE",
"58 542 LINE",
"57 575 LINE",
"57 590 LINE",
"57 604 LINE",
"59 629 LINE",
"61 641 LINE",
"63 648 LINE",
"65 664 LINE",
"72 677 LINE",
"86 686 LINE",
"101 686 LINE",
"119 686 LINE",
"167 689 LINE",
"218 692 LINE",
"268 695 LINE",
"288 695 LINE",
"334 695 LINE",
"433 685 LINE",
"480 679 LINE",
"506 676 LINE",
"568 667 LINE",
"631 653 LINE",
"688 630 LINE",
"733 594 LINE",
"760 542 LINE",
"760 506 LINE",
"760 463 LINE",
"726 401 LINE",
"691 379 LINE",
"683 375 LINE",
"665 368 LINE",
"649 361 LINE",
"636 353 LINE",
"633 348 LINE",
"634 347 LINE",
"635 345 LINE",
"636 344 LINE",
"674 328 LINE",
"729 293 LINE",
"764 256 LINE",
"780 219 LINE",
"780 200 LINE",
"780 171 LINE",
"744 114 LINE",
"682 64 LINE",
"598 23 LINE",
"550 10 LINE",
"513 -1 LINE",
"441 -14 LINE",
"375 -21 LINE",
"317 -24 LINE",
"294 -24 LINE",
"228 -24 LINE",
"139 -18 LINE",
"85 3 LINE",
"63 41 LINE",
"63 72 LINE",
"63 82 LINE",
"64 112 LINE",
"65 144 LINE",
"66 172 LINE",
"66 179 LINE",
"66 265 LINE",
"58 438 LINE"
);
},
{
closed = 1;
nodes = (
"399 255 LINE",
"393 255 LINE",
"388 247 LINE",
"388 241 LINE",
"388 161 LINE",
"388 156 LINE",
"394 154 LINE",
"396 154 LINE",
"397 154 LINE",
"399 154 LINE",
"399 155 LINE",
"479 193 LINE",
"558 229 LINE",
"560 231 LINE",
"565 234 LINE",
"567 236 LINE",
"544 243 LINE",
"505 250 LINE",
"465 254 LINE",
"424 255 LINE"
);
},
{
closed = 1;
nodes = (
"405 453 LINE",
"405 448 LINE",
"406 442 LINE",
"413 442 LINE",
"415 442 LINE",
"434 449 LINE",
"459 460 LINE",
"487 474 LINE",
"511 485 LINE",
"527 492 LINE",
"528 492 LINE",
"531 493 LINE",
"540 496 LINE",
"540 500 LINE",
"540 510 LINE",
"517 521 LINE",
"486 526 LINE",
"456 528 LINE",
"448 528 LINE",
"431 528 LINE",
"414 516 LINE",
"406 495 LINE",
"405 468 LINE"
);
}
);
};
layerId = UUID0;
paths = (
{
closed = 1;
nodes = (
"325 -24 OFFCURVE",
"364 -22 OFFCURVE",
"408 -18 CURVE SMOOTH",
"452 -13 OFFCURVE",
"500 -4 OFFCURVE",
"550 10 CURVE SMOOTH",
"614 28 OFFCURVE",
"671 56 OFFCURVE",
"713 89 CURVE SMOOTH",
"754 123 OFFCURVE",
"780 161 OFFCURVE",
"780 200 CURVE SMOOTH",
"780 225 OFFCURVE",
"770 250 OFFCURVE",
"747 275 CURVE SMOOTH",
"723 299 OFFCURVE",
"687 323 OFFCURVE",
"636 344 CURVE",
"635 345 OFFCURVE",
"635 346 OFFCURVE",
"634 346 CURVE SMOOTH",
"634 347 OFFCURVE",
"633 348 OFFCURVE",
"633 348 CURVE",
"635 352 OFFCURVE",
"638 354 OFFCURVE",
"643 357 CURVE",
"651 362 OFFCURVE",
"662 367 OFFCURVE",
"674 371 CURVE",
"680 374 OFFCURVE",
"686 376 OFFCURVE",
"691 379 CURVE",
"738 408 OFFCURVE",
"760 449 OFFCURVE",
"760 506 CURVE SMOOTH",
"760 554 OFFCURVE",
"740 588 OFFCURVE",
"711 612 CURVE SMOOTH",
"681 636 OFFCURVE",
"641 650 OFFCURVE",
"600 660 CURVE SMOOTH",
"558 670 OFFCURVE",
"515 675 OFFCURVE",
"480 679 CURVE SMOOTH",
"417 687 OFFCURVE",
"350 695 OFFCURVE",
"288 695 CURVE SMOOTH",
"274 695 OFFCURVE",
"259 694 OFFCURVE",
"243 693 CURVE SMOOTH",
"227 692 OFFCURVE",
"210 691 OFFCURVE",
"193 690 CURVE SMOOTH",
"176 689 OFFCURVE",
"159 688 OFFCURVE",
"143 688 CURVE SMOOTH",
"127 687 OFFCURVE",
"113 686 OFFCURVE",
"101 686 CURVE SMOOTH",
"91 686 OFFCURVE",
"84 685 OFFCURVE",
"79 682 CURVE SMOOTH",
"69 676 OFFCURVE",
"65 667 OFFCURVE",
"64 656 CURVE",
"63 651 OFFCURVE",
"62 646 OFFCURVE",
"61 641 CURVE SMOOTH",
"58 625 OFFCURVE",
"57 609 OFFCURVE",
"57 590 CURVE SMOOTH",
"57 580 OFFCURVE",
"57 569 OFFCURVE",
"57 559 CURVE SMOOTH",
"58 547 OFFCURVE",
"58 536 OFFCURVE",
"58 525 CURVE SMOOTH",
"58 467 OFFCURVE",
"59 410 OFFCURVE",
"62 352 CURVE SMOOTH",
"64 294 OFFCURVE",
"66 236 OFFCURVE",
"66 179 CURVE SMOOTH",
"66 174 OFFCURVE",
"66 167 OFFCURVE",
"65 158 CURVE SMOOTH",
"65 148 OFFCURVE",
"65 138 OFFCURVE",
"64 128 CURVE SMOOTH",
"64 117 OFFCURVE",
"64 107 OFFCURVE",
"63 97 CURVE SMOOTH",
"63 86 OFFCURVE",
"63 78 OFFCURVE",
"63 72 CURVE SMOOTH",
"63 30 OFFCURVE",
"77 6 OFFCURVE",
"112 -7 CURVE SMOOTH",
"148 -21 OFFCURVE",
"206 -24 OFFCURVE",
"294 -24 CURVE SMOOTH"
);
},
{
closed = 1;
nodes = (
"393 154 OFFCURVE",
"388 154 OFFCURVE",
"388 161 CURVE SMOOTH",
"388 241 LINE SMOOTH",
"388 249 OFFCURVE",
"391 255 OFFCURVE",
"399 255 CURVE SMOOTH",
"432 255 OFFCURVE",
"459 254 OFFCURVE",
"485 252 CURVE SMOOTH",
"512 250 OFFCURVE",
"537 245 OFFCURVE",
"567 236 CURVE",
"566 235 OFFCURVE",
"564 234 OFFCURVE",
"563 233 CURVE SMOOTH",
"561 232 OFFCURVE",
"559 230 OFFCURVE",
"558 229 CURVE",
"505 205 OFFCURVE",
"452 181 OFFCURVE",
"399 155 CURVE",
"399 154 OFFCURVE",
"398 154 OFFCURVE",
"398 154 CURVE SMOOTH",
"397 154 OFFCURVE",
"396 154 OFFCURVE",
"396 154 CURVE SMOOTH"
);
},
{
closed = 1;
nodes = (
"403 442 OFFCURVE",
"405 446 OFFCURVE",
"405 453 CURVE SMOOTH",
"405 473 OFFCURVE",
"404 491 OFFCURVE",
"410 505 CURVE SMOOTH",
"415 519 OFFCURVE",
"426 528 OFFCURVE",
"448 528 CURVE SMOOTH",
"458 528 OFFCURVE",
"481 527 OFFCURVE",
"502 523 CURVE SMOOTH",
"522 520 OFFCURVE",
"540 513 OFFCURVE",
"540 500 CURVE SMOOTH",
"540 497 OFFCURVE",
"539 495 OFFCURVE",
"536 495 CURVE",
"533 494 OFFCURVE",
"530 493 OFFCURVE",
"528 492 CURVE",
"527 492 OFFCURVE",
"524 491 OFFCURVE",
"519 489 CURVE SMOOTH",
"508 484 OFFCURVE",
"492 476 OFFCURVE",
"473 467 CURVE SMOOTH",
"455 458 OFFCURVE",
"437 451 OFFCURVE",
"424 446 CURVE SMOOTH",
"418 443 OFFCURVE",
"414 442 OFFCURVE",
"413 442 CURVE SMOOTH"
);
}
);
width = 820;
}
);
leftKerningGroup = H;
rightKerningGroup = B;
unicode = 0042;
},
{
glyphname = C;
lastChange = "2016-07-08 07:51:01 +0000";
layers = (
{
anchors = (
{
name = bottom;
position = "{318, 0}";
},
{
name = top;
position = "{358, 676}";
}
);
background = {
paths = (
{
closed = 1;
nodes = (
"380 327 LINE",
"380 315 LINE",
"381 292 LINE",
"382 282 LINE",
"385 250 LINE",
"400 204 LINE",
"422 176 LINE",
"450 164 LINE",
"466 164 LINE",
"481 164 LINE",
"514 173 LINE",
"549 190 LINE",
"585 211 LINE",
"603 224 LINE",
"612 60 LINE",
"592 41 LINE",
"541 10 LINE",
"484 -12 LINE",
"428 -24 LINE",
"403 -24 LINE",
"375 -24 LINE",
"320 -21 LINE",
"266 -14 LINE",
"214 0 LINE",
"190 11 LINE",
"180 16 LINE",
"161 26 LINE",
"152 33 LINE",
"137 46 LINE",
"110 77 LINE",
"99 96 LINE",
"80 118 LINE",
"67 146 LINE",
"55 179 LINE",
"41 261 LINE",
"41 313 LINE",
"41 372 LINE",
"65 471 LINE",
"87 512 LINE",
"128 596 LINE",
"266 688 LINE",
"353 694 LINE",
"359 695 LINE",
"371 695 LINE",
"378 695 LINE",
"419 695 LINE",
"463 686 LINE",
"504 678 LINE",
"588 645 LINE",
"631 620 LINE",
"613 490 LINE",
"584 497 LINE",
"523 512 LINE",
"494 512 LINE",
"469 512 LINE",
"425 495 LINE",
"410 471 LINE",
"396 450 LINE",
"380 380 LINE"
);
}
);
};
layerId = UUID0;
paths = (
{
closed = 1;
nodes = (
"436 -24 OFFCURVE",
"475 -16 OFFCURVE",
"513 -1 CURVE SMOOTH",
"550 14 OFFCURVE",
"586 35 OFFCURVE",
"612 60 CURVE",
"603 224 LINE",
"580 207 OFFCURVE",
"555 193 OFFCURVE",
"532 182 CURVE SMOOTH",
"508 170 OFFCURVE",
"486 164 OFFCURVE",
"466 164 CURVE SMOOTH",
"444 164 OFFCURVE",
"426 172 OFFCURVE",
"411 190 CURVE SMOOTH",
"396 209 OFFCURVE",
"386 239 OFFCURVE",
"382 282 CURVE SMOOTH",
"380 296 OFFCURVE",
"380 311 OFFCURVE",
"380 327 CURVE SMOOTH",
"380 398 OFFCURVE",
"391 442 OFFCURVE",
"410 471 CURVE SMOOTH",
"431 502 OFFCURVE",
"461 512 OFFCURVE",
"494 512 CURVE SMOOTH",
"514 512 OFFCURVE",
"534 510 OFFCURVE",
"554 505 CURVE SMOOTH",
"574 500 OFFCURVE",
"594 495 OFFCURVE",
"613 490 CURVE",
"631 620 LINE",
"603 637 OFFCURVE",
"574 650 OFFCURVE",
"546 662 CURVE SMOOTH",
"490 683 OFFCURVE",
"433 695 OFFCURVE",
"378 695 CURVE SMOOTH",
"374 695 OFFCURVE",
"369 695 OFFCURVE",
"365 695 CURVE SMOOTH",
"361 695 OFFCURVE",
"357 694 OFFCURVE",
"353 694 CURVE",
"237 686 OFFCURVE",
"142 624 OFFCURVE",
"87 512 CURVE",
"58 458 OFFCURVE",
"41 392 OFFCURVE",
"41 313 CURVE SMOOTH",
"41 244 OFFCURVE",
"51 190 OFFCURVE",
"67 146 CURVE",
"76 127 OFFCURVE",
"86 110 OFFCURVE",
"99 96 CURVE",
"114 71 OFFCURVE",
"132 50 OFFCURVE",
"152 33 CURVE",
"164 24 OFFCURVE",
"177 17 OFFCURVE",
"190 11 CURVE SMOOTH",
"222 -4 OFFCURVE",
"257 -13 OFFCURVE",
"293 -18 CURVE SMOOTH",
"330 -22 OFFCURVE",
"366 -24 OFFCURVE",
"403 -24 CURVE SMOOTH"
);
}
);
width = 676;
}
);
leftKerningGroup = O;
rightKerningGroup = C;
unicode = 0043;
},
{
glyphname = D;
lastChange = "2016-07-08 07:51:01 +0000";
layers = (
{
anchors = (
{
name = bottom;
position = "{429, 0}";
},
{
name = center;
position = "{429, 338}";
},
{
name = top;
position = "{429, 676}";
}
);
background = {
paths = (
{
closed = 1;
nodes = (
"375 -1 LINE",
"342 -1 LINE",
"277 0 LINE",
"208 0 LINE",
"133 1 LINE",
"90 1 LINE",
"81 1 LINE",
"70 13 LINE",
"65 31 LINE",
"63 52 LINE",
"63 62 LINE",
"63 85 LINE",
"62 167 LINE",
"60 267 LINE",
"58 375 LINE",
"58 425 LINE",
"58 645 LINE",
"58 654 LINE",
"75 671 LINE",
"84 671 LINE",
"151 671 LINE",
"248 669 LINE",
"283 669 LINE",
"338 669 LINE",
"461 672 LINE",
"535 672 LINE",
"563 672 LINE",
"625 662 LINE",
"686 636 LINE",
"743 593 LINE",
"786 526 LINE",
"812 434 LINE",
"812 372 LINE",
"812 270 LINE",
"767 127 LINE",
"664 39 LINE",
"497 -1 LINE"
);
},
{
closed = 1;
nodes = (
"382 132 LINE",
"392 131 LINE",
"401 132 LINE",
"408 132 LINE",
"423 135 LINE",
"427 139 LINE",
"434 146 LINE",
"445 176 LINE",
"456 218 LINE",
"464 268 LINE",
"470 320 LINE",
"473 372 LINE",
"473 394 LINE",
"473 397 LINE",
"473 427 LINE",
"470 468 LINE",
"465 513 LINE",
"455 552 LINE",
"438 577 LINE",
"427 577 LINE",
"419 577 LINE",
"407 574 LINE",
"402 572 LINE",
"397 570 LINE",
"394 567 LINE",
"394 544 LINE",
"393 482 LINE",
"391 413 LINE",
"389 339 LINE",
"388 304 LINE"
);
}
);
};
layerId = UUID0;
paths = (
{
closed = 1;
nodes = (
"537 -1 OFFCURVE",
"646 24 OFFCURVE",
"715 83 CURVE SMOOTH",
"784 142 OFFCURVE",
"812 235 OFFCURVE",
"812 372 CURVE SMOOTH",
"812 454 OFFCURVE",
"793 515 OFFCURVE",
"764 560 CURVE SMOOTH",
"735 604 OFFCURVE",
"696 632 OFFCURVE",
"655 649 CURVE SMOOTH",
"614 666 OFFCURVE",
"572 672 OFFCURVE",
"535 672 CURVE SMOOTH",
"486 672 OFFCURVE",
"441 671 OFFCURVE",
"400 670 CURVE SMOOTH",
"358 669 OFFCURVE",
"320 669 OFFCURVE",
"283 669 CURVE SMOOTH",
"260 669 OFFCURVE",
"232 669 OFFCURVE",
"200 670 CURVE SMOOTH",
"167 670 OFFCURVE",
"129 671 OFFCURVE",
"84 671 CURVE SMOOTH",
"72 671 OFFCURVE",
"58 657 OFFCURVE",
"58 645 CURVE SMOOTH",
"58 425 LINE SMOOTH",
"58 358 OFFCURVE",
"59 283 OFFCURVE",
"61 217 CURVE SMOOTH",
"63 150 OFFCURVE",
"63 93 OFFCURVE",
"63 62 CURVE SMOOTH",
"63 49 OFFCURVE",
"64 34 OFFCURVE",
"68 22 CURVE",
"71 10 OFFCURVE",
"78 1 OFFCURVE",
"90 1 CURVE SMOOTH",
"147 1 OFFCURVE",
"197 0 OFFCURVE",
"243 0 CURVE SMOOTH",
"289 0 OFFCURVE",
"331 -1 OFFCURVE",
"375 -1 CURVE SMOOTH"
);
},
{
closed = 1;
nodes = (
"388 304 LINE SMOOTH",
"388 327 OFFCURVE",
"389 351 OFFCURVE",
"390 376 CURVE SMOOTH",
"391 400 OFFCURVE",
"392 424 OFFCURVE",
"392 448 CURVE SMOOTH",
"393 494 OFFCURVE",
"394 536 OFFCURVE",
"394 567 CURVE",
"396 569 OFFCURVE",
"399 570 OFFCURVE",
"402 572 CURVE SMOOTH",
"408 574 OFFCURVE",
"416 577 OFFCURVE",
"427 577 CURVE SMOOTH",
"435 577 OFFCURVE",
"441 573 OFFCURVE",
"447 564 CURVE SMOOTH",
"458 547 OFFCURVE",
"464 521 OFFCURVE",
"468 491 CURVE SMOOTH",
"471 460 OFFCURVE",
"473 432 OFFCURVE",
"473 413 CURVE SMOOTH",
"473 402 OFFCURVE",
"473 396 OFFCURVE",
"473 394 CURVE SMOOTH",
"473 364 OFFCURVE",
"471 329 OFFCURVE",
"467 294 CURVE SMOOTH",
"463 259 OFFCURVE",
"458 225 OFFCURVE",
"451 197 CURVE SMOOTH",
"444 169 OFFCURVE",
"436 147 OFFCURVE",
"427 139 CURVE SMOOTH",
"425 137 OFFCURVE",
"421 135 OFFCURVE",
"416 134 CURVE SMOOTH",
"406 132 OFFCURVE",
"396 131 OFFCURVE",
"382 132 CURVE"
);
}
);
width = 857;
}
);
leftKerningGroup = H;
rightKerningGroup = O;
unicode = 0044;
},
{
glyphname = Eth;
lastChange = "2016-07-08 07:51:01 +0000";
layers = (
{
background = {
paths = (
{
closed = 1;
nodes = (
"411 -1 LINE",
"381 -1 LINE",
"322 0 LINE",
"259 0 LINE",
"190 1 LINE",
"151 1 LINE",
"142 1 LINE",
"131 13 LINE",
"126 31 LINE",
"125 52 LINE",
"125 62 LINE",
"125 77 LINE",
"124 123 LINE",
"123 179 LINE",
"121 243 LINE",
"121 277 LINE",
"105 277 LINE",
"77 278 LINE",
"57 282 LINE",
"44 289 LINE",
"44 294 LINE",
"44 312 LINE",
"44 339 LINE",
"43 364 LINE",
"43 391 LINE",
"43 408 LINE",
"43 410 LINE",
"48 416 LINE",
"57 420 LINE",
"67 423 LINE",
"71 423 LINE",
"83 423 LINE",
"107 423 LINE",
"119 423 LINE",
"119 425 LINE",
"119 645 LINE",
"119 654 LINE",
"136 671 LINE",
"146 671 LINE",
"205 671 LINE",
"288 669 LINE",
"320 669 LINE",
"375 669 LINE",
"498 672 LINE",
"572 672 LINE",
"599 672 LINE",
"661 662 LINE",
"723 635 LINE",
"779 590 LINE",
"822 521 LINE",
"848 426 LINE",
"848 362 LINE",
"848 263 LINE",
"803 124 LINE",
"700 38 LINE",
"533 -1 LINE"
);
},
{
closed = 1;
nodes = (
"419 132 LINE",
"431 131 LINE",
"442 132 LINE",
"451 132 LINE",
"469 135 LINE",
"474 139 LINE",
"484 149 LINE",
"503 182 LINE",
"517 241 LINE",
"524 329 LINE",
"524 394 LINE",
"524 397 LINE",
"524 427 LINE",
"521 468 LINE",
"513 513 LINE",
"500 552 LINE",
"479 577 LINE",
"464 577 LINE",
"453 577 LINE",
"437 574 LINE",
"431 572 LINE",
"425 570 LINE",
"420 567 LINE",
"420 540 LINE",
"420 464 LINE",
"420 422 LINE",
"432 422 LINE",
"454 420 LINE",
"473 417 LINE",
"484 412 LINE",
"484 407 LINE",
"484 389 LINE",
"483 365 LINE",
"482 344 LINE",
"481 324 LINE",
"481 311 LINE",
"481 304 LINE",
"479 292 LINE",
"466 285 LINE",
"441 280 LINE",
"419 280 LINE",
"419 249 LINE",
"419 195 LINE",
"419 175 LINE"
);
}
);
};
layerId = UUID0;
paths = (
{
closed = 1;
nodes = (
"574 -1 OFFCURVE",
"683 23 OFFCURVE",
"752 81 CURVE SMOOTH",
"820 139 OFFCURVE",
"848 229 OFFCURVE",
"848 362 CURVE SMOOTH",
"848 447 OFFCURVE",
"830 510 OFFCURVE",
"801 556 CURVE SMOOTH",
"772 602 OFFCURVE",
"733 631 OFFCURVE",
"692 648 CURVE SMOOTH",
"651 666 OFFCURVE",
"608 672 OFFCURVE",
"572 672 CURVE SMOOTH",
"522 672 OFFCURVE",
"478 671 OFFCURVE",
"437 670 CURVE SMOOTH",
"395 669 OFFCURVE",
"356 669 OFFCURVE",
"320 669 CURVE SMOOTH",
"299 669 OFFCURVE",
"274 669 OFFCURVE",
"247 670 CURVE SMOOTH",
"219 670 OFFCURVE",
"185 671 OFFCURVE",
"146 671 CURVE SMOOTH",
"133 671 OFFCURVE",
"119 657 OFFCURVE",
"119 645 CURVE SMOOTH",
"119 425 LINE",
"119 423 LINE",
"111 423 OFFCURVE",
"103 423 OFFCURVE",
"95 423 CURVE SMOOTH",
"87 423 OFFCURVE",
"80 423 OFFCURVE",
"71 423 CURVE SMOOTH",
"65 423 OFFCURVE",
"58 421 OFFCURVE",
"53 418 CURVE",
"47 415 OFFCURVE",
"43 411 OFFCURVE",
"43 408 CURVE SMOOTH",
"43 385 OFFCURVE",
"43 369 OFFCURVE",
"44 352 CURVE SMOOTH",
"44 334 OFFCURVE",
"44 318 OFFCURVE",
"44 294 CURVE SMOOTH",
"44 287 OFFCURVE",
"53 283 OFFCURVE",
"67 280 CURVE SMOOTH",
"81 278 OFFCURVE",
"100 277 OFFCURVE",
"121 277 CURVE",
"121 254 OFFCURVE",
"122 232 OFFCURVE",
"122 211 CURVE SMOOTH",
"123 189 OFFCURVE",
"123 169 OFFCURVE",
"123 151 CURVE SMOOTH",
"124 132 OFFCURVE",
"124 115 OFFCURVE",
"124 100 CURVE SMOOTH",
"125 85 OFFCURVE",
"125 72 OFFCURVE",
"125 62 CURVE SMOOTH",
"125 49 OFFCURVE",
"125 34 OFFCURVE",
"129 22 CURVE",
"132 10 OFFCURVE",
"139 1 OFFCURVE",
"151 1 CURVE SMOOTH",
"204 1 OFFCURVE",
"249 0 OFFCURVE",
"291 0 CURVE SMOOTH",
"333 0 OFFCURVE",
"371 -1 OFFCURVE",
"411 -1 CURVE SMOOTH"
);
},
{
closed = 1;
nodes = (
"419 175 LINE SMOOTH",
"419 188 OFFCURVE",
"419 204 OFFCURVE",
"419 222 CURVE SMOOTH",
"419 240 OFFCURVE",
"419 259 OFFCURVE",
"419 280 CURVE",
"434 280 OFFCURVE",
"446 281 OFFCURVE",
"454 283 CURVE SMOOTH",
"462 284 OFFCURVE",
"468 286 OFFCURVE",
"473 289 CURVE",
"480 294 OFFCURVE",
"481 301 OFFCURVE",
"481 311 CURVE SMOOTH",
"481 320 OFFCURVE",
"481 328 OFFCURVE",
"481 334 CURVE SMOOTH",
"482 341 OFFCURVE",
"482 348 OFFCURVE",
"482 354 CURVE",
"483 368 OFFCURVE",
"484 383 OFFCURVE",
"484 407 CURVE SMOOTH",
"484 413 OFFCURVE",
"476 417 OFFCURVE",
"463 419 CURVE SMOOTH",
"451 421 OFFCURVE",
"436 422 OFFCURVE",
"420 422 CURVE",
"420 450 OFFCURVE",
"420 477 OFFCURVE",
"420 502 CURVE SMOOTH",
"420 527 OFFCURVE",
"420 549 OFFCURVE",
"420 567 CURVE",
"423 569 OFFCURVE",
"427 570 OFFCURVE",
"431 572 CURVE SMOOTH",
"438 574 OFFCURVE",
"449 577 OFFCURVE",
"464 577 CURVE SMOOTH",
"474 577 OFFCURVE",
"482 573 OFFCURVE",
"489 564 CURVE SMOOTH",
"503 547 OFFCURVE",
"512 521 OFFCURVE",
"517 491 CURVE SMOOTH",
"522 460 OFFCURVE",
"524 432 OFFCURVE",
"524 413 CURVE SMOOTH",
"524 402 OFFCURVE",
"524 396 OFFCURVE",
"524 394 CURVE SMOOTH",
"524 308 OFFCURVE",
"519 250 OFFCURVE",
"510 211 CURVE SMOOTH",
"500 172 OFFCURVE",
"488 152 OFFCURVE",
"474 139 CURVE",
"471 137 OFFCURVE",
"466 135 OFFCURVE",
"460 134 CURVE SMOOTH",
"448 132 OFFCURVE",
"435 131 OFFCURVE",
"419 132 CURVE"
);
}
);
width = 895;
}
);
leftKerningGroup = H;
rightKerningGroup = O;
unicode = 00D0;
},
{
glyphname = E;
lastChange = "2016-07-08 07:51:01 +0000";
layers = (
{
anchors = (
{
name = bottom;
position = "{347, 0}";
},
{
name = ogonek;
position = "{602, 10}";
},
{
name = top;
position = "{347, 676}";
},
{
name = topleft;
position = "{20, 676}";
}
);
background = {
paths = (
{
closed = 1;
nodes = (
"57 393 LINE",
"57 457 LINE",
"59 582 LINE",
"65 650 LINE",
"65 657 LINE",
"79 665 LINE",
"100 669 LINE",
"126 670 LINE",
"139 670 LINE",
"201 670 LINE",
"313 673 LINE",
"422 675 LINE",
"539 674 LINE",
"606 669 LINE",
"615 669 LINE",
"626 647 LINE",
"633 615 LINE",
"639 576 LINE",
"644 558 LINE",
"645 545 LINE",
"642 534 LINE",
"637 530 LINE",
"627 531 LINE",
"621 531 LINE",
"596 531 LINE",
"544 527 LINE",
"492 522 LINE",
"439 517 LINE",
"413 515 LINE",
"409 515 LINE",
"401 491 LINE",
"396 458 LINE",
"394 426 LINE",
"394 418 LINE",
"394 404 LINE",
"401 397 LINE",
"410 397 LINE",
"455 397 LINE",
"543 397 LINE",
"587 393 LINE",
"595 392 LINE",
"605 391 LINE",
"613 388 LINE",
"619 379 LINE",
"621 370 LINE",
"625 281 LINE",
"625 278 LINE",
"625 269 LINE",
"605 259 LINE",
"573 254 LINE",
"531 253 LINE",
"509 253 LINE",
"466 253 LINE",
"418 255 LINE",
"396 250 LINE",
"391 232 LINE",
"391 213 LINE",
"391 194 LINE",
"387 158 LINE",
"388 137 LINE",
"436 137 LINE",
"533 143 LINE",
"580 143 LINE",
"583 143 LINE",
"591 128 LINE",
"600 105 LINE",
"607 77 LINE",
"614 51 LINE",
"618 30 LINE",
"618 26 LINE",
"618 17 LINE",
"608 5 LINE",
"598 5 LINE",
"562 5 LINE",
"494 1 LINE",
"456 1 LINE",
"377 1 LINE",
"219 0 LINE",
"140 0 LINE",
"136 0 LINE",
"113 2 LINE",
"89 6 LINE",
"70 11 LINE",
"71 14 LINE",
"71 25 LINE",
"69 62 LINE",
"67 105 LINE",
"64 152 LINE",
"62 197 LINE",
"60 234 LINE",
"60 246 LINE",
"60 262 LINE",
"59 289 LINE",
"58 321 LINE",
"57 362 LINE"
);
}
);
};
layerId = UUID0;
paths = (
{
closed = 1;
nodes = (
"192 0 OFFCURVE",
"245 0 OFFCURVE",
"298 0 CURVE SMOOTH",
"351 1 OFFCURVE",
"404 1 OFFCURVE",
"456 1 CURVE SMOOTH",
"481 1 OFFCURVE",
"505 1 OFFCURVE",
"528 3 CURVE SMOOTH",
"550 4 OFFCURVE",
"574 5 OFFCURVE",
"598 5 CURVE SMOOTH",
"612 5 OFFCURVE",
"618 14 OFFCURVE",
"618 26 CURVE SMOOTH",
"618 29 OFFCURVE",
"617 34 OFFCURVE",
"616 41 CURVE SMOOTH",
"613 55 OFFCURVE",
"609 73 OFFCURVE",
"604 91 CURVE SMOOTH",
"598 110 OFFCURVE",
"593 126 OFFCURVE",
"587 136 CURVE",
"585 141 OFFCURVE",
"583 143 OFFCURVE",
"580 143 CURVE SMOOTH",
"548 143 OFFCURVE",
"517 142 OFFCURVE",
"484 140 CURVE SMOOTH",
"452 138 OFFCURVE",
"420 137 OFFCURVE",
"388 137 CURVE",
"387 151 OFFCURVE",
"387 164 OFFCURVE",
"389 176 CURVE SMOOTH",
"390 188 OFFCURVE",
"391 201 OFFCURVE",
"391 213 CURVE SMOOTH",
"391 238 OFFCURVE",
"392 249 OFFCURVE",
"407 252 CURVE",
"414 254 OFFCURVE",
"426 254 OFFCURVE",
"442 254 CURVE SMOOTH",
"458 253 OFFCURVE",
"480 253 OFFCURVE",
"509 253 CURVE SMOOTH",
"538 253 OFFCURVE",
"567 253 OFFCURVE",
"589 257 CURVE SMOOTH",
"611 260 OFFCURVE",
"625 266 OFFCURVE",
"625 278 CURVE SMOOTH",
"625 281 LINE",
"621 370 LINE",
"620 376 OFFCURVE",
"618 380 OFFCURVE",
"616 383 CURVE",
"612 389 OFFCURVE",
"607 391 OFFCURVE",
"600 392 CURVE",
"597 392 OFFCURVE",
"592 393 OFFCURVE",
"587 393 CURVE SMOOTH",
"558 396 OFFCURVE",
"528 397 OFFCURVE",
"499 397 CURVE SMOOTH",
"470 397 OFFCURVE",
"440 397 OFFCURVE",
"410 397 CURVE SMOOTH",
"398 397 OFFCURVE",
"394 400 OFFCURVE",
"394 418 CURVE SMOOTH",
"394 423 OFFCURVE",
"395 431 OFFCURVE",
"396 442 CURVE SMOOTH",
"397 463 OFFCURVE",
"400 487 OFFCURVE",
"405 503 CURVE SMOOTH",
"408 511 OFFCURVE",
"410 515 OFFCURVE",
"413 515 CURVE",
"430 516 OFFCURVE",
"448 518 OFFCURVE",
"465 520 CURVE SMOOTH",
"483 521 OFFCURVE",
"500 523 OFFCURVE",
"518 524 CURVE SMOOTH",
"553 528 OFFCURVE",
"588 531 OFFCURVE",
"621 531 CURVE SMOOTH",
"625 531 OFFCURVE",
"629 531 OFFCURVE",
"632 530 CURVE",
"638 530 OFFCURVE",
"642 532 OFFCURVE",
"644 540 CURVE",
"644 543 OFFCURVE",
"645 550 OFFCURVE",
"644 558 CURVE",
"641 570 OFFCURVE",
"638 582 OFFCURVE",
"636 595 CURVE",
"634 608 OFFCURVE",
"632 620 OFFCURVE",
"629 631 CURVE SMOOTH",
"625 653 OFFCURVE",
"618 669 OFFCURVE",
"606 669 CURVE",
"561 672 OFFCURVE",
"519 674 OFFCURVE",
"480 675 CURVE SMOOTH",
"403 676 OFFCURVE",
"331 674 OFFCURVE",
"257 672 CURVE SMOOTH",
"220 670 OFFCURVE",
"180 670 OFFCURVE",
"139 670 CURVE SMOOTH",
"123 670 OFFCURVE",
"104 670 OFFCURVE",
"89 667 CURVE SMOOTH",
"75 664 OFFCURVE",
"65 659 OFFCURVE",
"65 650 CURVE",
"57 560 OFFCURVE",
"57 478 OFFCURVE",
"57 393 CURVE SMOOTH",
"57 352 OFFCURVE",
"58 326 OFFCURVE",
"59 305 CURVE SMOOTH",
"60 284 OFFCURVE",
"60 268 OFFCURVE",
"60 246 CURVE SMOOTH",
"60 238 OFFCURVE",
"61 228 OFFCURVE",
"61 215 CURVE SMOOTH",
"62 190 OFFCURVE",
"63 160 OFFCURVE",
"65 129 CURVE SMOOTH",
"66 113 OFFCURVE",
"67 98 OFFCURVE",
"68 83 CURVE SMOOTH",
"70 54 OFFCURVE",
"71 28 OFFCURVE",
"71 14 CURVE",
"70 12 OFFCURVE",
"73 10 OFFCURVE",
"80 9 CURVE SMOOTH",
"86 7 OFFCURVE",
"93 6 OFFCURVE",
"101 4 CURVE SMOOTH",
"117 2 OFFCURVE",
"134 0 OFFCURVE",
"140 0 CURVE SMOOTH"
);
}
);
width = 693;
}
);
leftKerningGroup = H;
rightKerningGroup = E;
unicode = 0045;
},
{
glyphname = F;
lastChange = "2016-07-08 07:51:01 +0000";
layers = (
{
anchors = (
{
name = bottom;
position = "{331, 0}";
},
{
name = top;
position = "{331, 676}";
}
);
background = {
paths = (
{
closed = 1;
nodes = (
"57 655 LINE",
"57 660 LINE",
"62 665 LINE",
"68 666 LINE",
"73 665 LINE",
"74 665 LINE",
"109 665 LINE",
"223 670 LINE",
"292 670 LINE",
"293 670 LINE",
"312 669 LINE",
"332 669 LINE",
"350 669 LINE",
"351 669 LINE",
"374 669 LINE",
"421 668 LINE",
"472 667 LINE",
"529 666 LINE",
"562 666 LINE",
"569 666 LINE",
"580 663 LINE",
"588 662 LINE",
"597 662 LINE",
"601 666 LINE",
"614 666 LINE",
"625 643 LINE",
"627 604 LINE",
"625 554 LINE",
"625 528 LINE",
"625 521 LINE",
"614 516 LINE",
"598 514 LINE",
"581 514 LINE",
"575 514 LINE",
"530 514 LINE",
"519 514 LINE",
"506 513 LINE",
"495 511 LINE",
"481 510 LINE",
"469 510 LINE",
"461 510 LINE",
"447 510 LINE",
"445 511 LINE",
"442 510 LINE",
"438 508 LINE",
"437 507 LINE",
"437 504 LINE",
"434 490 LINE",
"432 465 LINE",
"430 427 LINE",
"430 400 LINE",
"430 400 LINE",
"428 394 LINE",
"433 389 LINE",
"453 389 LINE",
"553 389 LINE",
"563 389 LINE",
"576 383 LINE",
"582 366 LINE",
"583 335 LINE",
"583 312 LINE",
"583 283 LINE",
"583 248 LINE",
"581 228 LINE",
"574 222 LINE",
"568 222 LINE",
"563 222 LINE",
"542 220 LINE",
"519 219 LINE",
"495 218 LINE",
"487 218 LINE",
"479 218 LINE",
"472 217 LINE",
"465 215 LINE",
"457 214 LINE",
"449 213 LINE",
"441 212 LINE",
"428 213 LINE",
"417 211 LINE",
"408 206 LINE",
"403 199 LINE",
"403 163 LINE",
"402 100 LINE",
"400 50 LINE",
"395 14 LINE",
"391 5 LINE",
"380 5 LINE",
"352 3 LINE",
"326 2 LINE",
"308 1 LINE",
"303 0 LINE",
"298 2 LINE",
"294 3 LINE",
"291 5 LINE",
"289 5 LINE",
"288 5 LINE",
"282 2 LINE",
"281 1 LINE",
"198 1 LINE",
"197 0 LINE",
"170 -4 LINE",
"138 -8 LINE",
"108 -11 LINE",
"103 -11 LINE",
"90 -11 LINE",
"78 13 LINE",
"73 44 LINE",
"73 74 LINE",
"73 81 LINE",
"71 112 LINE",
"68 177 LINE",
"65 243 LINE",
"61 308 LINE",
"57 339 LINE"
);
}
);
};
layerId = UUID0;
paths = (
{
closed = 1;
nodes = (
"106 -11 OFFCURVE",
"113 -11 OFFCURVE",
"123 -10 CURVE SMOOTH",
"143 -8 OFFCURVE",
"166 -5 OFFCURVE",
"184 -2 CURVE SMOOTH",
"192 0 OFFCURVE",
"197 0 OFFCURVE",
"198 1 CURVE",
"281 1 LINE",
"282 2 OFFCURVE",
"288 5 OFFCURVE",
"289 5 CURVE SMOOTH",
"291 5 OFFCURVE",
"292 5 OFFCURVE",
"293 4 CURVE",
"294 4 OFFCURVE",
"295 3 OFFCURVE",
"296 3 CURVE",
"298 2 OFFCURVE",
"302 0 OFFCURVE",
"308 1 CURVE",
"308 1 OFFCURVE",
"311 1 OFFCURVE",
"317 1 CURVE SMOOTH",
"323 2 OFFCURVE",
"331 2 OFFCURVE",
"339 3 CURVE SMOOTH",
"356 4 OFFCURVE",
"376 5 OFFCURVE",
"391 5 CURVE",
"396 17 OFFCURVE",
"400 42 OFFCURVE",
"401 75 CURVE SMOOTH",
"403 108 OFFCURVE",
"403 151 OFFCURVE",
"403 199 CURVE",
"406 204 OFFCURVE",
"409 207 OFFCURVE",
"413 209 CURVE SMOOTH",
"419 212 OFFCURVE",
"426 213 OFFCURVE",
"435 212 CURVE",
"439 212 OFFCURVE",
"443 212 OFFCURVE",
"449 213 CURVE",
"459 214 OFFCURVE",
"464 215 OFFCURVE",
"468 216 CURVE SMOOTH",
"473 217 OFFCURVE",
"477 218 OFFCURVE",
"487 218 CURVE SMOOTH",
"492 218 OFFCURVE",
"499 218 OFFCURVE",
"507 218 CURVE SMOOTH",
"522 219 OFFCURVE",
"539 220 OFFCURVE",
"553 221 CURVE SMOOTH",
"560 222 OFFCURVE",
"565 222 OFFCURVE",
"568 222 CURVE SMOOTH",
"576 222 OFFCURVE",
"580 225 OFFCURVE",
"582 238 CURVE",
"583 244 OFFCURVE",
"583 253 OFFCURVE",
"583 265 CURVE SMOOTH",
"583 277 OFFCURVE",
"583 292 OFFCURVE",
"583 312 CURVE SMOOTH",
"583 343 OFFCURVE",
"583 363 OFFCURVE",
"579 375 CURVE SMOOTH",
"575 386 OFFCURVE",
"567 389 OFFCURVE",
"553 389 CURVE SMOOTH",
"453 389 LINE",
"433 389 LINE",
"430 392 OFFCURVE",
"429 395 OFFCURVE",
"429 397 CURVE SMOOTH",
"430 399 OFFCURVE",
"430 400 OFFCURVE",
"430 400 CURVE",
"430 418 OFFCURVE",
"430 433 OFFCURVE",
"431 446 CURVE SMOOTH",
"432 471 OFFCURVE",
"434 488 OFFCURVE",
"436 498 CURVE",
"436 502 OFFCURVE",
"437 505 OFFCURVE",
"437 507 CURVE",
"439 508 OFFCURVE",
"441 510 OFFCURVE",
"445 511 CURVE",
"448 510 OFFCURVE",
"459 510 OFFCURVE",
"469 510 CURVE SMOOTH",
"485 510 OFFCURVE",
"493 511 OFFCURVE",
"500 512 CURVE SMOOTH",
"508 513 OFFCURVE",
"516 514 OFFCURVE",
"530 514 CURVE SMOOTH",
"575 514 LINE SMOOTH",
"579 514 OFFCURVE",
"583 514 OFFCURVE",
"589 514 CURVE",
"595 514 OFFCURVE",
"601 514 OFFCURVE",
"606 515 CURVE",
"617 516 OFFCURVE",
"625 520 OFFCURVE",
"625 528 CURVE SMOOTH",
"625 545 OFFCURVE",
"625 563 OFFCURVE",
"626 579 CURVE SMOOTH",
"627 596 OFFCURVE",
"627 610 OFFCURVE",
"626 624 CURVE",
"625 649 OFFCURVE",
"619 666 OFFCURVE",
"601 666 CURVE",
"598 664 OFFCURVE",
"595 662 OFFCURVE",
"593 662 CURVE",
"587 662 OFFCURVE",
"582 663 OFFCURVE",
"575 665 CURVE SMOOTH",
"571 666 OFFCURVE",
"567 666 OFFCURVE",
"562 666 CURVE SMOOTH",
"540 666 OFFCURVE",
"520 666 OFFCURVE",
"501 667 CURVE SMOOTH",
"463 667 OFFCURVE",
"429 668 OFFCURVE",
"397 668 CURVE SMOOTH",
"381 669 OFFCURVE",
"366 669 OFFCURVE",
"351 669 CURVE SMOOTH",
"350 669 OFFCURVE",
"347 669 OFFCURVE",
"341 669 CURVE",
"335 669 OFFCURVE",
"329 669 OFFCURVE",
"322 669 CURVE SMOOTH",
"315 669 OFFCURVE",
"309 669 OFFCURVE",
"303 670 CURVE",
"296 670 OFFCURVE",
"293 670 OFFCURVE",
"292 670 CURVE SMOOTH",
"246 670 OFFCURVE",
"204 669 OFFCURVE",
"166 667 CURVE SMOOTH",
"128 666 OFFCURVE",
"97 665 OFFCURVE",
"74 665 CURVE SMOOTH",
"73 665 OFFCURVE",
"72 665 OFFCURVE",
"71 666 CURVE",
"69 666 OFFCURVE",
"67 666 OFFCURVE",
"65 666 CURVE SMOOTH",
"61 665 OFFCURVE",
"57 662 OFFCURVE",
"57 655 CURVE SMOOTH",
"57 339 LINE",
"60 318 OFFCURVE",
"62 297 OFFCURVE",
"63 275 CURVE SMOOTH",
"66 232 OFFCURVE",
"68 188 OFFCURVE",
"70 145 CURVE SMOOTH",
"70 123 OFFCURVE",
"71 102 OFFCURVE",
"73 81 CURVE",
"73 77 OFFCURVE",
"73 69 OFFCURVE",
"73 59 CURVE SMOOTH",
"73 49 OFFCURVE",
"74 39 OFFCURVE",
"76 28 CURVE SMOOTH",
"79 7 OFFCURVE",
"86 -11 OFFCURVE",
"103 -11 CURVE SMOOTH"
);
}
);
width = 662;
}
);
leftKerningGroup = H;
rightKerningGroup = F;
unicode = 0046;
},
{
glyphname = G;
lastChange = "2016-07-08 07:51:01 +0000";
layers = (
{
anchors = (
{
name = bottom;
position = "{414, 0}";
},
{
name = top;
position = "{414, 676}";
}
);
background = {
paths = (
{
closed = 1;
nodes = (
"777 142 LINE",
"777 119 LINE",
"777 74 LINE",
"775 37 LINE",
"772 9 LINE",
"769 3 LINE",
"760 3 LINE",
"740 2 LINE",
"730 1 LINE",
"719 0 LINE",
"708 0 LINE",
"705 0 LINE",
"697 0 LINE",
"695 1 LINE",
"693 2 LINE",
"693 3 LINE",
"690 2 LINE",
"688 1 LINE",
"688 0 LINE",
"588 0 LINE",
"587 0 LINE",
"578 0 LINE",
"566 0 LINE",
"555 -1 LINE",
"553 -1 LINE",
"549 -1 LINE",
"543 11 LINE",
"539 33 LINE",
"536 63 LINE",
"534 82 LINE",
"529 56 LINE",
"496 17 LINE",
"446 -9 LINE",
"382 -23 LINE",
"347 -23 LINE",
"313 -23 LINE",
"242 -6 LINE",
"174 29 LINE",
"114 85 LINE",
"69 164 LINE",
"42 268 LINE",
"42 333 LINE",
"42 420 LINE",
"104 555 LINE",
"214 647 LINE",
"363 695 LINE",
"449 695 LINE",
"512 695 LINE",
"646 662 LINE",
"712 630 LINE",
"674 460 LINE",
"656 465 LINE",
"616 476 LINE",
"575 486 LINE",
"535 492 LINE",
"516 492 LINE",
"487 492 LINE",
"438 478 LINE",
"402 441 LINE",
"381 377 LINE",
"381 327 LINE",
"381 284 LINE",
"394 225 LINE",
"417 189 LINE",
"449 174 LINE",
"467 174 LINE",
"481 174 LINE",
"512 181 LINE",
"527 188 LINE",
"526 224 LINE",
"524 292 LINE",
"524 326 LINE",
"524 344 LINE",
"524 362 LINE",
"530 369 LINE",
"543 368 LINE",
"555 368 LINE",
"661 368 LINE",
"699 368 LINE",
"745 369 LINE",
"771 365 LINE",
"780 352 LINE",
"780 337 LINE",
"780 333 LINE",
"781 326 LINE",
"781 314 LINE",
"781 293 LINE",
"781 274 LINE",
"781 172 LINE",
"781 171 LINE",
"780 162 LINE",
"778 151 LINE",
"777 143 LINE"
);
}
);
};
layerId = UUID0;
paths = (
{
closed = 1;
nodes = (
"394 -23 OFFCURVE",
"438 -14 OFFCURVE",
"471 4 CURVE SMOOTH",
"504 21 OFFCURVE",
"527 47 OFFCURVE",
"534 82 CURVE",
"535 70 OFFCURVE",
"536 59 OFFCURVE",
"537 48 CURVE SMOOTH",
"539 28 OFFCURVE",
"542 13 OFFCURVE",
"546 5 CURVE",
"548 1 OFFCURVE",
"551 -1 OFFCURVE",
"553 -1 CURVE SMOOTH",
"555 -1 OFFCURVE",
"557 -1 OFFCURVE",
"561 0 CURVE",
"564 0 OFFCURVE",
"568 0 OFFCURVE",
"572 0 CURVE SMOOTH",
"576 0 OFFCURVE",
"580 0 OFFCURVE",
"583 0 CURVE",
"586 0 OFFCURVE",
"588 0 OFFCURVE",
"588 0 CURVE SMOOTH",
"688 0 LINE",
"688 0 OFFCURVE",
"688 1 OFFCURVE",
"690 2 CURVE",
"693 3 LINE",
"693 2 OFFCURVE",
"694 2 OFFCURVE",
"695 1 CURVE",
"696 0 OFFCURVE",
"699 0 OFFCURVE",
"705 0 CURVE SMOOTH",
"708 0 LINE",
"715 0 OFFCURVE",
"723 1 OFFCURVE",
"730 1 CURVE SMOOTH",
"743 2 OFFCURVE",
"757 3 OFFCURVE",
"769 3 CURVE",
"773 11 OFFCURVE",
"775 30 OFFCURVE",
"776 55 CURVE SMOOTH",
"777 80 OFFCURVE",
"777 111 OFFCURVE",
"777 142 CURVE SMOOTH",
"777 143 OFFCURVE",
"777 144 OFFCURVE",
"778 147 CURVE",
"778 153 OFFCURVE",
"780 161 OFFCURVE",
"781 167 CURVE SMOOTH",
"781 169 OFFCURVE",
"781 171 OFFCURVE",
"781 172 CURVE SMOOTH",
"781 274 LINE SMOOTH",
"781 287 OFFCURVE",
"781 296 OFFCURVE",
"781 304 CURVE",
"781 311 OFFCURVE",
"781 316 OFFCURVE",
"781 320 CURVE SMOOTH",
"781 324 OFFCURVE",
"781 327 OFFCURVE",
"781 329 CURVE",
"780 332 OFFCURVE",
"780 334 OFFCURVE",
"780 337 CURVE SMOOTH",
"780 356 OFFCURVE",
"775 364 OFFCURVE",
"758 367 CURVE SMOOTH",
"750 369 OFFCURVE",
"737 369 OFFCURVE",
"722 369 CURVE SMOOTH",
"707 368 OFFCURVE",
"686 368 OFFCURVE",
"661 368 CURVE SMOOTH",
"555 368 LINE SMOOTH",
"547 368 OFFCURVE",
"541 368 OFFCURVE",
"537 369 CURVE",
"528 369 OFFCURVE",
"524 365 OFFCURVE",
"524 353 CURVE",
"524 347 OFFCURVE",
"524 338 OFFCURVE",
"524 326 CURVE SMOOTH",
"524 303 OFFCURVE",
"524 281 OFFCURVE",
"525 258 CURVE SMOOTH",
"526 235 OFFCURVE",
"527 212 OFFCURVE",
"527 188 CURVE",
"506 179 OFFCURVE",
"485 174 OFFCURVE",
"467 174 CURVE SMOOTH",
"442 174 OFFCURVE",
"421 184 OFFCURVE",
"406 208 CURVE SMOOTH",
"390 231 OFFCURVE",
"381 269 OFFCURVE",
"381 327 CURVE SMOOTH",
"381 394 OFFCURVE",
"396 435 OFFCURVE",
"420 459 CURVE SMOOTH",
"444 484 OFFCURVE",
"478 492 OFFCURVE",
"516 492 CURVE SMOOTH",
"528 492 OFFCURVE",
"542 491 OFFCURVE",
"555 489 CURVE SMOOTH",
"582 485 OFFCURVE",
"609 478 OFFCURVE",
"636 471 CURVE SMOOTH",
"649 467 OFFCURVE",
"662 463 OFFCURVE",
"674 460 CURVE",
"712 630 LINE",
"623 673 OFFCURVE",
"533 695 OFFCURVE",
"449 695 CURVE SMOOTH",
"334 695 OFFCURVE",
"232 663 OFFCURVE",
"159 601 CURVE SMOOTH",
"86 540 OFFCURVE",
"42 449 OFFCURVE",
"42 333 CURVE SMOOTH",
"42 246 OFFCURVE",
"62 177 OFFCURVE",
"92 125 CURVE SMOOTH",
"122 72 OFFCURVE",
"163 35 OFFCURVE",
"208 12 CURVE SMOOTH",
"253 -12 OFFCURVE",
"302 -23 OFFCURVE",
"347 -23 CURVE SMOOTH"
);
}
);
width = 827;
}
);
leftKerningGroup = O;
rightKerningGroup = G;
unicode = 0047;
},
{
glyphname = H;
lastChange = "2016-07-08 07:51:01 +0000";
layers = (
{
anchors = (
{
name = bottom;
position = "{465, 0}";
},
{
name = center;
position = "{465, 338}";
},
{
name = top;
position = "{465, 676}";
},
{
name = topleft;
position = "{20, 676}";
}
);
background = {
paths = (
{
closed = 1;
nodes = (
"518 466 LINE",
"518 504 LINE",
"519 534 LINE",
"520 547 LINE",
"520 573 LINE",
"521 594 LINE",
"521 608 LINE",
"521 609 LINE",
"521 627 LINE",
"522 649 LINE",
"530 661 LINE",
"549 665 LINE",
"568 665 LINE",
"574 665 LINE",
"615 666 LINE",
"669 667 LINE",
"731 668 LINE",
"786 669 LINE",
"826 670 LINE",
"832 670 LINE",
"843 670 LINE",
"860 668 LINE",
"871 660 LINE",
"875 645 LINE",
"875 631 LINE",
"875 601 LINE",
"874 550 LINE",
"871 502 LINE",
"869 452 LINE",
"869 422 LINE",
"869 417 LINE",
"872 407 LINE",
"872 402 LINE",
"848 23 LINE",
"848 20 LINE",
"844 12 LINE",
"837 5 LINE",
"829 0 LINE",
"825 0 LINE",
"550 0 LINE",
"546 0 LINE",
"541 9 LINE",
"537 24 LINE",
"535 43 LINE",
"534 53 LINE",
"523 237 LINE",
"508 237 LINE",
"485 238 LINE",
"458 240 LINE",
"435 241 LINE",
"417 241 LINE",
"411 241 LINE",
"409 229 LINE",
"409 224 LINE",
"409 168 LINE",
"409 91 LINE",
"407 41 LINE",
"402 14 LINE",
"394 1 LINE",
"382 -1 LINE",
"373 -1 LINE",
"317 -5 LINE",
"264 -6 LINE",
"242 -6 LINE",
"193 -6 LINE",
"147 -3 LINE",
"104 2 LINE",
"86 7 LINE",
"84 7 LINE",
"80 15 LINE",
"77 24 LINE",
"75 33 LINE",
"75 34 LINE",
"56 398 LINE",
"56 407 LINE",
"56 417 LINE",
"56 425 LINE",
"57 465 LINE",
"59 516 LINE",
"60 571 LINE",
"62 616 LINE",
"63 646 LINE",
"64 647 LINE",
"66 649 LINE",
"75 657 LINE",
"87 665 LINE",
"102 670 LINE",
"110 670 LINE",
"167 670 LINE",
"168 670 LINE",
"199 669 LINE",
"242 669 LINE",
"292 668 LINE",
"336 667 LINE",
"365 667 LINE",
"366 667 LINE",
"378 667 LINE",
"396 664 LINE",
"407 655 LINE",
"413 639 LINE",
"413 625 LINE",
"413 622 LINE",
"411 607 LINE",
"410 590 LINE",
"408 575 LINE",
"408 571 LINE",
"408 567 LINE",
"411 557 LINE",
"411 552 LINE",
"411 532 LINE",
"409 495 LINE",
"409 473 LINE",
"420 473 LINE",
"448 471 LINE",
"477 468 LINE",
"505 466 LINE"
);
}
);
};
layerId = UUID0;
paths = (
{
closed = 1;
nodes = (
"299 -5 OFFCURVE",
"335 -3 OFFCURVE",
"373 -1 CURVE",
"379 -1 OFFCURVE",
"384 0 OFFCURVE",
"388 0 CURVE SMOOTH",
"396 2 OFFCURVE",
"402 9 OFFCURVE",
"405 27 CURVE SMOOTH",
"406 37 OFFCURVE",
"407 49 OFFCURVE",
"408 66 CURVE SMOOTH",
"409 100 OFFCURVE",
"409 149 OFFCURVE",
"409 224 CURVE SMOOTH",
"409 230 OFFCURVE",
"409 241 OFFCURVE",
"417 241 CURVE SMOOTH",
"417 241 OFFCURVE",
"420 241 OFFCURVE",
"426 241 CURVE",
"438 241 OFFCURVE",
"454 240 OFFCURVE",
"472 239 CURVE SMOOTH",
"489 238 OFFCURVE",
"505 237 OFFCURVE",
"516 237 CURVE",
"521 237 OFFCURVE",
"523 237 OFFCURVE",
"523 237 CURVE",
"534 53 LINE SMOOTH",
"535 40 OFFCURVE",
"537 26 OFFCURVE",
"539 17 CURVE SMOOTH",
"542 6 OFFCURVE",
"545 0 OFFCURVE",
"550 0 CURVE SMOOTH",
"825 0 LINE SMOOTH",
"831 0 OFFCURVE",
"836 4 OFFCURVE",
"841 9 CURVE",
"845 14 OFFCURVE",
"848 19 OFFCURVE",
"848 23 CURVE",
"872 402 LINE",
"872 405 OFFCURVE",
"871 408 OFFCURVE",
"871 412 CURVE",
"870 415 OFFCURVE",
"869 418 OFFCURVE",
"869 422 CURVE SMOOTH",
"869 461 OFFCURVE",
"871 494 OFFCURVE",
"873 526 CURVE SMOOTH",
"874 559 OFFCURVE",
"875 591 OFFCURVE",
"875 631 CURVE SMOOTH",
"875 649 OFFCURVE",
"873 658 OFFCURVE",
"865 664 CURVE",
"858 669 OFFCURVE",
"847 670 OFFCURVE",
"832 670 CURVE SMOOTH",
"828 670 OFFCURVE",
"819 670 OFFCURVE",
"806 670 CURVE",
"792 669 OFFCURVE",
"776 669 OFFCURVE",
"758 669 CURVE SMOOTH",
"740 668 OFFCURVE",
"721 668 OFFCURVE",
"700 667 CURVE SMOOTH",
"680 667 OFFCURVE",
"660 667 OFFCURVE",
"642 667 CURVE SMOOTH",
"624 666 OFFCURVE",
"608 666 OFFCURVE",
"595 666 CURVE",
"581 665 OFFCURVE",
"572 665 OFFCURVE",
"568 665 CURVE SMOOTH",
"556 665 OFFCURVE",
"546 665 OFFCURVE",
"540 663 CURVE SMOOTH",
"534 662 OFFCURVE",
"529 659 OFFCURVE",
"526 655 CURVE",
"521 647 OFFCURVE",
"521 633 OFFCURVE",
"521 609 CURVE SMOOTH",
"521 608 OFFCURVE",
"521 605 OFFCURVE",
"521 601 CURVE",
"521 591 OFFCURVE",
"520 577 OFFCURVE",
"520 560 CURVE",
"520 552 OFFCURVE",
"520 543 OFFCURVE",
"519 534 CURVE SMOOTH",
"519 514 OFFCURVE",
"518 491 OFFCURVE",
"518 466 CURVE",
"509 466 OFFCURVE",
"500 466 OFFCURVE",
"491 467 CURVE",
"482 468 OFFCURVE",
"472 469 OFFCURVE",
"463 470 CURVE",
"453 470 OFFCURVE",
"444 471 OFFCURVE",
"435 472 CURVE",
"425 473 OFFCURVE",
"417 473 OFFCURVE",
"409 473 CURVE",
"409 488 OFFCURVE",
"410 501 OFFCURVE",
"410 514 CURVE SMOOTH",
"411 526 OFFCURVE",
"411 539 OFFCURVE",
"411 552 CURVE SMOOTH",
"411 555 OFFCURVE",
"411 559 OFFCURVE",
"410 562 CURVE SMOOTH",
"409 565 OFFCURVE",
"408 568 OFFCURVE",
"408 571 CURVE SMOOTH",
"408 573 OFFCURVE",
"409 577 OFFCURVE",
"409 583 CURVE SMOOTH",
"410 588 OFFCURVE",
"410 593 OFFCURVE",
"411 599 CURVE SMOOTH",
"411 604 OFFCURVE",
"412 610 OFFCURVE",
"412 615 CURVE SMOOTH",
"413 620 OFFCURVE",
"413 623 OFFCURVE",
"413 625 CURVE SMOOTH",
"413 643 OFFCURVE",
"409 654 OFFCURVE",
"401 660 CURVE SMOOTH",
"394 666 OFFCURVE",
"382 667 OFFCURVE",
"366 667 CURVE SMOOTH",
"366 667 OFFCURVE",
"360 667 OFFCURVE",
"351 667 CURVE",
"341 667 OFFCURVE",
"329 667 OFFCURVE",
"314 668 CURVE SMOOTH",
"300 668 OFFCURVE",
"284 668 OFFCURVE",
"268 668 CURVE SMOOTH",
"250 669 OFFCURVE",
"235 669 OFFCURVE",
"221 669 CURVE SMOOTH",
"206 669 OFFCURVE",
"194 669 OFFCURVE",
"184 670 CURVE",
"173 670 OFFCURVE",
"168 670 OFFCURVE",
"167 670 CURVE SMOOTH",
"110 670 LINE",
"99 670 OFFCURVE",
"89 667 OFFCURVE",
"81 661 CURVE SMOOTH",
"73 655 OFFCURVE",
"67 649 OFFCURVE",
"64 647 CURVE SMOOTH",
"64 646 OFFCURVE",
"63 641 OFFCURVE",
"63 631 CURVE SMOOTH",
"61 611 OFFCURVE",
"61 580 OFFCURVE",
"60 543 CURVE SMOOTH",
"59 525 OFFCURVE",
"59 508 OFFCURVE",
"58 491 CURVE SMOOTH",
"57 457 OFFCURVE",
"56 428 OFFCURVE",
"56 417 CURVE SMOOTH",
"56 407 LINE",
"56 398 LINE",
"75 34 LINE",
"75 32 OFFCURVE",
"76 26 OFFCURVE",
"78 20 CURVE SMOOTH",
"80 14 OFFCURVE",
"83 7 OFFCURVE",
"86 7 CURVE",
"110 1 OFFCURVE",
"139 -2 OFFCURVE",
"170 -4 CURVE SMOOTH",
"201 -6 OFFCURVE",
"234 -6 OFFCURVE",
"264 -6 CURVE SMOOTH"
);
}
);
width = 930;
}
);
leftKerningGroup = H;
rightKerningGroup = H;
unicode = 0048;
},
{
glyphname = Hbar;
lastChange = "2016-07-08 07:51:01 +0000";
layers = (
{
background = {
paths = (
{
closed = 1;
nodes = (
"17 519 LINE",
"2 522 LINE",
"2 528 LINE",
"2 538 LINE",
"1 554 LINE",
"1 569 LINE",
"0 584 LINE",
"0 595 LINE",
"0 597 LINE",
"10 601 LINE",
"26 604 LINE",
"43 607 LINE",
"52 607 LINE",
"61 607 LINE",
"62 621 LINE",
"63 631 LINE",
"63 646 LINE",
"64 647 LINE",
"66 649 LINE",
"75 657 LINE",
"87 665 LINE",
"102 670 LINE",
"110 670 LINE",
"167 670 LINE",
"168 670 LINE",
"199 669 LINE",
"242 669 LINE",
"292 668 LINE",
"336 667 LINE",
"365 667 LINE",
"366 667 LINE",
"378 667 LINE",
"396 664 LINE",
"407 655 LINE",
"413 639 LINE",
"413 625 LINE",
"413 622 LINE",
"412 615 LINE",
"411 611 LINE",
"411 606 LINE",
"442 606 LINE",
"480 606 LINE",
"521 606 LINE",
"521 608 LINE",
"521 609 LINE",
"521 627 LINE",
"522 649 LINE",
"530 661 LINE",
"549 665 LINE",
"568 665 LINE",
"574 665 LINE",
"615 666 LINE",
"669 667 LINE",
"731 668 LINE",
"786 669 LINE",
"826 670 LINE",
"832 670 LINE",
"843 670 LINE",
"860 668 LINE",
"871 660 LINE",
"875 645 LINE",
"875 631 LINE",
"875 617 LINE",
"875 604 LINE",
"883 603 LINE",
"890 603 LINE",
"908 601 LINE",
"932 596 LINE",
"932 592 LINE",
"932 584 LINE",
"934 575 LINE",
"934 569 LINE",
"936 564 LINE",
"936 557 LINE",
"938 548 LINE",
"938 541 LINE",
"938 536 LINE",
"936 526 LINE",
"925 518 LINE",
"903 513 LINE",
"884 513 LINE",
"871 513 LINE",
"871 495 LINE",
"870 477 LINE",
"869 452 LINE",
"869 422 LINE",
"869 417 LINE",
"872 407 LINE",
"872 402 LINE",
"848 23 LINE",
"848 20 LINE",
"844 12 LINE",
"837 5 LINE",
"829 0 LINE",
"825 0 LINE",
"550 0 LINE",
"546 0 LINE",
"541 9 LINE",
"537 24 LINE",
"535 43 LINE",
"534 53 LINE",
"523 237 LINE",
"523 237 LINE",
"508 237 LINE",
"485 238 LINE",
"458 240 LINE",
"435 241 LINE",
"417 241 LINE",
"417 241 LINE",
"411 241 LINE",
"409 229 LINE",
"409 224 LINE",
"409 168 LINE",
"409 91 LINE",
"407 41 LINE",
"402 14 LINE",
"394 1 LINE",
"382 -1 LINE",
"373 -1 LINE",
"317 -5 LINE",
"264 -6 LINE",
"242 -6 LINE",
"193 -6 LINE",
"147 -3 LINE",
"104 2 LINE",
"86 7 LINE",
"84 7 LINE",
"80 15 LINE",
"77 24 LINE",
"75 33 LINE",
"75 34 LINE",
"56 398 LINE",
"56 417 LINE",
"56 425 LINE",
"57 465 LINE",
"58 491 LINE",
"58 503 LINE",
"59 515 LINE",
"57 515 LINE",
"33 516 LINE"
);
},
{
closed = 1;
nodes = (
"518 466 LINE",
"518 492 LINE",
"518 514 LINE",
"489 515 LINE",
"464 515 LINE",
"438 515 LINE",
"419 515 LINE",
"410 515 LINE",
"410 514 LINE",
"409 495 LINE",
"409 473 LINE",
"420 473 LINE",
"448 471 LINE",
"477 468 LINE",
"505 466 LINE"
);
}
);
};
layerId = UUID0;
paths = (
{
closed = 1;
nodes = (
"299 -5 OFFCURVE",
"335 -3 OFFCURVE",
"373 -1 CURVE",
"379 -1 OFFCURVE",
"384 0 OFFCURVE",
"388 0 CURVE SMOOTH",
"396 2 OFFCURVE",
"402 9 OFFCURVE",
"405 27 CURVE SMOOTH",
"406 37 OFFCURVE",
"407 49 OFFCURVE",
"408 66 CURVE SMOOTH",
"409 100 OFFCURVE",
"409 149 OFFCURVE",
"409 224 CURVE SMOOTH",
"409 230 OFFCURVE",
"409 241 OFFCURVE",
"417 241 CURVE SMOOTH",
"417 241 OFFCURVE",
"420 241 OFFCURVE",
"426 241 CURVE",
"438 241 OFFCURVE",
"454 240 OFFCURVE",
"472 239 CURVE SMOOTH",
"489 238 OFFCURVE",
"505 237 OFFCURVE",
"516 237 CURVE",
"521 237 OFFCURVE",
"523 237 OFFCURVE",
"523 237 CURVE",
"534 53 LINE SMOOTH",
"535 40 OFFCURVE",
"537 26 OFFCURVE",
"539 17 CURVE SMOOTH",
"542 6 OFFCURVE",
"545 0 OFFCURVE",
"550 0 CURVE SMOOTH",
"825 0 LINE SMOOTH",
"831 0 OFFCURVE",
"836 4 OFFCURVE",
"841 9 CURVE",
"845 14 OFFCURVE",
"848 19 OFFCURVE",
"848 23 CURVE",
"872 402 LINE",
"872 405 OFFCURVE",
"871 408 OFFCURVE",
"871 412 CURVE",
"870 415 OFFCURVE",
"869 418 OFFCURVE",
"869 422 CURVE SMOOTH",
"869 442 OFFCURVE",
"870 460 OFFCURVE",
"870 477 CURVE SMOOTH",
"871 489 OFFCURVE",
"871 501 OFFCURVE",
"871 513 CURVE",
"884 513 LINE SMOOTH",
"909 513 OFFCURVE",
"923 517 OFFCURVE",
"930 522 CURVE",
"938 528 OFFCURVE",
"938 535 OFFCURVE",
"938 541 CURVE SMOOTH",
"938 546 OFFCURVE",
"938 550 OFFCURVE",
"937 553 CURVE SMOOTH",
"937 556 OFFCURVE",
"936 558 OFFCURVE",
"936 561 CURVE",
"936 563 OFFCURVE",
"936 565 OFFCURVE",
"935 566 CURVE SMOOTH",
"935 568 OFFCURVE",
"934 570 OFFCURVE",
"934 572 CURVE",
"934 574 OFFCURVE",
"934 577 OFFCURVE",
"933 580 CURVE SMOOTH",
"933 583 OFFCURVE",
"932 587 OFFCURVE",
"932 592 CURVE SMOOTH",
"932 595 OFFCURVE",
"928 597 OFFCURVE",
"920 599 CURVE SMOOTH",
"912 600 OFFCURVE",
"902 602 OFFCURVE",
"890 603 CURVE SMOOTH",
"885 603 OFFCURVE",
"880 603 OFFCURVE",
"875 604 CURVE",
"875 612 OFFCURVE",
"875 622 OFFCURVE",
"875 631 CURVE SMOOTH",
"875 649 OFFCURVE",
"873 658 OFFCURVE",
"865 664 CURVE",
"858 669 OFFCURVE",
"847 670 OFFCURVE",
"832 670 CURVE SMOOTH",
"828 670 OFFCURVE",
"819 670 OFFCURVE",
"806 670 CURVE",
"792 669 OFFCURVE",
"776 669 OFFCURVE",
"758 669 CURVE SMOOTH",
"740 668 OFFCURVE",
"721 668 OFFCURVE",
"700 667 CURVE SMOOTH",
"680 667 OFFCURVE",
"660 667 OFFCURVE",
"642 667 CURVE SMOOTH",
"624 666 OFFCURVE",
"608 666 OFFCURVE",
"595 666 CURVE",
"581 665 OFFCURVE",
"572 665 OFFCURVE",
"568 665 CURVE SMOOTH",
"556 665 OFFCURVE",
"546 665 OFFCURVE",
"540 663 CURVE SMOOTH",
"534 662 OFFCURVE",
"529 659 OFFCURVE",
"526 655 CURVE",
"521 647 OFFCURVE",
"521 633 OFFCURVE",
"521 609 CURVE SMOOTH",
"521 609 OFFCURVE",
"521 607 OFFCURVE",
"521 606 CURVE",
"494 606 OFFCURVE",
"467 606 OFFCURVE",
"442 606 CURVE SMOOTH",
"411 606 LINE",
"411 609 OFFCURVE",
"411 612 OFFCURVE",
"412 615 CURVE",
"412 620 OFFCURVE",
"413 623 OFFCURVE",
"413 625 CURVE SMOOTH",
"413 643 OFFCURVE",
"409 654 OFFCURVE",
"401 660 CURVE SMOOTH",
"394 666 OFFCURVE",
"382 667 OFFCURVE",
"366 667 CURVE SMOOTH",
"366 667 OFFCURVE",
"360 667 OFFCURVE",
"351 667 CURVE",
"341 667 OFFCURVE",
"329 667 OFFCURVE",
"314 668 CURVE SMOOTH",
"300 668 OFFCURVE",
"284 668 OFFCURVE",
"268 668 CURVE SMOOTH",
"250 669 OFFCURVE",
"235 669 OFFCURVE",
"221 669 CURVE SMOOTH",
"206 669 OFFCURVE",
"194 669 OFFCURVE",
"184 670 CURVE",
"173 670 OFFCURVE",
"168 670 OFFCURVE",
"167 670 CURVE SMOOTH",
"110 670 LINE",
"99 670 OFFCURVE",
"89 667 OFFCURVE",
"81 661 CURVE SMOOTH",
"73 655 OFFCURVE",
"67 649 OFFCURVE",
"64 647 CURVE SMOOTH",
"63 646 OFFCURVE",
"62 625 OFFCURVE",
"61 607 CURVE",
"52 607 LINE SMOOTH",
"46 607 OFFCURVE",
"41 606 OFFCURVE",
"35 606 CURVE",
"23 604 OFFCURVE",
"12 602 OFFCURVE",
"5 599 CURVE",
"2 598 OFFCURVE",
"0 597 OFFCURVE",
"0 595 CURVE SMOOTH",
"0 588 OFFCURVE",
"0 582 OFFCURVE",
"1 577 CURVE SMOOTH",
"1 571 OFFCURVE",
"1 566 OFFCURVE",
"1 562 CURVE SMOOTH",
"1 557 OFFCURVE",
"1 552 OFFCURVE",
"2 546 CURVE",
"2 541 OFFCURVE",
"2 535 OFFCURVE",
"2 528 CURVE SMOOTH",
"2 524 OFFCURVE",
"7 521 OFFCURVE",
"17 519 CURVE",
"27 517 OFFCURVE",
"41 516 OFFCURVE",
"57 515 CURVE SMOOTH",
"59 515 LINE",
"58 507 OFFCURVE",
"58 499 OFFCURVE",
"58 491 CURVE SMOOTH",
"57 474 OFFCURVE",
"57 458 OFFCURVE",
"57 445 CURVE SMOOTH",
"56 432 OFFCURVE",
"56 422 OFFCURVE",
"56 417 CURVE SMOOTH",
"56 398 LINE",
"75 34 LINE",
"75 32 OFFCURVE",
"76 26 OFFCURVE",
"78 20 CURVE SMOOTH",
"80 14 OFFCURVE",
"83 7 OFFCURVE",
"86 7 CURVE",
"110 1 OFFCURVE",
"139 -2 OFFCURVE",
"170 -4 CURVE SMOOTH",
"201 -6 OFFCURVE",
"234 -6 OFFCURVE",
"264 -6 CURVE SMOOTH"
);
},
{
closed = 1;
nodes = (
"509 466 OFFCURVE",
"500 466 OFFCURVE",
"491 467 CURVE",
"482 468 OFFCURVE",
"472 469 OFFCURVE",
"463 470 CURVE",
"453 470 OFFCURVE",
"444 471 OFFCURVE",
"435 472 CURVE",
"425 473 OFFCURVE",
"417 473 OFFCURVE",
"409 473 CURVE",
"409 488 OFFCURVE",
"410 501 OFFCURVE",
"410 514 CURVE",
"410 515 LINE",
"419 515 LINE SMOOTH",
"432 515 OFFCURVE",
"447 515 OFFCURVE",
"464 515 CURVE SMOOTH",
"481 515 OFFCURVE",
"499 515 OFFCURVE",
"518 514 CURVE",
"518 499 OFFCURVE",
"518 483 OFFCURVE",
"518 466 CURVE"
);
}
);
width = 930;
}
);
leftKerningGroup = H;
rightKerningGroup = H;
unicode = 0126;
},
{
glyphname = I;
lastChange = "2016-07-08 07:51:01 +0000";
layers = (
{
anchors = (
{
name = bottom;
position = "{240, 0}";
},
{
name = ogonek;
position = "{352, 10}";
},
{
name = top;
position = "{240, 676}";
},
{
name = topleft;
position = "{20, 676}";
}
);
background = {
paths = (
{
closed = 1;
nodes = (
"418 199 LINE",
"417 166 LINE",
"417 104 LINE",
"415 52 LINE",
"411 14 LINE",
"406 5 LINE",
"395 5 LINE",
"367 3 LINE",
"341 2 LINE",
"324 1 LINE",
"323 1 LINE",
"320 1 LINE",
"314 1 LINE",
"308 5 LINE",
"304 5 LINE",
"302 4 LINE",
"300 3 LINE",
"296 1 LINE",
"204 1 LINE",
"202 0 LINE",
"170 0 LINE",
"130 0 LINE",
"94 -1 LINE",
"88 -1 LINE",
"80 -1 LINE",
"69 10 LINE",
"63 28 LINE",
"60 49 LINE",
"59 69 LINE",
"59 86 LINE",
"59 91 LINE",
"60 151 LINE",
"60 278 LINE",
"63 339 LINE",
"63 655 LINE",
"63 663 LINE",
"73 665 LINE",
"80 665 LINE",
"130 665 LINE",
"229 666 LINE",
"279 666 LINE",
"284 666 LINE",
"293 668 LINE",
"311 670 LINE",
"339 669 LINE",
"361 666 LINE",
"366 662 LINE",
"373 665 LINE",
"377 666 LINE",
"391 666 LINE",
"409 663 LINE",
"420 647 LINE",
"424 618 LINE",
"424 591 LINE",
"424 396 LINE",
"423 367 LINE",
"422 323 LINE",
"420 273 LINE",
"419 230 LINE",
"418 200 LINE"
);
}
);
};
layerId = UUID0;
paths = (
{
closed = 1;
nodes = (
"92 -1 OFFCURVE",
"100 -1 OFFCURVE",
"112 0 CURVE",
"125 0 OFFCURVE",
"137 0 OFFCURVE",
"150 0 CURVE",
"164 0 OFFCURVE",
"176 0 OFFCURVE",
"187 0 CURVE",
"197 0 OFFCURVE",
"203 0 OFFCURVE",
"204 1 CURVE",
"296 1 LINE",
"296 1 OFFCURVE",
"302 4 OFFCURVE",
"304 5 CURVE",
"307 5 OFFCURVE",
"309 4 OFFCURVE",
"312 3 CURVE",
"313 1 OFFCURVE",
"316 1 OFFCURVE",
"320 1 CURVE SMOOTH",
"323 1 LINE SMOOTH",
"324 1 OFFCURVE",
"327 1 OFFCURVE",
"333 1 CURVE SMOOTH",
"338 2 OFFCURVE",
"346 2 OFFCURVE",
"354 3 CURVE SMOOTH",
"371 4 OFFCURVE",
"391 5 OFFCURVE",
"406 5 CURVE",
"409 11 OFFCURVE",
"412 20 OFFCURVE",
"413 33 CURVE SMOOTH",
"416 58 OFFCURVE",
"417 94 OFFCURVE",
"417 135 CURVE SMOOTH",
"417 156 OFFCURVE",
"418 177 OFFCURVE",
"418 199 CURVE SMOOTH",
"418 200 OFFCURVE",
"418 205 OFFCURVE",
"419 215 CURVE SMOOTH",
"419 225 OFFCURVE",
"419 237 OFFCURVE",
"420 252 CURVE SMOOTH",
"420 266 OFFCURVE",
"421 282 OFFCURVE",
"421 298 CURVE SMOOTH",
"422 315 OFFCURVE",
"422 331 OFFCURVE",
"423 345 CURVE SMOOTH",
"423 359 OFFCURVE",
"423 372 OFFCURVE",
"424 381 CURVE SMOOTH",
"424 391 OFFCURVE",
"424 396 OFFCURVE",
"424 396 CURVE SMOOTH",
"424 591 LINE SMOOTH",
"424 609 OFFCURVE",
"424 623 OFFCURVE",
"422 633 CURVE SMOOTH",
"421 643 OFFCURVE",
"418 650 OFFCURVE",
"415 655 CURVE",
"407 665 OFFCURVE",
"396 666 OFFCURVE",
"377 666 CURVE",
"375 665 OFFCURVE",
"372 664 OFFCURVE",
"370 664 CURVE",
"367 663 OFFCURVE",
"364 664 OFFCURVE",
"361 666 CURVE",
"347 668 OFFCURVE",
"334 669 OFFCURVE",
"325 669 CURVE SMOOTH",
"306 670 OFFCURVE",
"295 669 OFFCURVE",
"289 667 CURVE",
"285 667 OFFCURVE",
"282 666 OFFCURVE",
"279 666 CURVE SMOOTH",
"246 666 OFFCURVE",
"212 666 OFFCURVE",
"179 666 CURVE SMOOTH",
"146 665 OFFCURVE",
"113 665 OFFCURVE",
"80 665 CURVE SMOOTH",
"71 665 OFFCURVE",
"63 666 OFFCURVE",
"63 655 CURVE SMOOTH",
"63 339 LINE",
"61 298 OFFCURVE",
"60 257 OFFCURVE",
"60 215 CURVE SMOOTH",
"60 172 OFFCURVE",
"59 131 OFFCURVE",
"59 91 CURVE SMOOTH",
"59 88 OFFCURVE",
"59 83 OFFCURVE",
"59 78 CURVE SMOOTH",
"59 72 OFFCURVE",
"59 66 OFFCURVE",
"60 59 CURVE SMOOTH",
"61 45 OFFCURVE",
"62 31 OFFCURVE",
"66 19 CURVE",
"70 7 OFFCURVE",
"77 -1 OFFCURVE",
"88 -1 CURVE SMOOTH"
);
}
);
width = 480;
}
);
leftKerningGroup = H;
rightKerningGroup = H;
unicode = 0049;
},
{
glyphname = IJ;
lastChange = "2016-07-08 07:51:01 +0000";
layers = (
{
anchors = (
{
name = bottom;
position = "{624, 0}";
},
{
name = ogonek;
position = "{352, 217.028}";
},
{
name = top;
position = "{616, 676}";
},
{
name = topleft;
position = "{20, 685.1}";
}
);
layerId = UUID0;
paths = (
{
closed = 1;
nodes = (
"572 -30 OFFCURVE",
"603 -28 OFFCURVE",
"634 -24 CURVE SMOOTH",
"657 -21 OFFCURVE",
"680 -15 OFFCURVE",
"704 -7 CURVE SMOOTH",
"744 6 OFFCURVE",
"793 27 OFFCURVE",
"834 65 CURVE SMOOTH",
"865 94 OFFCURVE",
"881 131 OFFCURVE",
"890 172 CURVE SMOOTH",
"899 212 OFFCURVE",
"899 255 OFFCURVE",
"899 294 CURVE SMOOTH",
"899 294 OFFCURVE",
"899 297 OFFCURVE",
"900 303 CURVE",
"900 308 OFFCURVE",
"900 314 OFFCURVE",
"900 322 CURVE SMOOTH",
"900 329 OFFCURVE",
"900 337 OFFCURVE",
"901 346 CURVE SMOOTH",
"902 354 OFFCURVE",
"901 362 OFFCURVE",
"902 370 CURVE SMOOTH",
"903 377 OFFCURVE",
"902 383 OFFCURVE",
"903 388 CURVE",
"903 393 OFFCURVE",
"903 396 OFFCURVE",
"903 396 CURVE SMOOTH",
"903 591 LINE SMOOTH",
"903 609 OFFCURVE",
"902 623 OFFCURVE",
"901 633 CURVE SMOOTH",
"900 643 OFFCURVE",
"897 650 OFFCURVE",
"893 655 CURVE",
"886 665 OFFCURVE",
"874 666 OFFCURVE",
"856 666 CURVE SMOOTH",
"758 666 LINE SMOOTH",
"724 666 OFFCURVE",
"691 666 OFFCURVE",
"658 666 CURVE SMOOTH",
"625 666 OFFCURVE",
"591 665 OFFCURVE",
"558 665 CURVE SMOOTH",
"550 665 OFFCURVE",
"541 666 OFFCURVE",
"541 655 CURVE SMOOTH",
"542 449 LINE SMOOTH",
"542 436 OFFCURVE",
"542 422 OFFCURVE",
"542 406 CURVE SMOOTH",
"542 393 OFFCURVE",
"541 377 OFFCURVE",
"541 360 CURVE SMOOTH",
"541 342 OFFCURVE",
"541 323 OFFCURVE",
"540 303 CURVE SMOOTH",
"536 249 OFFCURVE",
"537 215 OFFCURVE",
"536 192 CURVE",
"534 188 OFFCURVE",
"532 181 OFFCURVE",
"530 173 CURVE",
"527 165 OFFCURVE",
"525 157 OFFCURVE",
"521 150 CURVE",
"513 134 OFFCURVE",
"500 121 OFFCURVE",
"462 121 CURVE SMOOTH",
"444 121 OFFCURVE",
"414 123 OFFCURVE",
"384 127 CURVE SMOOTH",
"355 131 OFFCURVE",
"324 139 OFFCURVE",
"283 151 CURVE",
"283 152 OFFCURVE",
"282 151 OFFCURVE",
"281 146 CURVE",
"280 142 OFFCURVE",
"278 137 OFFCURVE",
"278 131 CURVE",
"276 119 OFFCURVE",
"275 104 OFFCURVE",
"275 96 CURVE",
"274 89 OFFCURVE",
"272 82 OFFCURVE",
"272 75 CURVE",
"271 67 OFFCURVE",
"270 61 OFFCURVE",
"269 55 CURVE",
"267 42 OFFCURVE",
"265 31 OFFCURVE",
"267 27 CURVE",
"322 7 LINE",
"391 -16 OFFCURVE",
"466 -28 OFFCURVE",
"541 -29 CURVE SMOOTH"
);
},
{
closed = 1;
nodes = (
"92 209.297 OFFCURVE",
"100 209.297 OFFCURVE",
"112 210 CURVE",
"125 210 OFFCURVE",
"137 210 OFFCURVE",
"150 210 CURVE",
"164 210 OFFCURVE",
"176 210 OFFCURVE",
"187 210 CURVE",
"197 210 OFFCURVE",
"203 210 OFFCURVE",
"204 210.703 CURVE",
"296 210.703 LINE",
"296 210.703 OFFCURVE",
"302 212.811 OFFCURVE",
"304 213.514 CURVE",
"307 213.514 OFFCURVE",
"309 212.811 OFFCURVE",
"312 212.108 CURVE",
"313 210.703 OFFCURVE",
"316 210.703 OFFCURVE",
"320 210.703 CURVE SMOOTH",
"323 210.703 LINE SMOOTH",
"324 210.703 OFFCURVE",
"327 210.703 OFFCURVE",
"333 210.703 CURVE SMOOTH",
"338 211.406 OFFCURVE",
"346 211.406 OFFCURVE",
"354 212.108 CURVE SMOOTH",
"371 212.811 OFFCURVE",
"391 213.514 OFFCURVE",
"406 213.514 CURVE",
"409 217.731 OFFCURVE",
"412 224.056 OFFCURVE",
"413 233.193 CURVE SMOOTH",
"416 250.763 OFFCURVE",
"417 276.064 OFFCURVE",
"417 304.879 CURVE SMOOTH",
"417 319.638 OFFCURVE",
"418 334.397 OFFCURVE",
"418 349.859 CURVE SMOOTH",
"418 350.562 OFFCURVE",
"418 354.076 OFFCURVE",
"419 361.104 CURVE SMOOTH",
"419 368.132 OFFCURVE",
"419 376.566 OFFCURVE",
"420 387.108 CURVE SMOOTH",
"420 396.948 OFFCURVE",
"421 408.193 OFFCURVE",
"421 419.438 CURVE SMOOTH",
"422 431.385 OFFCURVE",
"422 442.63 OFFCURVE",
"423 452.47 CURVE SMOOTH",
"423 462.309 OFFCURVE",
"423 471.446 OFFCURVE",
"424 477.771 CURVE SMOOTH",
"424 484.799 OFFCURVE",
"424 488.313 OFFCURVE",
"424 488.313 CURVE SMOOTH",
"424 625.361 LINE SMOOTH",
"424 638.012 OFFCURVE",
"424 647.851 OFFCURVE",
"422 654.879 CURVE SMOOTH",
"421 661.907 OFFCURVE",
"418 666.827 OFFCURVE",
"415 670.341 CURVE",
"407 677.369 OFFCURVE",
"396 678.072 OFFCURVE",
"377 678.072 CURVE",
"375 677.369 OFFCURVE",
"372 676.666 OFFCURVE",
"370 676.666 CURVE",
"367 675.963 OFFCURVE",
"364 676.666 OFFCURVE",
"361 678.072 CURVE",
"347 679.478 OFFCURVE",
"334 680.18 OFFCURVE",
"325 680.18 CURVE SMOOTH",
"306 680.883 OFFCURVE",
"295 680.18 OFFCURVE",
"289 678.775 CURVE",
"285 678.775 OFFCURVE",
"282 678.072 OFFCURVE",
"279 678.072 CURVE SMOOTH",
"246 678.072 OFFCURVE",
"212 678.072 OFFCURVE",
"179 678.072 CURVE SMOOTH",
"146 677.369 OFFCURVE",
"113 677.369 OFFCURVE",
"80 677.369 CURVE SMOOTH",
"71 677.369 OFFCURVE",
"63 678.072 OFFCURVE",
"63 670.341 CURVE SMOOTH",
"63 448.253 LINE",
"61 419.438 OFFCURVE",
"60 390.622 OFFCURVE",
"60 361.104 CURVE SMOOTH",
"60 330.883 OFFCURVE",
"59 302.068 OFFCURVE",
"59 273.956 CURVE SMOOTH",
"59 271.847 OFFCURVE",
"59 268.333 OFFCURVE",
"59 264.819 CURVE SMOOTH",
"59 260.602 OFFCURVE",
"59 256.386 OFFCURVE",
"60 251.466 CURVE SMOOTH",
"61 241.626 OFFCURVE",
"62 231.787 OFFCURVE",
"66 223.353 CURVE",
"70 214.92 OFFCURVE",
"77 209.297 OFFCURVE",
"88 209.297 CURVE SMOOTH"
);
}
);
width = 952;
}
);
leftKerningGroup = H;
rightKerningGroup = J;
rightMetricsKey = J;
unicode = 0132;
},
{
glyphname = J;
lastChange = "2016-07-08 07:51:01 +0000";
layers = (
{
anchors = (
{
name = bottom;
position = "{328, 0}";
},
{
name = top;
position = "{320, 676}";
}
);
background = {
paths = (
{
closed = 1;
nodes = (
"538 65 LINE",
"507 37 LINE",
"438 2 LINE",
"408 -7 LINE",
"373 -19 LINE",
"338 -24 LINE",
"270 -33 LINE",
"131 -20 LINE",
"67 7 LINE",
"23 27 LINE",
"22 30 LINE",
"23 45 LINE",
"25 64 LINE",
"28 85 LINE",
"29 96 LINE",
"29 102 LINE",
"31 122 LINE",
"33 140 LINE",
"35 153 LINE",
"36 151 LINE",
"61 142 LINE",
"100 130 LINE",
"136 124 LINE",
"173 121 LINE",
"197 121 LINE",
"208 121 LINE",
"224 138 LINE",
"233 161 LINE",
"239 185 LINE",
"241 192 LINE",
"242 209 LINE",
"244 262 LINE",
"244 303 LINE",
"245 333 LINE",
"245 386 LINE",
"246 406 LINE",
"246 430 LINE",
"246 449 LINE",
"245 655 LINE",
"245 663 LINE",
"256 665 LINE",
"262 665 LINE",
"312 665 LINE",
"411 666 LINE",
"462 666 LINE",
"560 666 LINE",
"574 666 LINE",
"592 663 LINE",
"603 647 LINE",
"607 618 LINE",
"607 591 LINE",
"607 396 LINE",
"606 380 LINE",
"605 358 LINE",
"604 333 LINE",
"604 311 LINE",
"603 295 LINE",
"603 294 LINE",
"603 265 LINE",
"600 202 LINE",
"587 142 LINE",
"562 86 LINE"
);
}
);
};
layerId = UUID0;
paths = (
{
closed = 1;
nodes = (
"361 -21 OFFCURVE",
"384 -15 OFFCURVE",
"408 -7 CURVE SMOOTH",
"448 6 OFFCURVE",
"497 27 OFFCURVE",
"538 65 CURVE SMOOTH",
"569 94 OFFCURVE",
"585 131 OFFCURVE",
"594 172 CURVE SMOOTH",
"603 212 OFFCURVE",
"603 255 OFFCURVE",
"603 294 CURVE SMOOTH",
"603 294 OFFCURVE",
"603 297 OFFCURVE",
"604 303 CURVE",
"604 308 OFFCURVE",
"604 314 OFFCURVE",
"604 322 CURVE SMOOTH",
"604 329 OFFCURVE",
"604 337 OFFCURVE",
"605 346 CURVE SMOOTH",
"606 354 OFFCURVE",
"605 362 OFFCURVE",
"606 370 CURVE SMOOTH",
"607 377 OFFCURVE",
"606 383 OFFCURVE",
"607 388 CURVE",
"607 393 OFFCURVE",
"607 396 OFFCURVE",
"607 396 CURVE SMOOTH",
"607 591 LINE SMOOTH",
"607 609 OFFCURVE",
"606 623 OFFCURVE",
"605 633 CURVE SMOOTH",
"604 643 OFFCURVE",
"601 650 OFFCURVE",
"597 655 CURVE",
"590 665 OFFCURVE",
"578 666 OFFCURVE",
"560 666 CURVE SMOOTH",
"462 666 LINE SMOOTH",
"428 666 OFFCURVE",
"395 666 OFFCURVE",
"362 666 CURVE SMOOTH",
"329 666 OFFCURVE",
"295 665 OFFCURVE",
"262 665 CURVE SMOOTH",
"254 665 OFFCURVE",
"245 666 OFFCURVE",
"245 655 CURVE SMOOTH",
"246 449 LINE SMOOTH",
"246 436 OFFCURVE",
"246 422 OFFCURVE",
"246 406 CURVE SMOOTH",
"246 393 OFFCURVE",
"245 377 OFFCURVE",
"245 360 CURVE SMOOTH",
"245 342 OFFCURVE",
"245 323 OFFCURVE",
"244 303 CURVE SMOOTH",
"241 249 OFFCURVE",
"242 215 OFFCURVE",
"241 192 CURVE",
"239 188 OFFCURVE",
"238 181 OFFCURVE",
"236 173 CURVE",
"234 165 OFFCURVE",
"232 157 OFFCURVE",
"229 150 CURVE",
"222 134 OFFCURVE",
"212 121 OFFCURVE",
"197 121 CURVE SMOOTH",
"166 121 OFFCURVE",
"142 123 OFFCURVE",
"118 127 CURVE SMOOTH",
"94 131 OFFCURVE",
"69 139 OFFCURVE",
"36 151 CURVE",
"36 152 OFFCURVE",
"35 151 OFFCURVE",
"34 146 CURVE",
"33 142 OFFCURVE",
"32 137 OFFCURVE",
"32 131 CURVE",
"30 119 OFFCURVE",
"29 104 OFFCURVE",
"29 96 CURVE",
"28 89 OFFCURVE",
"27 82 OFFCURVE",
"27 75 CURVE",
"26 67 OFFCURVE",
"25 61 OFFCURVE",
"24 55 CURVE",
"23 42 OFFCURVE",
"21 31 OFFCURVE",
"23 27 CURVE",
"67 7 LINE",
"152 -28 OFFCURVE",
"247 -36 OFFCURVE",
"338 -24 CURVE SMOOTH"
);
}
);
width = 656;
}
);
leftKerningGroup = J;
rightKerningGroup = J;
unicode = 004A;
},
{
glyphname = K;
lastChange = "2016-07-08 07:51:01 +0000";
layers = (
{
anchors = (
{
name = bottom;
position = "{427, 0}";
},
{
name = top;
position = "{427, 676}";
}
);
background = {
paths = (
{
closed = 1;
nodes = (
"402 672 LINE",
"411 672 LINE",
"419 663 LINE",
"421 649 LINE",
"421 634 LINE",
"421 627 LINE",
"421 589 LINE",
"416 517 LINE",
"416 490 LINE",
"425 490 LINE",
"434 493 LINE",
"441 498 LINE",
"448 506 LINE",
"454 511 LINE",
"458 513 LINE",
"487 542 LINE",
"530 582 LINE",
"579 628 LINE",
"624 667 LINE",
"658 694 LINE",
"665 695 LINE",
"667 695 LINE",
"675 688 LINE",
"683 678 LINE",
"690 669 LINE",
"692 668 LINE",
"693 666 LINE",
"704 656 LINE",
"717 643 LINE",
"729 632 LINE",
"731 629 LINE",
"737 619 LINE",
"754 597 LINE",
"771 575 LINE",
"787 553 LINE",
"792 541 LINE",
"792 539 LINE",
"792 529 LINE",
"775 506 LINE",
"753 483 LINE",
"731 463 LINE",
"726 456 LINE",
"724 455 LINE",
"709 443 LINE",
"689 426 LINE",
"667 407 LINE",
"647 390 LINE",
"633 378 LINE",
"631 377 LINE",
"626 373 LINE",
"618 370 LINE",
"612 366 LINE",
"609 361 LINE",
"609 355 LINE",
"609 346 LINE",
"618 331 LINE",
"631 318 LINE",
"646 307 LINE",
"652 301 LINE",
"659 293 LINE",
"689 267 LINE",
"727 233 LINE",
"766 197 LINE",
"798 164 LINE",
"819 136 LINE",
"819 128 LINE",
"819 123 LINE",
"817 114 LINE",
"811 109 LINE",
"794 95 LINE",
"754 73 LINE",
"738 59 LINE",
"725 48 LINE",
"695 21 LINE",
"680 13 LINE",
"672 9 LINE",
"663 4 LINE",
"656 0 LINE",
"646 -6 LINE",
"637 -12 LINE",
"621 -21 LINE",
"596 -21 LINE",
"579 -13 LINE",
"568 -1 LINE",
"567 0 LINE",
"462 121 LINE",
"460 125 LINE",
"447 140 LINE",
"432 156 LINE",
"418 168 LINE",
"416 168 LINE",
"412 168 LINE",
"408 163 LINE",
"408 160 LINE",
"408 155 LINE",
"407 136 LINE",
"407 112 LINE",
"406 85 LINE",
"405 61 LINE",
"405 42 LINE",
"405 37 LINE",
"405 29 LINE",
"406 17 LINE",
"402 8 LINE",
"393 5 LINE",
"382 6 LINE",
"330 3 LINE",
"232 5 LINE",
"180 5 LINE",
"173 5 LINE",
"153 5 LINE",
"133 5 LINE",
"118 6 LINE",
"73 10 LINE",
"70 18 LINE",
"69 18 LINE",
"69 40 LINE",
"67 75 LINE",
"66 119 LINE",
"65 164 LINE",
"64 206 LINE",
"64 220 LINE",
"62 257 LINE",
"56 333 LINE",
"56 370 LINE",
"56 372 LINE",
"57 389 LINE",
"58 408 LINE",
"59 424 LINE",
"59 427 LINE",
"59 429 LINE",
"58 440 LINE",
"57 453 LINE",
"56 464 LINE",
"56 466 LINE",
"56 468 LINE",
"57 486 LINE",
"58 507 LINE",
"59 524 LINE",
"59 527 LINE",
"59 532 LINE",
"59 551 LINE",
"58 576 LINE",
"57 602 LINE",
"56 624 LINE",
"56 640 LINE",
"56 642 LINE",
"54 655 LINE",
"68 668 LINE",
"90 673 LINE",
"116 673 LINE",
"125 673 LINE",
"188 673 LINE",
"283 672 LINE",
"350 672 LINE",
"392 672 LINE"
);
}
);
};
layerId = UUID0;
paths = (
{
closed = 1;
nodes = (
"599 -22 OFFCURVE",
"616 -25 OFFCURVE",
"637 -12 CURVE SMOOTH",
"643 -8 OFFCURVE",
"647 -5 OFFCURVE",
"651 -3 CURVE",
"654 -1 OFFCURVE",
"657 1 OFFCURVE",
"660 2 CURVE SMOOTH",
"665 5 OFFCURVE",
"669 8 OFFCURVE",
"680 13 CURVE SMOOTH",
"690 19 OFFCURVE",
"700 26 OFFCURVE",
"710 35 CURVE SMOOTH",
"730 53 OFFCURVE",
"748 70 OFFCURVE",
"774 84 CURVE SMOOTH",
"788 91 OFFCURVE",
"800 100 OFFCURVE",
"811 109 CURVE",
"819 116 OFFCURVE",
"819 121 OFFCURVE",
"819 128 CURVE SMOOTH",
"819 133 OFFCURVE",
"815 141 OFFCURVE",
"809 150 CURVE SMOOTH",
"795 168 OFFCURVE",
"772 191 OFFCURVE",
"746 215 CURVE SMOOTH",
"720 239 OFFCURVE",
"694 262 OFFCURVE",
"674 280 CURVE SMOOTH",
"664 289 OFFCURVE",
"657 296 OFFCURVE",
"652 301 CURVE SMOOTH",
"648 305 OFFCURVE",
"644 309 OFFCURVE",
"639 313 CURVE",
"633 316 OFFCURVE",
"629 320 OFFCURVE",
"625 325 CURVE SMOOTH",
"616 333 OFFCURVE",
"609 343 OFFCURVE",
"609 355 CURVE SMOOTH",
"609 359 OFFCURVE",
"609 362 OFFCURVE",
"611 364 CURVE",
"613 367 OFFCURVE",
"617 369 OFFCURVE",
"623 372 CURVE",
"628 374 OFFCURVE",
"630 376 OFFCURVE",
"640 384 CURVE SMOOTH",
"645 388 OFFCURVE",
"651 393 OFFCURVE",
"657 398 CURVE",
"664 404 OFFCURVE",
"671 410 OFFCURVE",
"678 417 CURVE SMOOTH",
"693 430 OFFCURVE",
"707 441 OFFCURVE",
"717 449 CURVE SMOOTH",
"722 453 OFFCURVE",
"725 456 OFFCURVE",
"726 456 CURVE",
"729 460 OFFCURVE",
"735 466 OFFCURVE",
"743 473 CURVE SMOOTH",
"750 480 OFFCURVE",
"757 487 OFFCURVE",
"765 495 CURVE SMOOTH",
"779 510 OFFCURVE",
"792 526 OFFCURVE",
"792 539 CURVE SMOOTH",
"792 541 LINE",
"785 557 OFFCURVE",
"774 572 OFFCURVE",
"763 586 CURVE SMOOTH",
"751 601 OFFCURVE",
"739 615 OFFCURVE",
"731 629 CURVE",
"729 631 OFFCURVE",
"727 634 OFFCURVE",
"723 638 CURVE",
"719 641 OFFCURVE",
"715 645 OFFCURVE",
"711 649 CURVE SMOOTH",
"707 654 OFFCURVE",
"702 658 OFFCURVE",
"699 661 CURVE",
"695 665 OFFCURVE",
"692 667 OFFCURVE",
"692 668 CURVE",
"690 669 OFFCURVE",
"689 671 OFFCURVE",
"687 674 CURVE SMOOTH",
"684 677 OFFCURVE",
"681 680 OFFCURVE",
"679 683 CURVE",
"673 689 OFFCURVE",
"667 695 OFFCURVE",
"665 695 CURVE",
"661 694 OFFCURVE",
"652 689 OFFCURVE",
"641 681 CURVE SMOOTH",
"618 663 OFFCURVE",
"587 636 OFFCURVE",
"555 605 CURVE SMOOTH",
"521 574 OFFCURVE",
"492 547 OFFCURVE",
"473 528 CURVE SMOOTH",
"462 518 OFFCURVE",
"457 513 OFFCURVE",
"454 511 CURVE",
"450 508 OFFCURVE",
"447 504 OFFCURVE",
"445 502 CURVE SMOOTH",
"442 500 OFFCURVE",
"440 497 OFFCURVE",
"438 496 CURVE",
"433 492 OFFCURVE",
"428 490 OFFCURVE",
"416 490 CURVE",
"416 508 OFFCURVE",
"417 529 OFFCURVE",
"419 553 CURVE SMOOTH",
"420 577 OFFCURVE",
"421 602 OFFCURVE",
"421 627 CURVE",
"421 631 OFFCURVE",
"421 636 OFFCURVE",
"421 642 CURVE",
"421 647 OFFCURVE",
"421 652 OFFCURVE",
"420 656 CURVE",
"418 666 OFFCURVE",
"414 672 OFFCURVE",
"402 672 CURVE SMOOTH",
"395 672 OFFCURVE",
"385 672 OFFCURVE",
"371 672 CURVE",
"357 672 OFFCURVE",
"339 672 OFFCURVE",
"317 672 CURVE SMOOTH",
"294 672 OFFCURVE",
"268 672 OFFCURVE",
"236 673 CURVE SMOOTH",
"204 673 OFFCURVE",
"167 673 OFFCURVE",
"125 673 CURVE SMOOTH",
"119 673 OFFCURVE",
"111 673 OFFCURVE",
"103 673 CURVE SMOOTH",
"95 673 OFFCURVE",
"87 672 OFFCURVE",
"80 670 CURVE SMOOTH",
"65 667 OFFCURVE",
"54 660 OFFCURVE",
"56 642 CURVE",
"56 641 OFFCURVE",
"56 638 OFFCURVE",
"56 632 CURVE",
"56 627 OFFCURVE",
"56 620 OFFCURVE",
"57 613 CURVE SMOOTH",
"57 598 OFFCURVE",
"58 580 OFFCURVE",
"59 563 CURVE SMOOTH",
"59 555 OFFCURVE",
"59 548 OFFCURVE",
"59 542 CURVE",
"59 535 OFFCURVE",
"59 530 OFFCURVE",
"59 527 CURVE SMOOTH",
"59 523 OFFCURVE",
"59 510 OFFCURVE",
"58 497 CURVE SMOOTH",
"57 483 OFFCURVE",
"56 469 OFFCURVE",
"56 466 CURVE SMOOTH",
"56 464 OFFCURVE",
"57 455 OFFCURVE",
"58 447 CURVE SMOOTH",
"59 438 OFFCURVE",
"59 429 OFFCURVE",
"59 427 CURVE SMOOTH",
"59 423 OFFCURVE",
"59 411 OFFCURVE",
"58 398 CURVE SMOOTH",
"57 392 OFFCURVE",
"57 386 OFFCURVE",
"56 380 CURVE SMOOTH",
"56 375 OFFCURVE",
"56 372 OFFCURVE",
"56 370 CURVE SMOOTH",
"56 345 OFFCURVE",
"57 320 OFFCURVE",
"59 295 CURVE SMOOTH",
"61 270 OFFCURVE",
"63 245 OFFCURVE",
"64 220 CURVE",
"64 201 OFFCURVE",
"65 171 OFFCURVE",
"66 142 CURVE SMOOTH",
"66 126 OFFCURVE",
"66 112 OFFCURVE",
"67 97 CURVE SMOOTH",
"67 83 OFFCURVE",
"68 69 OFFCURVE",
"68 58 CURVE SMOOTH",
"69 46 OFFCURVE",
"69 37 OFFCURVE",
"69 29 CURVE",
"69 22 OFFCURVE",
"69 18 OFFCURVE",
"70 18 CURVE",
"73 10 LINE",
"118 6 LINE",
"118 6 OFFCURVE",
"121 6 OFFCURVE",
"125 6 CURVE",
"130 5 OFFCURVE",
"136 5 OFFCURVE",
"143 5 CURVE SMOOTH",
"149 5 OFFCURVE",
"156 5 OFFCURVE",
"163 5 CURVE",
"170 5 OFFCURVE",
"175 5 OFFCURVE",
"180 5 CURVE SMOOTH",
"214 5 OFFCURVE",
"249 4 OFFCURVE",
"281 4 CURVE SMOOTH",
"314 3 OFFCURVE",
"347 4 OFFCURVE",
"382 6 CURVE",
"389 5 OFFCURVE",
"394 5 OFFCURVE",
"397 7 CURVE",
"404 9 OFFCURVE",
"406 15 OFFCURVE",
"405 23 CURVE",
"405 27 OFFCURVE",
"405 32 OFFCURVE",
"405 37 CURVE SMOOTH",
"405 40 OFFCURVE",
"405 45 OFFCURVE",
"405 51 CURVE",
"405 58 OFFCURVE",
"405 64 OFFCURVE",
"406 73 CURVE",
"406 81 OFFCURVE",
"406 89 OFFCURVE",
"406 99 CURVE SMOOTH",
"407 107 OFFCURVE",
"407 116 OFFCURVE",
"407 124 CURVE",
"407 132 OFFCURVE",
"407 139 OFFCURVE",
"408 146 CURVE",
"408 152 OFFCURVE",
"408 157 OFFCURVE",
"408 160 CURVE SMOOTH",
"408 164 OFFCURVE",
"411 168 OFFCURVE",
"416 168 CURVE SMOOTH",
"417 168 OFFCURVE",
"421 166 OFFCURVE",
"425 162 CURVE",
"430 158 OFFCURVE",
"435 153 OFFCURVE",
"440 148 CURVE",
"450 137 OFFCURVE",
"459 125 OFFCURVE",
"462 121 CURVE",
"567 0 LINE",
"568 -1 OFFCURVE",
"570 -3 OFFCURVE",
"574 -7 CURVE",
"577 -11 OFFCURVE",
"582 -14 OFFCURVE",
"587 -17 CURVE"
);
}
);
width = 854;
}
);
leftKerningGroup = H;
rightKerningGroup = K;
unicode = 004B;
},
{
glyphname = L;
lastChange = "2016-07-08 07:51:01 +0000";
layers = (
{
anchors = (
{
name = bottom;
position = "{313, 0}";
},
{
name = center;
position = "{313, 338}";
},
{
name = top;
position = "{228, 676}";
},
{
name = topright;
position = "{455, 676}";
}
);
background = {
paths = (
{
closed = 1;
nodes = (
"60 248 LINE",
"60 294 LINE",
"59 395 LINE",
"60 489 LINE",
"62 569 LINE",
"64 596 LINE",
"64 606 LINE",
"64 632 LINE",
"69 655 LINE",
"80 672 LINE",
"91 672 LINE",
"134 672 LINE",
"195 671 LINE",
"246 670 LINE",
"294 669 LINE",
"324 669 LINE",
"341 669 LINE",
"368 668 LINE",
"386 660 LINE",
"396 639 LINE",
"396 618 LINE",
"396 617 LINE",
"394 603 LINE",
"392 587 LINE",
"390 574 LINE",
"390 572 LINE",
"390 569 LINE",
"392 553 LINE",
"394 536 LINE",
"396 522 LINE",
"396 484 LINE",
"396 415 LINE",
"396 350 LINE",
"396 287 LINE",
"396 256 LINE",
"396 249 LINE",
"396 240 LINE",
"400 235 LINE",
"409 233 LINE",
"417 233 LINE",
"452 233 LINE",
"530 234 LINE",
"573 234 LINE",
"584 234 LINE",
"598 221 LINE",
"598 214 LINE",
"598 22 LINE",
"598 20 LINE",
"596 12 LINE",
"583 5 LINE",
"555 0 LINE",
"528 0 LINE",
"382 0 LINE",
"340 0 LINE",
"268 0 LINE",
"199 1 LINE",
"127 2 LINE",
"85 2 LINE",
"81 2 LINE",
"72 7 LINE",
"64 14 LINE",
"60 23 LINE",
"60 28 LINE"
);
}
);
};
layerId = UUID0;
paths = (
{
closed = 1;
nodes = (
"528 0 LINE SMOOTH",
"546 0 OFFCURVE",
"560 1 OFFCURVE",
"569 2 CURVE SMOOTH",
"578 4 OFFCURVE",
"585 6 OFFCURVE",
"590 8 CURVE",
"599 13 OFFCURVE",
"598 19 OFFCURVE",
"598 22 CURVE SMOOTH",
"598 214 LINE SMOOTH",
"598 223 OFFCURVE",
"587 234 OFFCURVE",
"573 234 CURVE SMOOTH",
"544 234 OFFCURVE",
"517 234 OFFCURVE",
"491 233 CURVE SMOOTH",
"465 233 OFFCURVE",
"440 233 OFFCURVE",
"417 233 CURVE SMOOTH",
"412 233 OFFCURVE",
"407 233 OFFCURVE",
"405 234 CURVE",
"399 235 OFFCURVE",
"396 238 OFFCURVE",
"396 244 CURVE SMOOTH",
"396 247 OFFCURVE",
"396 251 OFFCURVE",
"396 256 CURVE SMOOTH",
"396 277 OFFCURVE",
"396 297 OFFCURVE",
"396 318 CURVE SMOOTH",
"396 339 OFFCURVE",
"396 360 OFFCURVE",
"396 382 CURVE SMOOTH",
"396 425 OFFCURVE",
"396 471 OFFCURVE",
"396 522 CURVE",
"396 522 OFFCURVE",
"396 525 OFFCURVE",
"395 529 CURVE SMOOTH",
"395 534 OFFCURVE",
"394 539 OFFCURVE",
"393 545 CURVE",
"391 556 OFFCURVE",
"390 568 OFFCURVE",
"390 572 CURVE SMOOTH",
"390 574 OFFCURVE",
"391 585 OFFCURVE",
"393 595 CURVE",
"394 601 OFFCURVE",
"395 605 OFFCURVE",
"395 610 CURVE SMOOTH",
"396 614 OFFCURVE",
"396 617 OFFCURVE",
"396 618 CURVE SMOOTH",
"396 646 OFFCURVE",
"389 658 OFFCURVE",
"377 664 CURVE SMOOTH",
"365 670 OFFCURVE",
"346 669 OFFCURVE",
"324 669 CURVE SMOOTH",
"304 669 OFFCURVE",
"286 669 OFFCURVE",
"270 669 CURVE SMOOTH",
"254 670 OFFCURVE",
"237 670 OFFCURVE",
"221 670 CURVE SMOOTH",
"187 671 OFFCURVE",
"148 672 OFFCURVE",
"91 672 CURVE SMOOTH",
"84 672 OFFCURVE",
"78 669 OFFCURVE",
"75 664 CURVE",
"67 652 OFFCURVE",
"64 636 OFFCURVE",
"64 619 CURVE SMOOTH",
"64 610 OFFCURVE",
"64 603 OFFCURVE",
"64 596 CURVE",
"63 578 OFFCURVE",
"61 556 OFFCURVE",
"61 529 CURVE SMOOTH",
"59 476 OFFCURVE",
"59 411 OFFCURVE",
"60 344 CURVE SMOOTH",
"60 311 OFFCURVE",
"60 279 OFFCURVE",
"60 248 CURVE SMOOTH",
"60 28 LINE SMOOTH",
"60 22 OFFCURVE",
"63 16 OFFCURVE",
"68 11 CURVE SMOOTH",
"73 6 OFFCURVE",
"80 2 OFFCURVE",
"85 2 CURVE SMOOTH",
"141 2 OFFCURVE",
"187 1 OFFCURVE",
"233 1 CURVE SMOOTH",
"280 0 OFFCURVE",
"326 0 OFFCURVE",
"382 0 CURVE SMOOTH"
);
}
);
width = 625;
}
);
leftKerningGroup = H;
rightKerningGroup = L;
unicode = 004C;
},
{
glyphname = Lslash;
lastChange = "2016-07-08 07:51:01 +0000";
layers = (
{
background = {
paths = (
{
closed = 1;
nodes = (
"101 248 LINE",
"101 265 LINE",
"89 262 LINE",
"70 259 LINE",
"55 262 LINE",
"46 271 LINE",
"46 281 LINE",
"46 303 LINE",
"46 338 LINE",
"45 371 LINE",
"45 405 LINE",
"45 427 LINE",
"45 432 LINE",
"50 442 LINE",
"58 452 LINE",
"67 459 LINE",
"71 460 LINE",
"79 462 LINE",
"93 466 LINE",
"100 468 LINE",
"101 507 LINE",
"103 573 LINE",
"105 596 LINE",
"105 606 LINE",
"105 632 LINE",
"110 655 LINE",
"121 672 LINE",
"132 672 LINE",
"175 672 LINE",
"236 671 LINE",
"287 670 LINE",
"335 669 LINE",
"365 669 LINE",
"382 669 LINE",
"409 668 LINE",
"427 660 LINE",
"437 639 LINE",
"437 618 LINE",
"437 617 LINE",
"435 603 LINE",
"433 587 LINE",
"431 574 LINE",
"431 572 LINE",
"431 570 LINE",
"431 564 LINE",
"432 561 LINE",
"451 564 LINE",
"484 570 LINE",
"504 575 LINE",
"514 578 LINE",
"535 582 LINE",
"553 581 LINE",
"565 573 LINE",
"565 564 LINE",
"565 542 LINE",
"564 512 LINE",
"563 486 LINE",
"562 461 LINE",
"562 446 LINE",
"562 433 LINE",
"560 412 LINE",
"550 396 LINE",
"529 383 LINE",
"511 378 LINE",
"507 377 LINE",
"504 375 LINE",
"501 374 LINE",
"496 371 LINE",
"495 371 LINE",
"445 358 LINE",
"438 356 LINE",
"438 256 LINE",
"438 249 LINE",
"438 240 LINE",
"441 235 LINE",
"450 233 LINE",
"458 233 LINE",
"493 233 LINE",
"571 234 LINE",
"614 234 LINE",
"625 234 LINE",
"639 221 LINE",
"639 214 LINE",
"639 22 LINE",
"639 20 LINE",
"637 12 LINE",
"624 5 LINE",
"596 0 LINE",
"569 0 LINE",
"423 0 LINE",
"381 0 LINE",
"309 0 LINE",
"240 1 LINE",
"168 2 LINE",
"126 2 LINE",
"122 2 LINE",
"113 7 LINE",
"105 14 LINE",
"101 23 LINE",
"101 28 LINE"
);
}
);
};
layerId = UUID0;
paths = (
{
closed = 1;
nodes = (
"569 0 LINE SMOOTH",
"587 0 OFFCURVE",
"601 1 OFFCURVE",
"610 2 CURVE SMOOTH",
"619 4 OFFCURVE",
"626 6 OFFCURVE",
"631 8 CURVE",
"640 13 OFFCURVE",
"639 19 OFFCURVE",
"639 22 CURVE SMOOTH",
"639 214 LINE SMOOTH",
"639 223 OFFCURVE",
"628 234 OFFCURVE",
"614 234 CURVE SMOOTH",
"585 234 OFFCURVE",
"558 234 OFFCURVE",
"532 233 CURVE SMOOTH",
"506 233 OFFCURVE",
"481 233 OFFCURVE",
"458 233 CURVE SMOOTH",
"453 233 OFFCURVE",
"448 233 OFFCURVE",
"446 234 CURVE",
"440 235 OFFCURVE",
"438 238 OFFCURVE",
"438 244 CURVE SMOOTH",
"438 247 OFFCURVE",
"438 251 OFFCURVE",
"438 256 CURVE SMOOTH",
"438 356 LINE",
"445 358 LINE",
"495 371 LINE",
"495 371 OFFCURVE",
"497 372 OFFCURVE",
"499 373 CURVE",
"500 373 OFFCURVE",
"502 374 OFFCURVE",
"504 375 CURVE",
"506 376 OFFCURVE",
"508 377 OFFCURVE",
"511 378 CURVE",
"535 384 OFFCURVE",
"548 393 OFFCURVE",
"555 404 CURVE SMOOTH",
"561 415 OFFCURVE",
"562 428 OFFCURVE",
"562 446 CURVE SMOOTH",
"562 456 OFFCURVE",
"562 465 OFFCURVE",
"563 474 CURVE SMOOTH",
"563 482 OFFCURVE",
"563 490 OFFCURVE",
"563 499 CURVE SMOOTH",
"564 516 OFFCURVE",
"565 535 OFFCURVE",
"565 564 CURVE SMOOTH",
"565 576 OFFCURVE",
"556 581 OFFCURVE",
"544 582 CURVE SMOOTH",
"532 582 OFFCURVE",
"517 579 OFFCURVE",
"504 575 CURVE SMOOTH",
"491 572 OFFCURVE",
"479 569 OFFCURVE",
"468 567 CURVE SMOOTH",
"457 565 OFFCURVE",
"444 563 OFFCURVE",
"432 561 CURVE",
"431 563 OFFCURVE",
"431 565 OFFCURVE",
"431 567 CURVE SMOOTH",
"431 569 OFFCURVE",
"431 571 OFFCURVE",
"431 572 CURVE SMOOTH",
"431 574 OFFCURVE",
"432 585 OFFCURVE",
"434 595 CURVE",
"435 601 OFFCURVE",
"436 605 OFFCURVE",
"436 610 CURVE SMOOTH",
"437 614 OFFCURVE",
"437 617 OFFCURVE",
"437 618 CURVE SMOOTH",
"437 646 OFFCURVE",
"430 658 OFFCURVE",
"418 664 CURVE SMOOTH",
"406 670 OFFCURVE",
"387 669 OFFCURVE",
"365 669 CURVE SMOOTH",
"345 669 OFFCURVE",
"327 669 OFFCURVE",
"311 669 CURVE SMOOTH",
"295 670 OFFCURVE",
"278 670 OFFCURVE",
"262 670 CURVE SMOOTH",
"228 671 OFFCURVE",
"189 672 OFFCURVE",
"132 672 CURVE SMOOTH",
"125 672 OFFCURVE",
"119 669 OFFCURVE",
"116 664 CURVE",
"108 652 OFFCURVE",
"105 636 OFFCURVE",
"105 619 CURVE SMOOTH",
"105 610 OFFCURVE",
"105 603 OFFCURVE",
"105 596 CURVE",
"102 565 OFFCURVE",
"101 521 OFFCURVE",
"100 468 CURVE",
"96 467 OFFCURVE",
"91 465 OFFCURVE",
"86 464 CURVE SMOOTH",
"81 462 OFFCURVE",
"76 461 OFFCURVE",
"71 460 CURVE",
"65 458 OFFCURVE",
"59 453 OFFCURVE",
"54 447 CURVE SMOOTH",
"48 440 OFFCURVE",
"45 433 OFFCURVE",
"45 427 CURVE SMOOTH",
"45 398 OFFCURVE",
"45 376 OFFCURVE",
"46 354 CURVE SMOOTH",
"46 333 OFFCURVE",
"46 311 OFFCURVE",
"46 281 CURVE SMOOTH",
"46 268 OFFCURVE",
"53 262 OFFCURVE",
"63 261 CURVE",
"72 259 OFFCURVE",
"85 261 OFFCURVE",
"101 265 CURVE",
"101 248 LINE",
"101 28 LINE SMOOTH",
"101 22 OFFCURVE",
"104 16 OFFCURVE",
"109 11 CURVE SMOOTH",
"114 6 OFFCURVE",
"121 2 OFFCURVE",
"126 2 CURVE SMOOTH",
"182 2 OFFCURVE",
"228 1 OFFCURVE",
"274 1 CURVE SMOOTH",
"321 0 OFFCURVE",
"367 0 OFFCURVE",
"423 0 CURVE SMOOTH"
);
}
);
width = 676;
}
);
leftKerningGroup = H;
rightKerningGroup = L;
unicode = 0141;
},
{
glyphname = M;
lastChange = "2016-07-08 07:51:01 +0000";
layers = (
{
anchors = (
{
name = bottom;
position = "{508, 0}";
},
{
name = top;
position = "{508, 676}";
}
);
background = {
paths = (
{
closed = 1;
nodes = (
"519 434 LINE",
"520 436 LINE",
"532 463 LINE",
"550 502 LINE",
"571 548 LINE",
"590 589 LINE",
"604 620 LINE",
"606 625 LINE",
"609 632 LINE",
"620 649 LINE",
"629 663 LINE",
"638 672 LINE",
"641 672 LINE",
"658 672 LINE",
"779 673 LINE",
"888 673 LINE",
"897 673 LINE",
"908 672 LINE",
"918 672 LINE",
"934 672 LINE",
"948 672 LINE",
"950 672 LINE",
"953 642 LINE",
"955 592 LINE",
"957 528 LINE",
"957 460 LINE",
"957 396 LINE",
"957 370 LINE",
"957 333 LINE",
"952 257 LINE",
"949 220 LINE",
"949 206 LINE",
"950 164 LINE",
"950 119 LINE",
"951 75 LINE",
"952 40 LINE",
"952 18 LINE",
"953 18 LINE",
"950 10 LINE",
"905 -1 LINE",
"904 -1 LINE",
"890 -1 LINE",
"870 -1 LINE",
"849 -2 LINE",
"843 -2 LINE",
"823 -2 LINE",
"785 0 LINE",
"749 1 LINE",
"711 4 LINE",
"691 6 LINE",
"690 6 LINE",
"683 5 LINE",
"680 5 LINE",
"676 5 LINE",
"671 26 LINE",
"668 61 LINE",
"667 108 LINE",
"666 161 LINE",
"665 215 LINE",
"665 240 LINE",
"665 243 LINE",
"661 248 LINE",
"657 248 LINE",
"654 248 LINE",
"646 228 LINE",
"635 201 LINE",
"625 171 LINE",
"621 162 LINE",
"620 160 LINE",
"612 143 LINE",
"600 119 LINE",
"585 93 LINE",
"566 71 LINE",
"546 56 LINE",
"535 56 LINE",
"529 56 LINE",
"510 56 LINE",
"489 57 LINE",
"467 57 LINE",
"458 58 LINE",
"430 103 LINE",
"394 173 LINE",
"373 222 LINE",
"362 248 LINE",
"360 248 LINE",
"356 248 LINE",
"352 243 LINE",
"352 240 LINE",
"352 219 LINE",
"352 167 LINE",
"352 115 LINE",
"350 65 LINE",
"347 28 LINE",
"341 5 LINE",
"337 5 LINE",
"334 5 LINE",
"327 6 LINE",
"326 6 LINE",
"286 3 LINE",
"214 -2 LINE",
"174 -2 LINE",
"167 -2 LINE",
"146 -1 LINE",
"127 -1 LINE",
"112 -1 LINE",
"67 10 LINE",
"64 18 LINE",
"63 18 LINE",
"63 40 LINE",
"61 75 LINE",
"60 119 LINE",
"59 164 LINE",
"58 206 LINE",
"58 220 LINE",
"59 272 LINE",
"63 372 LINE",
"63 427 LINE",
"63 429 LINE",
"62 440 LINE",
"61 453 LINE",
"60 464 LINE",
"60 466 LINE",
"60 481 LINE",
"62 505 LINE",
"63 530 LINE",
"65 560 LINE",
"65 580 LINE",
"65 583 LINE",
"64 598 LINE",
"63 616 LINE",
"63 631 LINE",
"63 634 LINE",
"62 635 LINE",
"60 640 LINE",
"60 641 LINE",
"60 652 LINE",
"77 665 LINE",
"100 671 LINE",
"123 673 LINE",
"129 673 LINE",
"238 673 LINE",
"359 672 LINE",
"376 672 LINE",
"378 672 LINE",
"387 663 LINE",
"397 649 LINE",
"407 632 LINE",
"411 625 LINE",
"413 620 LINE",
"425 588 LINE",
"441 547 LINE",
"459 501 LINE",
"475 462 LINE",
"486 435 LINE",
"488 434 LINE",
"495 418 LINE",
"503 418 LINE",
"508 418 LINE",
"517 428 LINE"
);
}
);
};
layerId = UUID0;
paths = (
{
closed = 1;
nodes = (
"227 -2 OFFCURVE",
"273 2 OFFCURVE",
"326 6 CURVE",
"326 6 OFFCURVE",
"328 6 OFFCURVE",
"331 5 CURVE SMOOTH",
"333 5 OFFCURVE",
"335 5 OFFCURVE",
"337 5 CURVE SMOOTH",
"340 5 OFFCURVE",
"342 9 OFFCURVE",
"344 17 CURVE SMOOTH",
"348 32 OFFCURVE",
"350 57 OFFCURVE",
"351 90 CURVE SMOOTH",
"352 123 OFFCURVE",
"352 158 OFFCURVE",
"352 193 CURVE SMOOTH",
"352 210 OFFCURVE",
"352 226 OFFCURVE",
"352 240 CURVE SMOOTH",
"352 244 OFFCURVE",
"354 248 OFFCURVE",
"360 248 CURVE SMOOTH",
"361 248 OFFCURVE",
"364 244 OFFCURVE",
"368 235 CURVE SMOOTH",
"371 227 OFFCURVE",
"376 214 OFFCURVE",
"383 198 CURVE SMOOTH",
"397 165 OFFCURVE",
"420 117 OFFCURVE",
"458 58 CURVE",
"464 58 OFFCURVE",
"471 57 OFFCURVE",
"478 57 CURVE",
"485 57 OFFCURVE",
"492 57 OFFCURVE",
"500 57 CURVE",
"507 56 OFFCURVE",
"514 56 OFFCURVE",
"520 56 CURVE SMOOTH",
"526 56 OFFCURVE",
"531 56 OFFCURVE",
"535 56 CURVE SMOOTH",
"542 56 OFFCURVE",
"549 59 OFFCURVE",
"556 63 CURVE SMOOTH",
"570 73 OFFCURVE",
"583 88 OFFCURVE",
"593 106 CURVE SMOOTH",
"603 124 OFFCURVE",
"611 140 OFFCURVE",
"616 151 CURVE SMOOTH",
"619 157 OFFCURVE",
"620 161 OFFCURVE",
"621 162 CURVE",
"624 168 OFFCURVE",
"626 176 OFFCURVE",
"630 186 CURVE SMOOTH",
"637 206 OFFCURVE",
"644 225 OFFCURVE",
"650 238 CURVE SMOOTH",
"653 245 OFFCURVE",
"655 248 OFFCURVE",
"657 248 CURVE SMOOTH",
"662 248 OFFCURVE",
"665 244 OFFCURVE",
"665 240 CURVE SMOOTH",
"665 223 OFFCURVE",
"665 206 OFFCURVE",
"666 188 CURVE SMOOTH",
"666 152 OFFCURVE",
"667 116 OFFCURVE",
"667 84 CURVE SMOOTH",
"668 53 OFFCURVE",
"670 29 OFFCURVE",
"674 16 CURVE",
"675 8 OFFCURVE",
"677 5 OFFCURVE",
"680 5 CURVE SMOOTH",
"682 5 OFFCURVE",
"684 5 OFFCURVE",
"687 5 CURVE SMOOTH",
"689 6 OFFCURVE",
"690 6 OFFCURVE",
"691 6 CURVE",
"704 5 OFFCURVE",
"717 4 OFFCURVE",
"730 3 CURVE SMOOTH",
"742 2 OFFCURVE",
"755 1 OFFCURVE",
"767 0 CURVE SMOOTH",
"792 -1 OFFCURVE",
"816 -2 OFFCURVE",
"843 -2 CURVE SMOOTH",
"847 -2 OFFCURVE",
"853 -2 OFFCURVE",
"860 -1 CURVE",
"867 -1 OFFCURVE",
"874 -1 OFFCURVE",
"880 -1 CURVE SMOOTH",
"886 -1 OFFCURVE",
"892 -1 OFFCURVE",
"897 -1 CURVE",
"902 -1 OFFCURVE",
"904 -1 OFFCURVE",
"905 -1 CURVE",
"950 10 LINE",
"953 18 LINE",
"952 18 OFFCURVE",
"952 22 OFFCURVE",
"952 29 CURVE",
"952 37 OFFCURVE",
"952 46 OFFCURVE",
"952 58 CURVE",
"951 69 OFFCURVE",
"951 83 OFFCURVE",
"951 97 CURVE SMOOTH",
"950 112 OFFCURVE",
"950 126 OFFCURVE",
"950 142 CURVE",
"950 157 OFFCURVE",
"950 171 OFFCURVE",
"949 185 CURVE SMOOTH",
"949 199 OFFCURVE",
"949 210 OFFCURVE",
"949 220 CURVE",
"953 269 OFFCURVE",
"957 321 OFFCURVE",
"957 370 CURVE SMOOTH",
"957 387 OFFCURVE",
"957 407 OFFCURVE",
"957 428 CURVE SMOOTH",
"957 471 OFFCURVE",
"957 517 OFFCURVE",
"956 560 CURVE SMOOTH",
"955 603 OFFCURVE",
"954 637 OFFCURVE",
"952 657 CURVE SMOOTH",
"951 667 OFFCURVE",
"949 672 OFFCURVE",
"948 672 CURVE SMOOTH",
"938 672 OFFCURVE",
"931 672 OFFCURVE",
"926 672 CURVE",
"921 672 OFFCURVE",
"917 672 OFFCURVE",
"913 672 CURVE SMOOTH",
"910 672 OFFCURVE",
"906 672 OFFCURVE",
"902 673 CURVE",
"899 673 OFFCURVE",
"894 673 OFFCURVE",
"888 673 CURVE SMOOTH",
"815 673 OFFCURVE",
"759 673 OFFCURVE",
"719 672 CURVE SMOOTH",
"678 672 OFFCURVE",
"652 672 OFFCURVE",
"641 672 CURVE SMOOTH",
"639 672 OFFCURVE",
"637 670 OFFCURVE",
"634 667 CURVE SMOOTH",
"631 665 OFFCURVE",
"628 661 OFFCURVE",
"625 656 CURVE",
"618 646 OFFCURVE",
"610 635 OFFCURVE",
"606 625 CURVE SMOOTH",
"604 622 OFFCURVE",
"602 615 OFFCURVE",
"597 604 CURVE",
"592 594 OFFCURVE",
"587 582 OFFCURVE",
"581 568 CURVE SMOOTH",
"568 541 OFFCURVE",
"553 508 OFFCURVE",
"541 482 CURVE SMOOTH",
"535 469 OFFCURVE",
"530 458 OFFCURVE",
"526 450 CURVE SMOOTH",
"521 440 OFFCURVE",
"520 436 OFFCURVE",
"519 434 CURVE",
"516 426 OFFCURVE",
"510 418 OFFCURVE",
"503 418 CURVE SMOOTH",
"498 418 OFFCURVE",
"492 423 OFFCURVE",
"488 434 CURVE",
"487 435 OFFCURVE",
"484 439 OFFCURVE",
"481 449 CURVE",
"477 458 OFFCURVE",
"473 468 OFFCURVE",
"467 481 CURVE SMOOTH",
"462 495 OFFCURVE",
"457 509 OFFCURVE",
"450 524 CURVE SMOOTH",
"438 555 OFFCURVE",
"427 583 OFFCURVE",
"419 604 CURVE SMOOTH",
"411 625 OFFCURVE",
"408 629 OFFCURVE",
"402 641 CURVE SMOOTH",
"396 652 OFFCURVE",
"389 662 OFFCURVE",
"383 667 CURVE SMOOTH",
"380 670 OFFCURVE",
"377 672 OFFCURVE",
"376 672 CURVE SMOOTH",
"365 672 OFFCURVE",
"339 672 OFFCURVE",
"298 672 CURVE SMOOTH",
"258 673 OFFCURVE",
"202 673 OFFCURVE",
"129 673 CURVE SMOOTH",
"121 673 OFFCURVE",
"104 672 OFFCURVE",
"88 668 CURVE SMOOTH",
"73 664 OFFCURVE",
"60 655 OFFCURVE",
"60 641 CURVE SMOOTH",
"60 639 OFFCURVE",
"62 635 OFFCURVE",
"63 634 CURVE",
"63 630 OFFCURVE",
"63 619 OFFCURVE",
"64 607 CURVE SMOOTH",
"64 595 OFFCURVE",
"65 584 OFFCURVE",
"65 580 CURVE SMOOTH",
"65 553 OFFCURVE",
"64 535 OFFCURVE",
"63 518 CURVE SMOOTH",
"61 500 OFFCURVE",
"60 486 OFFCURVE",
"60 466 CURVE SMOOTH",
"60 465 OFFCURVE",
"60 462 OFFCURVE",
"61 459 CURVE SMOOTH",
"61 455 OFFCURVE",
"61 451 OFFCURVE",
"62 447 CURVE SMOOTH",
"62 442 OFFCURVE",
"62 438 OFFCURVE",
"63 435 CURVE SMOOTH",
"63 431 OFFCURVE",
"63 428 OFFCURVE",
"63 427 CURVE SMOOTH",
"63 390 OFFCURVE",
"63 355 OFFCURVE",
"61 322 CURVE SMOOTH",
"60 289 OFFCURVE",
"58 255 OFFCURVE",
"58 220 CURVE",
"58 201 OFFCURVE",
"59 171 OFFCURVE",
"60 142 CURVE SMOOTH",
"60 126 OFFCURVE",
"60 112 OFFCURVE",
"61 97 CURVE SMOOTH",
"61 68 OFFCURVE",
"63 44 OFFCURVE",
"63 29 CURVE SMOOTH",
"63 22 OFFCURVE",
"63 18 OFFCURVE",
"64 18 CURVE",
"67 10 LINE",
"112 -1 LINE",
"112 -1 OFFCURVE",
"115 -1 OFFCURVE",
"120 -1 CURVE",
"125 -1 OFFCURVE",
"130 -1 OFFCURVE",
"137 -1 CURVE SMOOTH",
"143 -1 OFFCURVE",
"150 -1 OFFCURVE",
"157 -1 CURVE",
"164 -2 OFFCURVE",
"169 -2 OFFCURVE",
"174 -2 CURVE SMOOTH"
);
}
);
width = 1015;
}
);
leftKerningGroup = M;
rightKerningGroup = M;
unicode = 004D;
},
{
glyphname = N;
lastChange = "2016-07-08 07:51:01 +0000";
layers = (
{
anchors = (
{
name = bottom;
position = "{437, 0}";
},
{
name = top;
position = "{437, 676}";
}
);
background = {
paths = (
{
closed = 1;
nodes = (
"813 224 LINE",
"813 168 LINE",
"813 91 LINE",
"811 41 LINE",
"806 14 LINE",
"798 1 LINE",
"785 -1 LINE",
"776 -1 LINE",
"741 0 LINE",
"687 0 LINE",
"623 0 LINE",
"594 0 LINE",
"588 0 LINE",
"570 -1 LINE",
"550 1 LINE",
"529 9 LINE",
"520 18 LINE",
"418 161 LINE",
"416 165 LINE",
"403 186 LINE",
"388 209 LINE",
"375 228 LINE",
"372 228 LINE",
"368 228 LINE",
"364 223 LINE",
"364 220 LINE",
"364 213 LINE",
"363 184 LINE",
"363 146 LINE",
"362 106 LINE",
"361 70 LINE",
"361 42 LINE",
"361 37 LINE",
"361 29 LINE",
"362 17 LINE",
"358 8 LINE",
"349 5 LINE",
"338 6 LINE",
"298 3 LINE",
"226 -2 LINE",
"186 -2 LINE",
"179 -2 LINE",
"159 -1 LINE",
"139 -1 LINE",
"124 -1 LINE",
"79 10 LINE",
"76 18 LINE",
"75 18 LINE",
"74 40 LINE",
"73 75 LINE",
"72 119 LINE",
"71 164 LINE",
"70 206 LINE",
"70 220 LINE",
"64 271 LINE",
"63 375 LINE",
"64 478 LINE",
"66 582 LINE",
"65 634 LINE",
"63 646 LINE",
"70 662 LINE",
"85 670 LINE",
"104 673 LINE",
"113 673 LINE",
"165 673 LINE",
"248 678 LINE",
"307 681 LINE",
"342 679 LINE",
"348 672 LINE",
"351 668 LINE",
"369 642 LINE",
"396 603 LINE",
"428 555 LINE",
"462 503 LINE",
"496 452 LINE",
"511 430 LINE",
"511 448 LINE",
"512 493 LINE",
"513 541 LINE",
"514 587 LINE",
"515 624 LINE",
"517 646 LINE",
"518 647 LINE",
"520 649 LINE",
"528 657 LINE",
"541 665 LINE",
"556 670 LINE",
"564 670 LINE",
"621 670 LINE",
"622 670 LINE",
"645 669 LINE",
"677 669 LINE",
"714 668 LINE",
"747 667 LINE",
"769 667 LINE",
"770 667 LINE",
"781 667 LINE",
"799 664 LINE",
"810 655 LINE",
"816 639 LINE",
"816 625 LINE",
"816 622 LINE",
"814 607 LINE",
"813 590 LINE",
"812 575 LINE",
"812 571 LINE",
"812 567 LINE",
"815 557 LINE",
"815 552 LINE",
"815 545 LINE",
"814 496 LINE",
"814 428 LINE",
"813 351 LINE",
"813 282 LINE",
"813 231 LINE"
);
}
);
};
layerId = UUID0;
paths = (
{
closed = 1;
nodes = (
"239 -2 OFFCURVE",
"285 2 OFFCURVE",
"338 6 CURVE",
"345 5 OFFCURVE",
"350 5 OFFCURVE",
"354 7 CURVE",
"360 9 OFFCURVE",
"362 15 OFFCURVE",
"361 23 CURVE",
"361 27 OFFCURVE",
"361 32 OFFCURVE",
"361 37 CURVE SMOOTH",
"361 41 OFFCURVE",
"361 47 OFFCURVE",
"361 57 CURVE",
"361 66 OFFCURVE",
"361 76 OFFCURVE",
"362 88 CURVE",
"362 100 OFFCURVE",
"362 113 OFFCURVE",
"362 126 CURVE SMOOTH",
"363 140 OFFCURVE",
"363 153 OFFCURVE",
"363 165 CURVE",
"363 177 OFFCURVE",
"363 188 OFFCURVE",
"364 198 CURVE",
"364 208 OFFCURVE",
"364 215 OFFCURVE",
"364 220 CURVE SMOOTH",
"364 224 OFFCURVE",
"366 228 OFFCURVE",
"372 228 CURVE SMOOTH",
"374 228 OFFCURVE",
"377 225 OFFCURVE",
"381 219 CURVE",
"386 212 OFFCURVE",
"391 206 OFFCURVE",
"396 198 CURVE SMOOTH",
"405 182 OFFCURVE",
"416 166 OFFCURVE",
"418 161 CURVE",
"520 18 LINE",
"526 12 OFFCURVE",
"532 7 OFFCURVE",
"540 5 CURVE",
"554 0 OFFCURVE",
"567 -1 OFFCURVE",
"579 0 CURVE SMOOTH",
"585 0 OFFCURVE",
"590 0 OFFCURVE",
"594 0 CURVE SMOOTH",
"613 0 OFFCURVE",
"633 0 OFFCURVE",
"655 0 CURVE SMOOTH",
"676 0 OFFCURVE",
"696 0 OFFCURVE",
"714 0 CURVE SMOOTH",
"732 0 OFFCURVE",
"747 0 OFFCURVE",
"759 0 CURVE",
"771 -1 OFFCURVE",
"776 -1 OFFCURVE",
"776 -1 CURVE",
"782 -1 OFFCURVE",
"787 0 OFFCURVE",
"792 0 CURVE",
"800 2 OFFCURVE",
"806 9 OFFCURVE",
"809 27 CURVE SMOOTH",
"810 37 OFFCURVE",
"811 49 OFFCURVE",
"812 66 CURVE SMOOTH",
"813 100 OFFCURVE",
"813 149 OFFCURVE",
"813 224 CURVE SMOOTH",
"813 229 OFFCURVE",
"813 240 OFFCURVE",
"813 257 CURVE SMOOTH",
"813 273 OFFCURVE",
"813 293 OFFCURVE",
"813 316 CURVE SMOOTH",
"813 339 OFFCURVE",
"813 363 OFFCURVE",
"814 389 CURVE SMOOTH",
"814 415 OFFCURVE",
"814 439 OFFCURVE",
"814 462 CURVE SMOOTH",
"814 484 OFFCURVE",
"814 504 OFFCURVE",
"815 521 CURVE SMOOTH",
"815 537 OFFCURVE",
"815 547 OFFCURVE",
"815 552 CURVE SMOOTH",
"815 555 OFFCURVE",
"814 559 OFFCURVE",
"813 562 CURVE",
"812 565 OFFCURVE",
"812 568 OFFCURVE",
"812 571 CURVE SMOOTH",
"812 573 OFFCURVE",
"812 577 OFFCURVE",
"813 583 CURVE SMOOTH",
"813 588 OFFCURVE",
"813 593 OFFCURVE",
"814 599 CURVE SMOOTH",
"814 604 OFFCURVE",
"815 610 OFFCURVE",
"815 615 CURVE SMOOTH",
"816 620 OFFCURVE",
"816 623 OFFCURVE",
"816 625 CURVE SMOOTH",
"816 643 OFFCURVE",
"812 654 OFFCURVE",
"805 660 CURVE SMOOTH",
"797 666 OFFCURVE",
"785 667 OFFCURVE",
"770 667 CURVE SMOOTH",
"769 667 OFFCURVE",
"765 667 OFFCURVE",
"758 667 CURVE",
"750 667 OFFCURVE",
"741 667 OFFCURVE",
"730 668 CURVE",
"720 668 OFFCURVE",
"708 668 OFFCURVE",
"696 668 CURVE SMOOTH",
"683 669 OFFCURVE",
"671 669 OFFCURVE",
"661 669 CURVE",
"650 669 OFFCURVE",
"641 669 OFFCURVE",
"633 670 CURVE",
"626 670 OFFCURVE",
"622 670 OFFCURVE",
"621 670 CURVE SMOOTH",
"564 670 LINE",
"559 670 OFFCURVE",
"553 669 OFFCURVE",
"548 668 CURVE",
"538 664 OFFCURVE",
"530 658 OFFCURVE",
"524 653 CURVE SMOOTH",
"518 647 OFFCURVE",
"517 650 OFFCURVE",
"516 635 CURVE SMOOTH",
"515 620 OFFCURVE",
"514 595 OFFCURVE",
"513 564 CURVE SMOOTH",
"513 533 OFFCURVE",
"512 501 OFFCURVE",
"512 471 CURVE SMOOTH",
"511 456 OFFCURVE",
"511 442 OFFCURVE",
"511 430 CURVE",
"501 445 OFFCURVE",
"490 461 OFFCURVE",
"479 478 CURVE SMOOTH",
"456 512 OFFCURVE",
"433 547 OFFCURVE",
"412 579 CURVE SMOOTH",
"390 611 OFFCURVE",
"372 638 OFFCURVE",
"360 655 CURVE SMOOTH",
"348 672 OFFCURVE",
"348 679 OFFCURVE",
"325 680 CURVE SMOOTH",
"301 682 OFFCURVE",
"261 679 OFFCURVE",
"207 675 CURVE SMOOTH",
"179 674 OFFCURVE",
"148 673 OFFCURVE",
"113 673 CURVE SMOOTH",
"101 673 OFFCURVE",
"87 672 OFFCURVE",
"78 667 CURVE SMOOTH",
"67 661 OFFCURVE",
"62 651 OFFCURVE",
"65 634 CURVE",
"66 599 OFFCURVE",
"66 564 OFFCURVE",
"65 530 CURVE SMOOTH",
"64 495 OFFCURVE",
"64 461 OFFCURVE",
"63 427 CURVE SMOOTH",
"63 358 OFFCURVE",
"62 289 OFFCURVE",
"70 220 CURVE",
"70 210 OFFCURVE",
"70 199 OFFCURVE",
"70 185 CURVE SMOOTH",
"71 171 OFFCURVE",
"71 157 OFFCURVE",
"71 142 CURVE SMOOTH",
"72 126 OFFCURVE",
"72 112 OFFCURVE",
"72 97 CURVE SMOOTH",
"73 68 OFFCURVE",
"74 44 OFFCURVE",
"75 29 CURVE SMOOTH",
"75 22 OFFCURVE",
"75 18 OFFCURVE",
"76 18 CURVE",
"79 10 LINE",
"124 -1 LINE",
"124 -1 OFFCURVE",
"126 -1 OFFCURVE",
"132 -1 CURVE",
"137 -1 OFFCURVE",
"143 -1 OFFCURVE",
"149 -1 CURVE SMOOTH",
"155 -1 OFFCURVE",
"162 -1 OFFCURVE",
"169 -1 CURVE",
"176 -2 OFFCURVE",
"181 -2 OFFCURVE",
"186 -2 CURVE SMOOTH"
);
}
);
width = 873;
}
);
leftKerningGroup = H;
rightKerningGroup = H;
unicode = 004E;
},
{
glyphname = Eng;
lastChange = "2016-07-08 07:51:01 +0000";
layers = (
{
background = {
paths = (
{
closed = 1;
nodes = (
"418 161 LINE",
"416 165 LINE",
"403 186 LINE",
"388 209 LINE",
"375 228 LINE",
"372 228 LINE",
"368 228 LINE",
"364 223 LINE",
"364 220 LINE",
"364 213 LINE",
"363 184 LINE",
"363 146 LINE",
"362 106 LINE",
"361 70 LINE",
"361 42 LINE",
"361 37 LINE",
"361 29 LINE",
"362 17 LINE",
"358 8 LINE",
"349 5 LINE",
"338 6 LINE",
"298 3 LINE",
"226 -2 LINE",
"186 -2 LINE",
"179 -2 LINE",
"159 -1 LINE",
"139 -1 LINE",
"124 -1 LINE",
"79 10 LINE",
"76 18 LINE",
"75 18 LINE",
"74 40 LINE",
"73 75 LINE",
"72 119 LINE",
"71 164 LINE",
"70 206 LINE",
"70 220 LINE",
"64 271 LINE",
"63 375 LINE",
"64 478 LINE",
"66 582 LINE",
"65 634 LINE",
"63 646 LINE",
"70 662 LINE",
"85 670 LINE",
"104 673 LINE",
"113 673 LINE",
"165 673 LINE",
"248 678 LINE",
"307 681 LINE",
"342 679 LINE",
"348 672 LINE",
"351 668 LINE",
"369 642 LINE",
"396 603 LINE",
"428 555 LINE",
"462 503 LINE",
"496 452 LINE",
"511 430 LINE",
"511 448 LINE",
"512 493 LINE",
"513 541 LINE",
"514 587 LINE",
"515 624 LINE",
"517 646 LINE",
"518 647 LINE",
"520 649 LINE",
"528 657 LINE",
"541 665 LINE",
"556 670 LINE",
"564 670 LINE",
"621 670 LINE",
"622 670 LINE",
"645 669 LINE",
"677 669 LINE",
"714 668 LINE",
"747 667 LINE",
"769 667 LINE",
"770 667 LINE",
"781 667 LINE",
"799 664 LINE",
"810 655 LINE",
"816 639 LINE",
"816 625 LINE",
"816 622 LINE",
"814 607 LINE",
"813 590 LINE",
"812 575 LINE",
"812 571 LINE",
"812 567 LINE",
"815 557 LINE",
"815 552 LINE",
"815 545 LINE",
"814 496 LINE",
"814 428 LINE",
"813 351 LINE",
"813 282 LINE",
"813 231 LINE",
"813 224 LINE",
"813 57 LINE",
"813 27 LINE",
"812 -42 LINE",
"804 -108 LINE",
"786 -168 LINE",
"769 -191 LINE",
"746 -227 LINE",
"689 -267 LINE",
"663 -278 LINE",
"633 -291 LINE",
"603 -294 LINE",
"534 -304 LINE",
"396 -290 LINE",
"332 -264 LINE",
"288 -244 LINE",
"287 -240 LINE",
"288 -226 LINE",
"290 -207 LINE",
"292 -185 LINE",
"293 -174 LINE",
"293 -169 LINE",
"295 -149 LINE",
"297 -130 LINE",
"300 -118 LINE",
"301 -120 LINE",
"326 -128 LINE",
"364 -140 LINE",
"400 -147 LINE",
"438 -150 LINE",
"461 -149 LINE",
"473 -149 LINE",
"488 -132 LINE",
"498 -109 LINE",
"503 -85 LINE",
"505 -79 LINE",
"506 -62 LINE",
"509 -8 LINE",
"509 33 LINE"
);
}
);
};
layerId = UUID0;
paths = (
{
closed = 1;
nodes = (
"623 -292 OFFCURVE",
"643 -286 OFFCURVE",
"663 -278 CURVE SMOOTH",
"698 -264 OFFCURVE",
"739 -238 OFFCURVE",
"769 -191 CURVE",
"792 -161 OFFCURVE",
"802 -119 OFFCURVE",
"808 -75 CURVE SMOOTH",
"813 -30 OFFCURVE",
"813 17 OFFCURVE",
"813 57 CURVE SMOOTH",
"813 224 LINE SMOOTH",
"813 229 OFFCURVE",
"813 240 OFFCURVE",
"813 257 CURVE SMOOTH",
"813 273 OFFCURVE",
"813 293 OFFCURVE",
"813 316 CURVE SMOOTH",
"813 339 OFFCURVE",
"813 363 OFFCURVE",
"814 389 CURVE SMOOTH",
"814 415 OFFCURVE",
"814 439 OFFCURVE",
"814 462 CURVE SMOOTH",
"814 484 OFFCURVE",
"814 504 OFFCURVE",
"815 521 CURVE SMOOTH",
"815 537 OFFCURVE",
"815 547 OFFCURVE",
"815 552 CURVE SMOOTH",
"815 555 OFFCURVE",
"814 559 OFFCURVE",
"813 562 CURVE",
"812 565 OFFCURVE",
"812 568 OFFCURVE",
"812 571 CURVE SMOOTH",
"812 573 OFFCURVE",
"812 577 OFFCURVE",
"813 583 CURVE SMOOTH",
"813 588 OFFCURVE",
"813 593 OFFCURVE",
"814 599 CURVE SMOOTH",
"814 604 OFFCURVE",
"815 610 OFFCURVE",
"815 615 CURVE SMOOTH",
"816 620 OFFCURVE",
"816 623 OFFCURVE",
"816 625 CURVE SMOOTH",
"816 643 OFFCURVE",
"812 654 OFFCURVE",
"805 660 CURVE SMOOTH",
"797 666 OFFCURVE",
"785 667 OFFCURVE",
"770 667 CURVE SMOOTH",
"769 667 OFFCURVE",
"765 667 OFFCURVE",
"758 667 CURVE",
"750 667 OFFCURVE",
"741 667 OFFCURVE",
"730 668 CURVE",
"720 668 OFFCURVE",
"708 668 OFFCURVE",
"696 668 CURVE SMOOTH",
"683 669 OFFCURVE",
"671 669 OFFCURVE",
"661 669 CURVE",
"650 669 OFFCURVE",
"641 669 OFFCURVE",
"633 670 CURVE",
"626 670 OFFCURVE",
"622 670 OFFCURVE",
"621 670 CURVE SMOOTH",
"564 670 LINE",
"559 670 OFFCURVE",
"553 669 OFFCURVE",
"548 668 CURVE",
"538 664 OFFCURVE",
"530 658 OFFCURVE",
"524 653 CURVE SMOOTH",
"518 647 OFFCURVE",
"517 650 OFFCURVE",
"516 635 CURVE SMOOTH",
"515 620 OFFCURVE",
"514 595 OFFCURVE",
"513 564 CURVE SMOOTH",
"513 533 OFFCURVE",
"512 501 OFFCURVE",
"512 471 CURVE SMOOTH",
"511 456 OFFCURVE",
"511 442 OFFCURVE",
"511 430 CURVE",
"501 445 OFFCURVE",
"490 461 OFFCURVE",
"479 478 CURVE SMOOTH",
"456 512 OFFCURVE",
"433 547 OFFCURVE",
"412 579 CURVE SMOOTH",
"390 611 OFFCURVE",
"372 638 OFFCURVE",
"360 655 CURVE SMOOTH",
"348 672 OFFCURVE",
"348 679 OFFCURVE",
"325 680 CURVE SMOOTH",
"301 682 OFFCURVE",
"261 679 OFFCURVE",
"207 675 CURVE SMOOTH",
"179 674 OFFCURVE",
"148 673 OFFCURVE",
"113 673 CURVE SMOOTH",
"101 673 OFFCURVE",
"87 672 OFFCURVE",
"78 667 CURVE SMOOTH",
"67 661 OFFCURVE",
"62 651 OFFCURVE",
"65 634 CURVE",
"66 599 OFFCURVE",
"66 564 OFFCURVE",
"65 530 CURVE SMOOTH",
"64 495 OFFCURVE",
"64 461 OFFCURVE",
"63 427 CURVE SMOOTH",
"63 358 OFFCURVE",
"62 289 OFFCURVE",
"70 220 CURVE",
"70 210 OFFCURVE",
"70 199 OFFCURVE",
"70 185 CURVE SMOOTH",
"71 171 OFFCURVE",
"71 157 OFFCURVE",
"71 142 CURVE SMOOTH",
"72 126 OFFCURVE",
"72 112 OFFCURVE",
"72 97 CURVE SMOOTH",
"73 68 OFFCURVE",
"74 44 OFFCURVE",
"75 29 CURVE SMOOTH",
"75 22 OFFCURVE",
"75 18 OFFCURVE",
"76 18 CURVE",
"79 10 LINE",
"124 -1 LINE",
"124 -1 OFFCURVE",
"126 -1 OFFCURVE",
"132 -1 CURVE",
"137 -1 OFFCURVE",
"143 -1 OFFCURVE",
"149 -1 CURVE SMOOTH",
"155 -1 OFFCURVE",
"162 -1 OFFCURVE",
"169 -1 CURVE",
"176 -2 OFFCURVE",
"181 -2 OFFCURVE",
"186 -2 CURVE SMOOTH",
"239 -2 OFFCURVE",
"285 2 OFFCURVE",
"338 6 CURVE",
"345 5 OFFCURVE",
"350 5 OFFCURVE",
"354 7 CURVE",
"360 9 OFFCURVE",
"362 15 OFFCURVE",
"361 23 CURVE",
"361 27 OFFCURVE",
"361 32 OFFCURVE",
"361 37 CURVE SMOOTH",
"361 41 OFFCURVE",
"361 47 OFFCURVE",
"361 57 CURVE",
"361 66 OFFCURVE",
"361 76 OFFCURVE",
"362 88 CURVE",
"362 100 OFFCURVE",
"362 113 OFFCURVE",
"362 126 CURVE SMOOTH",
"363 140 OFFCURVE",
"363 153 OFFCURVE",
"363 165 CURVE",
"363 177 OFFCURVE",
"363 188 OFFCURVE",
"364 198 CURVE",
"364 208 OFFCURVE",
"364 215 OFFCURVE",
"364 220 CURVE SMOOTH",
"364 224 OFFCURVE",
"366 228 OFFCURVE",
"372 228 CURVE SMOOTH",
"374 228 OFFCURVE",
"377 225 OFFCURVE",
"381 219 CURVE",
"386 212 OFFCURVE",
"391 206 OFFCURVE",
"396 198 CURVE SMOOTH",
"405 182 OFFCURVE",
"416 166 OFFCURVE",
"418 161 CURVE",
"509 33 LINE",
"509 -22 OFFCURVE",
"507 -56 OFFCURVE",
"505 -79 CURVE",
"504 -83 OFFCURVE",
"502 -89 OFFCURVE",
"501 -97 CURVE",
"499 -105 OFFCURVE",
"497 -113 OFFCURVE",
"493 -121 CURVE",
"487 -136 OFFCURVE",
"477 -149 OFFCURVE",
"461 -149 CURVE SMOOTH",
"430 -150 OFFCURVE",
"406 -148 OFFCURVE",
"382 -144 CURVE SMOOTH",
"358 -139 OFFCURVE",
"334 -131 OFFCURVE",
"301 -120 CURVE",
"300 -118 OFFCURVE",
"299 -120 OFFCURVE",
"299 -124 CURVE",
"298 -128 OFFCURVE",
"297 -133 OFFCURVE",
"296 -140 CURVE",
"295 -152 OFFCURVE",
"293 -167 OFFCURVE",
"293 -174 CURVE",
"293 -182 OFFCURVE",
"292 -188 OFFCURVE",
"292 -196 CURVE",
"291 -203 OFFCURVE",
"290 -209 OFFCURVE",
"289 -216 CURVE",
"288 -229 OFFCURVE",
"286 -239 OFFCURVE",
"288 -244 CURVE",
"332 -264 LINE",
"417 -299 OFFCURVE",
"511 -307 OFFCURVE",
"603 -294 CURVE SMOOTH"
);
}
);
width = 873;
}
);
leftKerningGroup = Eng;
rightKerningGroup = Eng;
unicode = 014A;
},
{
glyphname = O;
lastChange = "2016-07-08 07:51:01 +0000";
layers = (
{
anchors = (
{
name = bottom;
position = "{430, 0}";
},
{
name = center;
position = "{430, 338}";
},
{
name = ogonek;
position = "{648, 10}";
},
{
name = top;
position = "{430, 676}";
},
{
name = topleft;
position = "{20, 676}";
},
{
name = topright;
position = "{624, 661}";
}
);
background = {
paths = (
{
closed = 1;
nodes = (
"438 -24 LINE",
"389 -24 LINE",
"293 -17 LINE",
"207 6 LINE",
"132 50 LINE",
"77 125 LINE",
"46 235 LINE",
"46 313 LINE",
"46 415 LINE",
"91 560 LINE",
"188 652 LINE",
"341 695 LINE",
"448 695 LINE",
"484 695 LINE",
"566 683 LINE",
"648 654 LINE",
"723 605 LINE",
"780 529 LINE",
"814 425 LINE",
"814 355 LINE",
"814 275 LINE",
"790 157 LINE",
"743 72 LINE",
"677 19 LINE",
"593 -12 LINE",
"494 -24 LINE"
);
},
{
closed = 1;
nodes = (
"385 327 LINE",
"385 312 LINE",
"385 262 LINE",
"388 206 LINE",
"393 148 LINE",
"403 101 LINE",
"418 72 LINE",
"430 72 LINE",
"441 72 LINE",
"457 105 LINE",
"467 157 LINE",
"473 221 LINE",
"476 282 LINE",
"476 333 LINE",
"476 347 LINE",
"476 352 LINE",
"476 393 LINE",
"473 449 LINE",
"467 512 LINE",
"457 565 LINE",
"441 600 LINE",
"430 600 LINE",
"418 600 LINE",
"403 577 LINE",
"393 536 LINE",
"388 482 LINE",
"385 422 LINE",
"385 357 LINE"
);
}
);
};
layerId = UUID0;
paths = (
{
closed = 1;
nodes = (
"513 -24 OFFCURVE",
"580 -17 OFFCURVE",
"635 3 CURVE SMOOTH",
"691 24 OFFCURVE",
"735 58 OFFCURVE",
"767 115 CURVE SMOOTH",
"797 171 OFFCURVE",
"814 248 OFFCURVE",
"814 355 CURVE SMOOTH",
"814 448 OFFCURVE",
"790 517 OFFCURVE",
"751 567 CURVE SMOOTH",
"713 618 OFFCURVE",
"662 649 OFFCURVE",
"607 669 CURVE SMOOTH",
"553 688 OFFCURVE",
"496 695 OFFCURVE",
"448 695 CURVE SMOOTH",
"305 695 OFFCURVE",
"205 667 OFFCURVE",
"140 606 CURVE SMOOTH",
"75 544 OFFCURVE",
"46 449 OFFCURVE",
"46 313 CURVE SMOOTH",
"46 209 OFFCURVE",
"68 138 OFFCURVE",
"104 87 CURVE SMOOTH",
"141 37 OFFCURVE",
"192 10 OFFCURVE",
"250 -5 CURVE SMOOTH",
"308 -21 OFFCURVE",
"373 -24 OFFCURVE",
"438 -24 CURVE SMOOTH"
);
},
{
closed = 1;
nodes = (
"415 72 OFFCURVE",
"404 93 OFFCURVE",
"398 125 CURVE SMOOTH",
"392 156 OFFCURVE",
"388 196 OFFCURVE",
"387 234 CURVE SMOOTH",
"385 271 OFFCURVE",
"385 307 OFFCURVE",
"385 327 CURVE SMOOTH",
"385 368 OFFCURVE",
"385 412 OFFCURVE",
"387 452 CURVE SMOOTH",
"388 493 OFFCURVE",
"392 529 OFFCURVE",
"398 557 CURVE SMOOTH",
"404 583 OFFCURVE",
"415 600 OFFCURVE",
"430 600 CURVE SMOOTH",
"438 600 OFFCURVE",
"444 594 OFFCURVE",
"449 583 CURVE SMOOTH",
"459 559 OFFCURVE",
"466 522 OFFCURVE",
"470 480 CURVE SMOOTH",
"474 438 OFFCURVE",
"476 399 OFFCURVE",
"476 372 CURVE SMOOTH",
"476 358 OFFCURVE",
"476 350 OFFCURVE",
"476 347 CURVE SMOOTH",
"476 338 OFFCURVE",
"476 325 OFFCURVE",
"476 308 CURVE SMOOTH",
"476 273 OFFCURVE",
"474 231 OFFCURVE",
"470 189 CURVE SMOOTH",
"466 146 OFFCURVE",
"459 110 OFFCURVE",
"449 88 CURVE SMOOTH",
"444 77 OFFCURVE",
"438 72 OFFCURVE",
"430 72 CURVE SMOOTH"
);
}
);
width = 859;
}
);
leftKerningGroup = O;
rightKerningGroup = O;
unicode = 004F;
},
{
glyphname = Ohorn;
lastChange = "2016-07-08 07:51:01 +0000";
layers = (
{
anchors = (
{
name = bottom;
position = "{430, 0}";
},
{
name = top;
position = "{430, 676}";
}
);
background = {
paths = (
{
closed = 1;
nodes = (
"438 -24 LINE",
"389 -24 LINE",
"293 -17 LINE",
"207 6 LINE",
"132 50 LINE",
"77 125 LINE",
"46 235 LINE",
"46 313 LINE",
"46 415 LINE",
"91 560 LINE",
"188 652 LINE",
"341 695 LINE",
"448 695 LINE",
"484 695 LINE",
"566 683 LINE",
"648 654 LINE",
"723 605 LINE",
"780 529 LINE",
"814 425 LINE",
"814 355 LINE",
"814 275 LINE",
"790 157 LINE",
"743 72 LINE",
"677 19 LINE",
"593 -12 LINE",
"494 -24 LINE"
);
},
{
closed = 1;
nodes = (
"385 327 LINE",
"385 312 LINE",
"385 262 LINE",
"388 206 LINE",
"393 148 LINE",
"403 101 LINE",
"418 72 LINE",
"430 72 LINE",
"441 72 LINE",
"457 105 LINE",
"467 157 LINE",
"473 221 LINE",
"476 282 LINE",
"476 333 LINE",
"476 347 LINE",
"476 352 LINE",
"476 393 LINE",
"473 449 LINE",
"467 512 LINE",
"457 565 LINE",
"441 600 LINE",
"430 600 LINE",
"418 600 LINE",
"403 577 LINE",
"393 536 LINE",
"388 482 LINE",
"385 422 LINE",
"385 357 LINE"
);
},
{
closed = 1;
nodes = (
"852 795 LINE",
"857 777 LINE",
"861 737 LINE",
"861 715 LINE",
"854 669 LINE",
"834 609 LINE",
"801 561 LINE",
"777 537 LINE",
"730 507 LINE",
"680 493 LINE",
"624 488 LINE",
"566 683 LINE",
"631 668 LINE",
"666 673 LINE",
"687 694 LINE",
"698 722 LINE",
"698 739 LINE",
"698 747 LINE",
"695 781 LINE",
"690 799 LINE"
);
}
);
};
layerId = UUID0;
paths = (
{
closed = 1;
nodes = (
"513 -24 OFFCURVE",
"580 -17 OFFCURVE",
"635 3 CURVE SMOOTH",
"691 24 OFFCURVE",
"735 58 OFFCURVE",
"767 115 CURVE SMOOTH",
"797 171 OFFCURVE",
"814 248 OFFCURVE",
"814 355 CURVE SMOOTH",
"814 429 OFFCURVE",
"799 488 OFFCURVE",
"771 541 CURVE",
"775 544 LINE",
"798 561 LINE",
"812 577 OFFCURVE",
"823 593 OFFCURVE",
"831 611 CURVE SMOOTH",
"854 669 LINE",
"861 715 LINE",
"861 737 LINE",
"857 777 LINE",
"852 795 LINE",
"700 799 LINE",
"695 781 LINE",
"698 747 LINE",
"698 739 OFFCURVE",
"700 730 OFFCURVE",
"698 722 CURVE SMOOTH",
"696 713 OFFCURVE",
"691 703 OFFCURVE",
"685 694 CURVE",
"680 687 OFFCURVE",
"673 682 OFFCURVE",
"665 678 CURVE SMOOTH",
"654 673 OFFCURVE",
"643 670 OFFCURVE",
"631 668 CURVE",
"568 681 LINE",
"527 691 OFFCURVE",
"485 695 OFFCURVE",
"448 695 CURVE SMOOTH",
"305 695 OFFCURVE",
"205 667 OFFCURVE",
"140 606 CURVE SMOOTH",
"75 544 OFFCURVE",
"46 449 OFFCURVE",
"46 313 CURVE SMOOTH",
"46 209 OFFCURVE",
"68 138 OFFCURVE",
"104 87 CURVE SMOOTH",
"141 37 OFFCURVE",
"192 10 OFFCURVE",
"250 -5 CURVE SMOOTH",
"308 -21 OFFCURVE",
"373 -24 OFFCURVE",
"438 -24 CURVE SMOOTH"
);
},
{
closed = 1;
nodes = (
"415 72 OFFCURVE",
"404 93 OFFCURVE",
"398 125 CURVE SMOOTH",
"392 156 OFFCURVE",
"388 196 OFFCURVE",
"387 234 CURVE SMOOTH",
"385 271 OFFCURVE",
"385 307 OFFCURVE",
"385 327 CURVE SMOOTH",
"385 368 OFFCURVE",
"385 412 OFFCURVE",
"387 452 CURVE SMOOTH",
"388 493 OFFCURVE",
"392 529 OFFCURVE",
"398 557 CURVE SMOOTH",
"404 583 OFFCURVE",
"415 600 OFFCURVE",
"430 600 CURVE SMOOTH",
"438 600 OFFCURVE",
"444 594 OFFCURVE",
"449 583 CURVE SMOOTH",
"459 559 OFFCURVE",
"466 522 OFFCURVE",
"470 480 CURVE SMOOTH",
"474 438 OFFCURVE",
"476 399 OFFCURVE",
"476 372 CURVE SMOOTH",
"476 347 LINE",
"476 308 LINE SMOOTH",
"476 273 OFFCURVE",
"474 231 OFFCURVE",
"470 189 CURVE SMOOTH",
"466 146 OFFCURVE",
"459 110 OFFCURVE",
"449 88 CURVE SMOOTH",
"444 77 OFFCURVE",
"438 72 OFFCURVE",
"430 72 CURVE SMOOTH"
);
}
);
width = 859;
}
);
leftKerningGroup = O;
rightKerningGroup = O;
unicode = 01A0;
},
{
glyphname = Oslash;
lastChange = "2016-07-08 07:51:01 +0000";
layers = (
{
anchors = (
{
name = bottom;
position = "{451, 0}";
},
{
name = top;
position = "{451, 676}";
}
);
background = {
paths = (
{
closed = 1;
nodes = (
"452 -24 LINE",
"419 -24 LINE",
"353 -21 LINE",
"290 -13 LINE",
"230 3 LINE",
"204 16 LINE",
"178 -10 LINE",
"136 -48 LINE",
"123 -53 LINE",
"113 -51 LINE",
"101 -46 LINE",
"96 -44 LINE",
"86 -35 LINE",
"77 -28 LINE",
"76 -27 LINE",
"64 -21 LINE",
"58 -10 LINE",
"61 1 LINE",
"69 12 LINE",
"74 17 LINE",
"83 27 LINE",
"111 57 LINE",
"128 74 LINE",
"97 112 LINE",
"60 228 LINE",
"60 313 LINE",
"60 415 LINE",
"105 560 LINE",
"203 652 LINE",
"355 695 LINE",
"462 695 LINE",
"490 695 LINE",
"552 688 LINE",
"615 672 LINE",
"677 646 LINE",
"705 625 LINE",
"771 686 LINE",
"778 689 LINE",
"788 688 LINE",
"792 685 LINE",
"798 683 LINE",
"815 671 LINE",
"823 670 LINE",
"834 663 LINE",
"848 654 LINE",
"848 641 LINE",
"832 619 LINE",
"813 599 LINE",
"808 594 LINE",
"802 588 LINE",
"796 583 LINE",
"780 569 LINE",
"771 560 LINE",
"797 522 LINE",
"828 422 LINE",
"828 355 LINE",
"828 275 LINE",
"804 157 LINE",
"757 72 LINE",
"691 19 LINE",
"607 -12 LINE",
"508 -24 LINE"
);
},
{
closed = 1;
nodes = (
"444 600 LINE",
"433 600 LINE",
"418 579 LINE",
"408 543 LINE",
"402 494 LINE",
"400 438 LINE",
"399 378 LINE",
"399 349 LINE",
"488 429 LINE",
"486 457 LINE",
"480 518 LINE",
"470 567 LINE",
"455 600 LINE"
);
},
{
closed = 1;
nodes = (
"401 214 LINE",
"403 188 LINE",
"409 137 LINE",
"419 96 LINE",
"434 72 LINE",
"444 72 LINE",
"453 72 LINE",
"467 94 LINE",
"477 130 LINE",
"483 178 LINE",
"487 229 LINE",
"489 279 LINE",
"490 300 LINE"
);
}
);
};
layerId = UUID0;
paths = (
{
closed = 1;
nodes = (
"141 -46 OFFCURVE",
"169 -19 OFFCURVE",
"204 16 CURVE",
"239 -1 OFFCURVE",
"280 -11 OFFCURVE",
"322 -17 CURVE SMOOTH",
"364 -22 OFFCURVE",
"408 -24 OFFCURVE",
"452 -24 CURVE SMOOTH",
"527 -24 OFFCURVE",
"594 -17 OFFCURVE",
"649 3 CURVE SMOOTH",
"705 24 OFFCURVE",
"750 58 OFFCURVE",
"781 115 CURVE SMOOTH",
"812 171 OFFCURVE",
"828 248 OFFCURVE",
"828 355 CURVE SMOOTH",
"828 444 OFFCURVE",
"806 510 OFFCURVE",
"771 560 CURVE",
"777 566 OFFCURVE",
"783 571 OFFCURVE",
"789 576 CURVE",
"794 581 OFFCURVE",
"798 585 OFFCURVE",
"802 588 CURVE",
"806 592 OFFCURVE",
"810 596 OFFCURVE",
"813 599 CURVE",
"826 612 OFFCURVE",
"834 623 OFFCURVE",
"840 630 CURVE SMOOTH",
"845 638 OFFCURVE",
"848 644 OFFCURVE",
"848 648 CURVE",
"848 657 OFFCURVE",
"838 661 OFFCURVE",
"823 670 CURVE",
"817 671 OFFCURVE",
"812 673 OFFCURVE",
"807 677 CURVE",
"801 681 OFFCURVE",
"796 684 OFFCURVE",
"792 685 CURVE",
"787 688 OFFCURVE",
"780 691 OFFCURVE",
"771 686 CURVE",
"705 625 LINE",
"667 652 OFFCURVE",
"625 669 OFFCURVE",
"583 680 CURVE SMOOTH",
"542 691 OFFCURVE",
"499 695 OFFCURVE",
"462 695 CURVE SMOOTH",
"319 695 OFFCURVE",
"219 667 OFFCURVE",
"154 606 CURVE SMOOTH",
"89 544 OFFCURVE",
"60 449 OFFCURVE",
"60 313 CURVE SMOOTH",
"60 200 OFFCURVE",
"86 125 OFFCURVE",
"128 74 CURVE",
"117 63 OFFCURVE",
"107 52 OFFCURVE",
"98 42 CURVE SMOOTH",
"88 32 OFFCURVE",
"80 23 OFFCURVE",
"74 17 CURVE",
"68 10 OFFCURVE",
"61 3 OFFCURVE",
"60 -4 CURVE",
"58 -12 OFFCURVE",
"61 -20 OFFCURVE",
"76 -27 CURVE",
"76 -28 OFFCURVE",
"78 -29 OFFCURVE",
"82 -32 CURVE SMOOTH",
"85 -34 OFFCURVE",
"90 -38 OFFCURVE",
"96 -44 CURVE",
"100 -45 OFFCURVE",
"103 -47 OFFCURVE",
"107 -48 CURVE SMOOTH",
"111 -50 OFFCURVE",
"116 -52 OFFCURVE",
"123 -53 CURVE"
);
},
{
closed = 1;
nodes = (
"430 72 OFFCURVE",
"420 89 OFFCURVE",
"414 117 CURVE SMOOTH",
"408 144 OFFCURVE",
"403 179 OFFCURVE",
"401 214 CURVE",
"490 300 LINE",
"489 272 OFFCURVE",
"488 237 OFFCURVE",
"485 204 CURVE SMOOTH",
"483 170 OFFCURVE",
"479 137 OFFCURVE",
"472 112 CURVE SMOOTH",
"466 88 OFFCURVE",
"456 72 OFFCURVE",
"444 72 CURVE SMOOTH"
);
},
{
closed = 1;
nodes = (
"399 388 OFFCURVE",
"399 429 OFFCURVE",
"401 466 CURVE SMOOTH",
"403 503 OFFCURVE",
"407 537 OFFCURVE",
"414 561 CURVE SMOOTH",
"420 585 OFFCURVE",
"430 600 OFFCURVE",
"444 600 CURVE SMOOTH",
"451 600 OFFCURVE",
"458 595 OFFCURVE",
"463 584 CURVE",
"468 573 OFFCURVE",
"472 559 OFFCURVE",
"476 542 CURVE SMOOTH",
"482 509 OFFCURVE",
"486 466 OFFCURVE",
"488 429 CURVE",
"399 349 LINE"
);
}
);
width = 901;
}
);
leftKerningGroup = O;
rightKerningGroup = O;
unicode = 00D8;
},
{
glyphname = OE;
lastChange = "2016-07-08 07:51:01 +0000";
layers = (
{
anchors = (
{
name = bottom;
position = "{605, 0}";
},
{
name = top;
position = "{605, 676}";
}
);
background = {
paths = (
{
closed = 1;
nodes = (
"442 -24 LINE",
"394 -24 LINE",
"298 -17 LINE",
"210 6 LINE",
"136 50 LINE",
"81 125 LINE",
"50 235 LINE",
"50 313 LINE",
"50 415 LINE",
"95 560 LINE",
"192 652 LINE",
"345 695 LINE",
"452 695 LINE",
"489 695 LINE",
"572 683 LINE",
"614 668 LINE",
"625 669 LINE",
"646 670 LINE",
"658 670 LINE",
"720 670 LINE",
"832 673 LINE",
"941 675 LINE",
"1058 674 LINE",
"1125 669 LINE",
"1134 669 LINE",
"1145 647 LINE",
"1152 615 LINE",
"1158 576 LINE",
"1163 558 LINE",
"1164 545 LINE",
"1161 534 LINE",
"1156 530 LINE",
"1146 531 LINE",
"1140 531 LINE",
"1115 531 LINE",
"1063 527 LINE",
"1011 522 LINE",
"958 517 LINE",
"932 515 LINE",
"928 515 LINE",
"920 491 LINE",
"916 458 LINE",
"913 426 LINE",
"913 418 LINE",
"913 404 LINE",
"920 397 LINE",
"929 397 LINE",
"974 397 LINE",
"1062 397 LINE",
"1106 393 LINE",
"1114 392 LINE",
"1125 391 LINE",
"1132 388 LINE",
"1138 379 LINE",
"1140 370 LINE",
"1144 281 LINE",
"1144 278 LINE",
"1144 269 LINE",
"1125 259 LINE",
"1092 254 LINE",
"1050 253 LINE",
"1028 253 LINE",
"985 253 LINE",
"937 255 LINE",
"915 250 LINE",
"910 232 LINE",
"910 213 LINE",
"910 194 LINE",
"906 158 LINE",
"907 137 LINE",
"955 137 LINE",
"1052 143 LINE",
"1099 143 LINE",
"1102 143 LINE",
"1110 128 LINE",
"1119 105 LINE",
"1126 77 LINE",
"1133 51 LINE",
"1137 30 LINE",
"1137 26 LINE",
"1137 17 LINE",
"1127 5 LINE",
"1117 5 LINE",
"1081 5 LINE",
"1013 1 LINE",
"975 1 LINE",
"896 1 LINE",
"738 0 LINE",
"659 0 LINE",
"656 0 LINE",
"644 0 LINE",
"636 2 LINE",
"594 -12 LINE",
"497 -24 LINE"
);
},
{
closed = 1;
nodes = (
"389 327 LINE",
"389 312 LINE",
"389 262 LINE",
"392 206 LINE",
"397 148 LINE",
"407 101 LINE",
"423 72 LINE",
"434 72 LINE",
"446 72 LINE",
"461 105 LINE",
"472 157 LINE",
"477 221 LINE",
"479 282 LINE",
"480 333 LINE",
"480 347 LINE",
"480 352 LINE",
"479 393 LINE",
"477 449 LINE",
"472 512 LINE",
"461 565 LINE",
"445 600 LINE",
"434 600 LINE",
"423 600 LINE",
"407 577 LINE",
"397 536 LINE",
"392 482 LINE",
"389 422 LINE",
"389 357 LINE"
);
}
);
};
layerId = UUID0;
paths = (
{
closed = 1;
nodes = (
"516 -24 OFFCURVE",
"581 -17 OFFCURVE",
"636 2 CURVE",
"646 0 OFFCURVE",
"655 0 OFFCURVE",
"659 0 CURVE SMOOTH",
"711 0 OFFCURVE",
"764 0 OFFCURVE",
"817 0 CURVE SMOOTH",
"870 1 OFFCURVE",
"923 1 OFFCURVE",
"975 1 CURVE SMOOTH",
"1000 1 OFFCURVE",
"1024 1 OFFCURVE",
"1047 3 CURVE SMOOTH",
"1069 4 OFFCURVE",
"1093 5 OFFCURVE",
"1117 5 CURVE SMOOTH",
"1131 5 OFFCURVE",
"1137 14 OFFCURVE",
"1137 26 CURVE SMOOTH",
"1137 29 OFFCURVE",
"1136 34 OFFCURVE",
"1135 41 CURVE SMOOTH",
"1132 55 OFFCURVE",
"1128 73 OFFCURVE",
"1123 91 CURVE SMOOTH",
"1117 110 OFFCURVE",
"1112 126 OFFCURVE",
"1106 136 CURVE",
"1104 141 OFFCURVE",
"1101 143 OFFCURVE",
"1099 143 CURVE SMOOTH",
"1067 143 OFFCURVE",
"1036 142 OFFCURVE",
"1003 140 CURVE SMOOTH",
"971 138 OFFCURVE",
"939 137 OFFCURVE",
"907 137 CURVE",
"906 151 OFFCURVE",
"906 164 OFFCURVE",
"908 176 CURVE SMOOTH",
"909 188 OFFCURVE",
"910 201 OFFCURVE",
"910 213 CURVE SMOOTH",
"910 238 OFFCURVE",
"911 249 OFFCURVE",
"926 252 CURVE",
"933 254 OFFCURVE",
"945 254 OFFCURVE",
"961 254 CURVE SMOOTH",
"977 253 OFFCURVE",
"999 253 OFFCURVE",
"1028 253 CURVE SMOOTH",
"1057 253 OFFCURVE",
"1086 253 OFFCURVE",
"1108 257 CURVE SMOOTH",
"1130 260 OFFCURVE",
"1144 266 OFFCURVE",
"1144 278 CURVE SMOOTH",
"1144 281 LINE",
"1140 370 LINE",
"1139 376 OFFCURVE",
"1137 380 OFFCURVE",
"1135 383 CURVE",
"1131 389 OFFCURVE",
"1126 391 OFFCURVE",
"1119 392 CURVE",
"1116 392 OFFCURVE",
"1111 393 OFFCURVE",
"1106 393 CURVE SMOOTH",
"1077 396 OFFCURVE",
"1047 397 OFFCURVE",
"1018 397 CURVE SMOOTH",
"989 397 OFFCURVE",
"959 397 OFFCURVE",
"929 397 CURVE SMOOTH",
"917 397 OFFCURVE",
"913 400 OFFCURVE",
"913 418 CURVE SMOOTH",
"913 423 OFFCURVE",
"914 431 OFFCURVE",
"915 442 CURVE SMOOTH",
"916 463 OFFCURVE",
"919 487 OFFCURVE",
"924 503 CURVE SMOOTH",
"927 511 OFFCURVE",
"929 515 OFFCURVE",
"932 515 CURVE",
"949 516 OFFCURVE",
"967 518 OFFCURVE",
"984 520 CURVE SMOOTH",
"1002 521 OFFCURVE",
"1020 523 OFFCURVE",
"1037 524 CURVE SMOOTH",
"1072 528 OFFCURVE",
"1107 531 OFFCURVE",
"1140 531 CURVE SMOOTH",
"1145 531 OFFCURVE",
"1148 531 OFFCURVE",
"1151 530 CURVE",
"1157 530 OFFCURVE",
"1161 532 OFFCURVE",
"1163 540 CURVE",
"1163 543 OFFCURVE",
"1164 550 OFFCURVE",
"1163 558 CURVE",
"1160 570 OFFCURVE",
"1157 582 OFFCURVE",
"1155 595 CURVE",
"1153 608 OFFCURVE",
"1151 620 OFFCURVE",
"1148 631 CURVE SMOOTH",
"1144 653 OFFCURVE",
"1137 669 OFFCURVE",
"1125 669 CURVE",
"1080 672 OFFCURVE",
"1038 674 OFFCURVE",
"1000 675 CURVE SMOOTH",
"922 676 OFFCURVE",
"850 674 OFFCURVE",
"776 672 CURVE SMOOTH",
"739 670 OFFCURVE",
"699 670 OFFCURVE",
"658 670 CURVE SMOOTH",
"643 670 OFFCURVE",
"628 670 OFFCURVE",
"614 668 CURVE",
"559 688 OFFCURVE",
"501 695 OFFCURVE",
"452 695 CURVE SMOOTH",
"309 695 OFFCURVE",
"208 667 OFFCURVE",
"144 606 CURVE SMOOTH",
"79 544 OFFCURVE",
"50 449 OFFCURVE",
"50 313 CURVE SMOOTH",
"50 209 OFFCURVE",
"72 138 OFFCURVE",
"108 87 CURVE SMOOTH",
"145 37 OFFCURVE",
"196 10 OFFCURVE",
"254 -5 CURVE SMOOTH",
"313 -21 OFFCURVE",
"377 -24 OFFCURVE",
"442 -24 CURVE SMOOTH"
);
},
{
closed = 1;
nodes = (
"419 72 OFFCURVE",
"409 93 OFFCURVE",
"402 125 CURVE SMOOTH",
"396 156 OFFCURVE",
"392 196 OFFCURVE",
"391 234 CURVE SMOOTH",
"389 271 OFFCURVE",
"389 307 OFFCURVE",
"389 327 CURVE SMOOTH",
"389 368 OFFCURVE",
"389 412 OFFCURVE",
"391 452 CURVE SMOOTH",
"392 493 OFFCURVE",
"396 529 OFFCURVE",
"402 557 CURVE SMOOTH",
"409 583 OFFCURVE",
"419 600 OFFCURVE",
"434 600 CURVE SMOOTH",
"441 600 OFFCURVE",
"448 594 OFFCURVE",
"454 583 CURVE SMOOTH",
"464 559 OFFCURVE",
"471 522 OFFCURVE",
"475 480 CURVE SMOOTH",
"478 438 OFFCURVE",
"479 399 OFFCURVE",
"480 372 CURVE SMOOTH",
"480 358 OFFCURVE",
"480 350 OFFCURVE",
"480 347 CURVE SMOOTH",
"480 338 OFFCURVE",
"480 325 OFFCURVE",
"480 308 CURVE SMOOTH",
"479 273 OFFCURVE",
"478 231 OFFCURVE",
"475 189 CURVE SMOOTH",
"471 146 OFFCURVE",
"464 110 OFFCURVE",
"454 88 CURVE SMOOTH",
"448 77 OFFCURVE",
"442 72 OFFCURVE",
"434 72 CURVE SMOOTH"
);
}
);
width = 1210;
}
);
leftKerningGroup = O;
rightKerningGroup = E;
unicode = 0152;
},
{
glyphname = P;
lastChange = "2016-07-08 07:51:01 +0000";
layers = (
{
anchors = (
{
name = bottom;
position = "{420, 0}";
},
{
name = top;
position = "{420, 676}";
}
);
background = {
paths = (
{
closed = 1;
nodes = (
"58 645 LINE",
"58 654 LINE",
"75 671 LINE",
"84 671 LINE",
"151 671 LINE",
"248 669 LINE",
"283 669 LINE",
"337 669 LINE",
"461 672 LINE",
"535 672 LINE",
"562 672 LINE",
"624 665 LINE",
"686 645 LINE",
"742 612 LINE",
"785 561 LINE",
"811 490 LINE",
"811 442 LINE",
"811 363 LINE",
"771 255 LINE",
"698 188 LINE",
"594 159 LINE",
"531 159 LINE",
"394 159 LINE",
"395 142 LINE",
"395 120 LINE",
"395 100 LINE",
"394 75 LINE",
"394 55 LINE",
"394 37 LINE",
"387 17 LINE",
"373 6 LINE",
"352 4 LINE",
"339 4 LINE",
"304 4 LINE",
"252 3 LINE",
"199 2 LINE",
"136 1 LINE",
"90 1 LINE",
"81 1 LINE",
"70 13 LINE",
"64 31 LINE",
"63 52 LINE",
"63 62 LINE",
"63 85 LINE",
"62 167 LINE",
"60 267 LINE",
"58 375 LINE",
"58 425 LINE"
);
},
{
closed = 1;
nodes = (
"402 282 LINE",
"402 281 LINE",
"407 280 LINE",
"411 279 LINE",
"430 279 LINE",
"447 279 LINE",
"458 279 LINE",
"474 301 LINE",
"484 336 LINE",
"490 379 LINE",
"492 420 LINE",
"493 455 LINE",
"493 464 LINE",
"493 465 LINE",
"492 483 LINE",
"490 509 LINE",
"484 537 LINE",
"474 561 LINE",
"458 577 LINE",
"447 577 LINE",
"438 577 LINE",
"425 552 LINE",
"416 510 LINE",
"409 458 LINE",
"407 430 LINE",
"402 365 LINE"
);
}
);
};
layerId = UUID0;
paths = (
{
closed = 1;
nodes = (
"121 1 OFFCURVE",
"146 1 OFFCURVE",
"167 1 CURVE SMOOTH",
"209 2 OFFCURVE",
"243 3 OFFCURVE",
"278 3 CURVE SMOOTH",
"295 4 OFFCURVE",
"316 4 OFFCURVE",
"339 4 CURVE SMOOTH",
"356 4 OFFCURVE",
"370 5 OFFCURVE",
"380 12 CURVE SMOOTH",
"389 19 OFFCURVE",
"394 31 OFFCURVE",
"394 55 CURVE SMOOTH",
"394 82 OFFCURVE",
"395 96 OFFCURVE",
"395 110 CURVE",
"395 124 OFFCURVE",
"395 136 OFFCURVE",
"394 159 CURVE",
"531 159 LINE SMOOTH",
"615 159 OFFCURVE",
"686 177 OFFCURVE",
"734 222 CURVE SMOOTH",
"783 266 OFFCURVE",
"811 337 OFFCURVE",
"811 442 CURVE SMOOTH",
"811 506 OFFCURVE",
"792 553 OFFCURVE",
"764 586 CURVE SMOOTH",
"735 620 OFFCURVE",
"696 642 OFFCURVE",
"655 655 CURVE SMOOTH",
"614 668 OFFCURVE",
"571 672 OFFCURVE",
"535 672 CURVE SMOOTH",
"485 672 OFFCURVE",
"440 671 OFFCURVE",
"399 670 CURVE SMOOTH",
"358 669 OFFCURVE",
"319 669 OFFCURVE",
"283 669 CURVE SMOOTH",
"259 669 OFFCURVE",
"231 669 OFFCURVE",
"199 670 CURVE SMOOTH",
"167 670 OFFCURVE",
"128 671 OFFCURVE",
"84 671 CURVE SMOOTH",
"72 671 OFFCURVE",
"58 657 OFFCURVE",
"58 645 CURVE SMOOTH",
"58 425 LINE SMOOTH",
"58 358 OFFCURVE",
"59 283 OFFCURVE",
"61 217 CURVE SMOOTH",
"62 150 OFFCURVE",
"63 93 OFFCURVE",
"63 62 CURVE SMOOTH",
"63 49 OFFCURVE",
"63 34 OFFCURVE",
"67 22 CURVE",
"71 10 OFFCURVE",
"78 1 OFFCURVE",
"90 1 CURVE SMOOTH"
);
},
{
closed = 1;
nodes = (
"414 279 OFFCURVE",
"410 280 OFFCURVE",
"407 280 CURVE",
"404 281 OFFCURVE",
"402 282 OFFCURVE",
"402 282 CURVE SMOOTH",
"402 337 OFFCURVE",
"404 386 OFFCURVE",
"407 430 CURVE SMOOTH",
"409 448 OFFCURVE",
"410 466 OFFCURVE",
"413 484 CURVE SMOOTH",
"417 519 OFFCURVE",
"423 547 OFFCURVE",
"432 564 CURVE SMOOTH",
"437 573 OFFCURVE",
"441 577 OFFCURVE",
"447 577 CURVE SMOOTH",
"454 577 OFFCURVE",
"461 575 OFFCURVE",
"466 569 CURVE SMOOTH",
"477 559 OFFCURVE",
"483 542 OFFCURVE",
"487 523 CURVE SMOOTH",
"491 504 OFFCURVE",
"492 486 OFFCURVE",
"493 475 CURVE",
"493 468 OFFCURVE",
"493 465 OFFCURVE",
"493 464 CURVE SMOOTH",
"493 452 OFFCURVE",
"493 427 OFFCURVE",
"491 399 CURVE SMOOTH",
"489 372 OFFCURVE",
"486 342 OFFCURVE",
"479 319 CURVE SMOOTH",
"473 295 OFFCURVE",
"462 279 OFFCURVE",
"447 279 CURVE SMOOTH",
"436 279 OFFCURVE",
"427 279 OFFCURVE",
"420 279 CURVE"
);
}
);
width = 839;
}
);
leftKerningGroup = H;
rightKerningGroup = P;
unicode = 0050;
},
{
glyphname = Thorn;
lastChange = "2016-07-08 07:51:01 +0000";
layers = (
{
background = {
paths = (
{
closed = 1;
nodes = (
"58 404 LINE",
"58 441 LINE",
"60 520 LINE",
"61 589 LINE",
"63 646 LINE",
"63 662 LINE",
"63 671 LINE",
"64 693 LINE",
"69 711 LINE",
"80 723 LINE",
"89 723 LINE",
"135 723 LINE",
"198 722 LINE",
"251 721 LINE",
"304 720 LINE",
"338 720 LINE",
"352 720 LINE",
"372 717 LINE",
"386 707 LINE",
"394 687 LINE",
"394 668 LINE",
"394 657 LINE",
"394 642 LINE",
"394 629 LINE",
"395 618 LINE",
"395 612 LINE",
"427 612 LINE",
"496 613 LINE",
"534 613 LINE",
"562 613 LINE",
"624 607 LINE",
"685 591 LINE",
"742 563 LINE",
"785 519 LINE",
"811 458 LINE",
"811 417 LINE",
"811 345 LINE",
"771 247 LINE",
"697 186 LINE",
"594 159 LINE",
"530 159 LINE",
"394 159 LINE",
"394 139 LINE",
"395 113 LINE",
"394 88 LINE",
"394 59 LINE",
"394 36 LINE",
"394 18 LINE",
"386 -3 LINE",
"372 -13 LINE",
"352 -16 LINE",
"338 -16 LINE",
"304 -16 LINE",
"251 -17 LINE",
"198 -18 LINE",
"135 -19 LINE",
"89 -19 LINE",
"80 -19 LINE",
"69 -7 LINE",
"64 11 LINE",
"63 33 LINE",
"63 42 LINE",
"63 63 LINE",
"61 130 LINE",
"60 214 LINE",
"58 307 LINE",
"58 353 LINE",
"58 383 LINE",
"58 400 LINE"
);
},
{
closed = 1;
nodes = (
"401 258 LINE",
"401 257 LINE",
"407 256 LINE",
"411 255 LINE",
"429 254 LINE",
"446 254 LINE",
"458 254 LINE",
"474 277 LINE",
"484 312 LINE",
"489 354 LINE",
"492 396 LINE",
"492 430 LINE",
"492 439 LINE",
"492 440 LINE",
"492 453 LINE",
"488 471 LINE",
"479 491 LINE",
"463 507 LINE",
"439 519 LINE",
"422 519 LINE",
"418 519 LINE",
"412 496 LINE",
"408 459 LINE",
"405 413 LINE",
"404 388 LINE",
"402 331 LINE"
);
}
);
};
layerId = UUID0;
paths = (
{
closed = 1;
nodes = (
"120 -19 OFFCURVE",
"146 -19 OFFCURVE",
"167 -18 CURVE SMOOTH",
"209 -18 OFFCURVE",
"243 -17 OFFCURVE",
"278 -16 CURVE SMOOTH",
"295 -16 OFFCURVE",
"315 -16 OFFCURVE",
"338 -16 CURVE SMOOTH",
"356 -16 OFFCURVE",
"370 -15 OFFCURVE",
"379 -8 CURVE SMOOTH",
"389 -1 OFFCURVE",
"394 12 OFFCURVE",
"394 36 CURVE SMOOTH",
"394 67 OFFCURVE",
"394 84 OFFCURVE",
"395 101 CURVE SMOOTH",
"395 117 OFFCURVE",
"394 132 OFFCURVE",
"394 159 CURVE",
"530 159 LINE SMOOTH",
"615 159 OFFCURVE",
"685 175 OFFCURVE",
"734 216 CURVE SMOOTH",
"783 257 OFFCURVE",
"811 321 OFFCURVE",
"811 417 CURVE SMOOTH",
"811 472 OFFCURVE",
"792 512 OFFCURVE",
"763 541 CURVE SMOOTH",
"734 570 OFFCURVE",
"695 588 OFFCURVE",
"654 599 CURVE SMOOTH",
"613 610 OFFCURVE",
"571 613 OFFCURVE",
"534 613 CURVE SMOOTH",
"483 613 OFFCURVE",
"438 612 OFFCURVE",
"395 612 CURVE",
"395 616 OFFCURVE",
"395 620 OFFCURVE",
"395 624 CURVE",
"394 627 OFFCURVE",
"394 631 OFFCURVE",
"394 636 CURVE SMOOTH",
"394 640 OFFCURVE",
"394 644 OFFCURVE",
"394 649 CURVE",
"394 655 OFFCURVE",
"394 661 OFFCURVE",
"394 668 CURVE SMOOTH",
"394 692 OFFCURVE",
"389 706 OFFCURVE",
"379 712 CURVE SMOOTH",
"370 719 OFFCURVE",
"356 720 OFFCURVE",
"338 720 CURVE SMOOTH",
"315 720 OFFCURVE",
"295 720 OFFCURVE",
"278 720 CURVE SMOOTH",
"260 721 OFFCURVE",
"243 721 OFFCURVE",
"225 721 CURVE SMOOTH",
"189 722 OFFCURVE",
"150 723 OFFCURVE",
"89 723 CURVE SMOOTH",
"77 723 OFFCURVE",
"70 714 OFFCURVE",
"67 702 CURVE SMOOTH",
"63 690 OFFCURVE",
"63 675 OFFCURVE",
"63 662 CURVE SMOOTH",
"63 651 OFFCURVE",
"63 636 OFFCURVE",
"62 617 CURVE SMOOTH",
"62 598 OFFCURVE",
"61 577 OFFCURVE",
"61 554 CURVE SMOOTH",
"60 508 OFFCURVE",
"58 454 OFFCURVE",
"58 404 CURVE SMOOTH",
"58 400 LINE",
"58 383 LINE",
"58 353 LINE SMOOTH",
"58 322 OFFCURVE",
"59 292 OFFCURVE",
"59 261 CURVE SMOOTH",
"60 198 OFFCURVE",
"61 142 OFFCURVE",
"62 97 CURVE SMOOTH",
"63 74 OFFCURVE",
"63 56 OFFCURVE",
"63 42 CURVE SMOOTH",
"63 29 OFFCURVE",
"63 14 OFFCURVE",
"67 2 CURVE",
"70 -10 OFFCURVE",
"77 -19 OFFCURVE",
"89 -19 CURVE SMOOTH"
);
},
{
closed = 1;
nodes = (
"435 254 OFFCURVE",
"426 254 OFFCURVE",
"420 255 CURVE",
"414 255 OFFCURVE",
"409 255 OFFCURVE",
"407 256 CURVE",
"403 256 OFFCURVE",
"401 257 OFFCURVE",
"401 258 CURVE SMOOTH",
"402 306 OFFCURVE",
"402 350 OFFCURVE",
"404 388 CURVE SMOOTH",
"404 404 OFFCURVE",
"405 420 OFFCURVE",
"406 436 CURVE SMOOTH",
"408 467 OFFCURVE",
"411 492 OFFCURVE",
"415 507 CURVE SMOOTH",
"417 515 OFFCURVE",
"419 519 OFFCURVE",
"422 519 CURVE SMOOTH",
"434 519 OFFCURVE",
"443 517 OFFCURVE",
"452 513 CURVE",
"467 505 OFFCURVE",
"478 494 OFFCURVE",
"483 481 CURVE SMOOTH",
"489 467 OFFCURVE",
"492 455 OFFCURVE",
"492 447 CURVE",
"492 442 OFFCURVE",
"492 440 OFFCURVE",
"492 439 CURVE SMOOTH",
"492 427 OFFCURVE",
"492 402 OFFCURVE",
"491 375 CURVE SMOOTH",
"489 348 OFFCURVE",
"486 317 OFFCURVE",
"479 294 CURVE SMOOTH",
"472 271 OFFCURVE",
"461 254 OFFCURVE",
"446 254 CURVE SMOOTH"
);
}
);
width = 828;
}
);
leftKerningGroup = H;
rightKerningGroup = Thorn;
unicode = 00DE;
},
{
glyphname = Q;
lastChange = "2016-07-08 07:51:01 +0000";
layers = (
{
background = {
paths = (
{
closed = 1;
nodes = (
"799 355 LINE",
"799 273 LINE",
"773 154 LINE",
"726 69 LINE",
"658 16 LINE",
"615 1 LINE",
"626 -14 LINE",
"650 -47 LINE",
"669 -77 LINE",
"681 -102 LINE",
"681 -109 LINE",
"681 -119 LINE",
"661 -137 LINE",
"633 -154 LINE",
"605 -169 LINE",
"596 -176 LINE",
"587 -178 LINE",
"568 -185 LINE",
"558 -187 LINE",
"556 -188 LINE",
"534 -196 LINE",
"507 -203 LINE",
"485 -208 LINE",
"483 -208 LINE",
"482 -212 LINE",
"475 -212 LINE",
"475 -213 LINE",
"470 -212 LINE",
"462 -208 LINE",
"450 -198 LINE",
"441 -189 LINE",
"438 -184 LINE",
"436 -183 LINE",
"435 -183 LINE",
"434 -182 LINE",
"431 -181 LINE",
"429 -177 LINE",
"350 -47 LINE",
"349 -44 LINE",
"340 -29 LINE",
"335 -21 LINE",
"294 -18 LINE",
"218 -3 LINE",
"150 27 LINE",
"94 76 LINE",
"53 148 LINE",
"31 247 LINE",
"31 313 LINE",
"31 415 LINE",
"76 560 LINE",
"173 652 LINE",
"326 695 LINE",
"433 695 LINE",
"469 695 LINE",
"552 683 LINE",
"633 654 LINE",
"708 605 LINE",
"765 529 LINE",
"799 425 LINE"
);
},
{
closed = 1;
nodes = (
"370 327 LINE",
"370 312 LINE",
"371 262 LINE",
"373 206 LINE",
"378 148 LINE",
"388 101 LINE",
"404 72 LINE",
"415 72 LINE",
"426 72 LINE",
"442 105 LINE",
"453 157 LINE",
"458 221 LINE",
"460 282 LINE",
"461 333 LINE",
"461 347 LINE",
"461 352 LINE",
"460 393 LINE",
"458 449 LINE",
"453 512 LINE",
"442 565 LINE",
"426 600 LINE",
"415 600 LINE",
"404 600 LINE",
"388 577 LINE",
"378 536 LINE",
"373 482 LINE",
"371 422 LINE",
"370 357 LINE"
);
}
);
};
layerId = UUID0;
paths = (
{
closed = 1;
nodes = (
"475 -212 OFFCURVE",
"476 -212 OFFCURVE",
"479 -212 CURVE SMOOTH",
"481 -212 OFFCURVE",
"482 -211 OFFCURVE",
"483 -208 CURVE",
"484 -208 OFFCURVE",
"489 -208 OFFCURVE",
"496 -206 CURVE",
"511 -202 OFFCURVE",
"530 -197 OFFCURVE",
"545 -192 CURVE SMOOTH",
"552 -189 OFFCURVE",
"557 -188 OFFCURVE",
"558 -187 CURVE",
"565 -186 OFFCURVE",
"571 -184 OFFCURVE",
"578 -181 CURVE",
"584 -179 OFFCURVE",
"590 -177 OFFCURVE",
"596 -176 CURVE",
"602 -171 OFFCURVE",
"610 -167 OFFCURVE",
"619 -161 CURVE",
"628 -156 OFFCURVE",
"638 -151 OFFCURVE",
"647 -146 CURVE SMOOTH",
"665 -134 OFFCURVE",
"681 -123 OFFCURVE",
"681 -109 CURVE",
"681 -100 OFFCURVE",
"672 -82 OFFCURVE",
"660 -62 CURVE SMOOTH",
"647 -42 OFFCURVE",
"630 -19 OFFCURVE",
"615 1 CURVE",
"672 21 OFFCURVE",
"718 55 OFFCURVE",
"750 112 CURVE SMOOTH",
"781 168 OFFCURVE",
"799 246 OFFCURVE",
"799 355 CURVE SMOOTH",
"799 448 OFFCURVE",
"774 517 OFFCURVE",
"736 567 CURVE SMOOTH",
"698 618 OFFCURVE",
"646 649 OFFCURVE",
"592 669 CURVE SMOOTH",
"538 688 OFFCURVE",
"481 695 OFFCURVE",
"433 695 CURVE SMOOTH",
"290 695 OFFCURVE",
"189 667 OFFCURVE",
"125 606 CURVE SMOOTH",
"60 544 OFFCURVE",
"31 449 OFFCURVE",
"31 313 CURVE SMOOTH",
"31 225 OFFCURVE",
"46 160 OFFCURVE",
"74 112 CURVE SMOOTH",
"101 63 OFFCURVE",
"139 32 OFFCURVE",
"184 12 CURVE SMOOTH",
"229 -8 OFFCURVE",
"281 -17 OFFCURVE",
"335 -21 CURVE",
"342 -32 OFFCURVE",
"348 -43 OFFCURVE",
"350 -47 CURVE",
"429 -177 LINE SMOOTH",
"430 -179 OFFCURVE",
"432 -181 OFFCURVE",
"433 -181 CURVE",
"434 -182 OFFCURVE",
"436 -183 OFFCURVE",
"438 -183 CURVE",
"438 -184 OFFCURVE",
"439 -186 OFFCURVE",
"441 -189 CURVE",
"453 -201 OFFCURVE",
"460 -207 OFFCURVE",
"466 -209 CURVE",
"469 -211 OFFCURVE",
"471 -212 OFFCURVE",
"473 -212 CURVE SMOOTH",
"474 -213 OFFCURVE",
"475 -213 OFFCURVE",
"475 -213 CURVE"
);
},
{
closed = 1;
nodes = (
"400 72 OFFCURVE",
"390 93 OFFCURVE",
"383 125 CURVE SMOOTH",
"377 156 OFFCURVE",
"374 196 OFFCURVE",
"372 234 CURVE SMOOTH",
"370 271 OFFCURVE",
"370 307 OFFCURVE",
"370 327 CURVE SMOOTH",
"370 368 OFFCURVE",
"370 412 OFFCURVE",
"372 452 CURVE SMOOTH",
"374 493 OFFCURVE",
"377 529 OFFCURVE",
"383 557 CURVE SMOOTH",
"390 583 OFFCURVE",
"400 600 OFFCURVE",
"415 600 CURVE SMOOTH",
"422 600 OFFCURVE",
"429 594 OFFCURVE",
"435 583 CURVE SMOOTH",
"445 559 OFFCURVE",
"452 522 OFFCURVE",
"456 480 CURVE SMOOTH",
"459 438 OFFCURVE",
"460 399 OFFCURVE",
"461 372 CURVE SMOOTH",
"461 358 OFFCURVE",
"461 350 OFFCURVE",
"461 347 CURVE SMOOTH",
"461 338 OFFCURVE",
"461 325 OFFCURVE",
"461 308 CURVE SMOOTH",
"460 273 OFFCURVE",
"459 231 OFFCURVE",
"456 189 CURVE SMOOTH",
"452 146 OFFCURVE",
"445 110 OFFCURVE",
"435 88 CURVE SMOOTH",
"429 77 OFFCURVE",
"422 72 OFFCURVE",
"415 72 CURVE SMOOTH"
);
}
);
width = 839;
}
);
leftKerningGroup = O;
rightKerningGroup = O;
unicode = 0051;
},
{
glyphname = R;
lastChange = "2016-07-08 07:51:01 +0000";
layers = (
{
anchors = (
{
name = bottom;
position = "{437, 0}";
},
{
name = top;
position = "{437, 676}";
}
);
background = {
paths = (
{
closed = 1;
nodes = (
"562 -13 LINE",
"560 -8 LINE",
"557 -6 LINE",
"556 -6 LINE",
"555 -6 LINE",
"553 -4 LINE",
"550 -1 LINE",
"465 125 LINE",
"463 128 LINE",
"453 145 LINE",
"441 161 LINE",
"430 174 LINE",
"427 174 LINE",
"423 174 LINE",
"419 149 LINE",
"418 112 LINE",
"417 68 LINE",
"415 31 LINE",
"410 6 LINE",
"404 6 LINE",
"400 6 LINE",
"394 7 LINE",
"393 7 LINE",
"339 4 LINE",
"237 -2 LINE",
"184 -2 LINE",
"177 -2 LINE",
"156 -1 LINE",
"135 -1 LINE",
"120 -1 LINE",
"119 -1 LINE",
"83 11 LINE",
"80 19 LINE",
"77 42 LINE",
"74 78 LINE",
"71 124 LINE",
"67 170 LINE",
"64 213 LINE",
"63 228 LINE",
"61 266 LINE",
"55 345 LINE",
"55 383 LINE",
"55 385 LINE",
"57 403 LINE",
"58 422 LINE",
"60 439 LINE",
"60 442 LINE",
"60 475 LINE",
"54 533 LINE",
"54 567 LINE",
"54 590 LINE",
"57 633 LINE",
"65 666 LINE",
"80 686 LINE",
"91 686 LINE",
"146 686 LINE",
"262 685 LINE",
"380 682 LINE",
"496 678 LINE",
"549 677 LINE",
"617 675 LINE",
"713 641 LINE",
"774 586 LINE",
"803 516 LINE",
"803 478 LINE",
"803 452 LINE",
"793 410 LINE",
"777 375 LINE",
"757 347 LINE",
"746 336 LINE",
"721 311 LINE",
"689 296 LINE",
"697 289 LINE",
"705 282 LINE",
"712 276 LINE",
"726 264 LINE",
"732 260 LINE",
"737 253 LINE",
"757 229 LINE",
"782 199 LINE",
"808 166 LINE",
"830 135 LINE",
"843 110 LINE",
"843 103 LINE",
"843 93 LINE",
"824 74 LINE",
"797 56 LINE",
"769 40 LINE",
"760 32 LINE",
"742 23 LINE",
"703 1 LINE",
"680 -6 LINE",
"679 -6 LINE",
"666 -11 LINE",
"649 -17 LINE",
"630 -23 LINE",
"615 -28 LINE",
"605 -30 LINE",
"605 -29 LINE",
"603 -34 LINE",
"598 -34 LINE",
"597 -34 LINE",
"593 -34 LINE",
"584 -30 LINE",
"571 -22 LINE"
);
},
{
closed = 1;
nodes = (
"406 322 LINE",
"406 321 LINE",
"409 320 LINE",
"411 319 LINE",
"421 319 LINE",
"431 319 LINE",
"448 319 LINE",
"473 336 LINE",
"488 364 LINE",
"497 397 LINE",
"501 430 LINE",
"501 457 LINE",
"501 464 LINE",
"501 465 LINE",
"501 483 LINE",
"497 509 LINE",
"488 537 LINE",
"473 561 LINE",
"448 577 LINE",
"431 577 LINE",
"426 577 LINE",
"418 555 LINE",
"414 519 LINE",
"410 473 LINE",
"409 449 LINE",
"406 393 LINE"
);
}
);
};
layerId = UUID0;
paths = (
{
closed = 1;
nodes = (
"596 -34 OFFCURVE",
"597 -34 OFFCURVE",
"597 -34 CURVE SMOOTH",
"598 -34 OFFCURVE",
"599 -34 OFFCURVE",
"601 -34 CURVE SMOOTH",
"602 -34 OFFCURVE",
"604 -32 OFFCURVE",
"605 -29 CURVE",
"605 -29 OFFCURVE",
"606 -29 OFFCURVE",
"610 -29 CURVE SMOOTH",
"613 -28 OFFCURVE",
"617 -27 OFFCURVE",
"623 -25 CURVE SMOOTH",
"628 -24 OFFCURVE",
"634 -22 OFFCURVE",
"640 -20 CURVE SMOOTH",
"653 -16 OFFCURVE",
"664 -12 OFFCURVE",
"672 -9 CURVE",
"677 -7 OFFCURVE",
"679 -6 OFFCURVE",
"680 -6 CURVE",
"695 -1 OFFCURVE",
"709 5 OFFCURVE",
"723 12 CURVE SMOOTH",
"736 20 OFFCURVE",
"748 26 OFFCURVE",
"760 32 CURVE",
"766 37 OFFCURVE",
"774 42 OFFCURVE",
"783 48 CURVE SMOOTH",
"792 53 OFFCURVE",
"802 59 OFFCURVE",
"811 65 CURVE SMOOTH",
"829 77 OFFCURVE",
"843 89 OFFCURVE",
"843 103 CURVE SMOOTH",
"843 107 OFFCURVE",
"841 114 OFFCURVE",
"836 123 CURVE SMOOTH",
"827 140 OFFCURVE",
"813 160 OFFCURVE",
"795 182 CURVE SMOOTH",
"777 204 OFFCURVE",
"761 225 OFFCURVE",
"748 241 CURVE SMOOTH",
"741 250 OFFCURVE",
"736 255 OFFCURVE",
"732 260 CURVE",
"728 262 OFFCURVE",
"724 266 OFFCURVE",
"719 270 CURVE",
"714 274 OFFCURVE",
"709 278 OFFCURVE",
"705 282 CURVE",
"700 287 OFFCURVE",
"695 292 OFFCURVE",
"689 296 CURVE",
"710 306 OFFCURVE",
"729 319 OFFCURVE",
"746 336 CURVE SMOOTH",
"760 350 OFFCURVE",
"775 369 OFFCURVE",
"786 392 CURVE SMOOTH",
"796 416 OFFCURVE",
"803 443 OFFCURVE",
"803 478 CURVE SMOOTH",
"803 529 OFFCURVE",
"785 577 OFFCURVE",
"744 613 CURVE SMOOTH",
"703 650 OFFCURVE",
"639 674 OFFCURVE",
"549 677 CURVE SMOOTH",
"514 678 OFFCURVE",
"477 679 OFFCURVE",
"438 680 CURVE SMOOTH",
"399 681 OFFCURVE",
"360 682 OFFCURVE",
"321 683 CURVE SMOOTH",
"243 685 OFFCURVE",
"164 686 OFFCURVE",
"91 686 CURVE SMOOTH",
"76 686 OFFCURVE",
"66 671 OFFCURVE",
"61 650 CURVE SMOOTH",
"55 628 OFFCURVE",
"54 598 OFFCURVE",
"54 567 CURVE SMOOTH",
"54 544 OFFCURVE",
"55 523 OFFCURVE",
"57 504 CURVE SMOOTH",
"59 484 OFFCURVE",
"60 464 OFFCURVE",
"60 442 CURVE SMOOTH",
"60 440 OFFCURVE",
"60 437 OFFCURVE",
"59 431 CURVE SMOOTH",
"59 425 OFFCURVE",
"58 419 OFFCURVE",
"58 413 CURVE SMOOTH",
"57 406 OFFCURVE",
"57 400 OFFCURVE",
"56 394 CURVE SMOOTH",
"56 388 OFFCURVE",
"55 384 OFFCURVE",
"55 383 CURVE SMOOTH",
"55 357 OFFCURVE",
"56 332 OFFCURVE",
"58 306 CURVE SMOOTH",
"60 279 OFFCURVE",
"62 253 OFFCURVE",
"63 228 CURVE SMOOTH",
"64 218 OFFCURVE",
"65 206 OFFCURVE",
"66 191 CURVE SMOOTH",
"68 163 OFFCURVE",
"70 132 OFFCURVE",
"73 101 CURVE SMOOTH",
"75 70 OFFCURVE",
"77 46 OFFCURVE",
"79 31 CURVE",
"79 23 OFFCURVE",
"80 19 OFFCURVE",
"80 19 CURVE",
"83 11 LINE",
"119 -1 LINE",
"120 -1 OFFCURVE",
"122 -1 OFFCURVE",
"127 -1 CURVE",
"133 -1 OFFCURVE",
"139 -1 OFFCURVE",
"146 -1 CURVE SMOOTH",
"152 -1 OFFCURVE",
"159 -1 OFFCURVE",
"167 -1 CURVE",
"174 -2 OFFCURVE",
"179 -2 OFFCURVE",
"184 -2 CURVE SMOOTH",
"219 -2 OFFCURVE",
"254 -1 OFFCURVE",
"288 1 CURVE SMOOTH",
"322 3 OFFCURVE",
"357 5 OFFCURVE",
"393 7 CURVE",
"393 7 OFFCURVE",
"395 7 OFFCURVE",
"397 6 CURVE SMOOTH",
"399 6 OFFCURVE",
"402 6 OFFCURVE",
"404 6 CURVE SMOOTH",
"408 6 OFFCURVE",
"411 10 OFFCURVE",
"413 19 CURVE SMOOTH",
"416 35 OFFCURVE",
"417 61 OFFCURVE",
"418 90 CURVE SMOOTH",
"418 119 OFFCURVE",
"419 145 OFFCURVE",
"421 162 CURVE SMOOTH",
"422 170 OFFCURVE",
"424 174 OFFCURVE",
"427 174 CURVE SMOOTH",
"429 174 OFFCURVE",
"432 172 OFFCURVE",
"436 167 CURVE",
"439 163 OFFCURVE",
"443 158 OFFCURVE",
"447 153 CURVE",
"455 142 OFFCURVE",
"463 129 OFFCURVE",
"465 125 CURVE",
"550 -1 LINE",
"552 -3 OFFCURVE",
"553 -4 OFFCURVE",
"554 -5 CURVE",
"555 -5 OFFCURVE",
"556 -6 OFFCURVE",
"556 -6 CURVE SMOOTH",
"557 -6 OFFCURVE",
"558 -6 OFFCURVE",
"559 -7 CURVE SMOOTH",
"560 -7 OFFCURVE",
"561 -10 OFFCURVE",
"562 -13 CURVE",
"574 -25 OFFCURVE",
"583 -30 OFFCURVE",
"588 -32 CURVE",
"591 -34 OFFCURVE",
"593 -34 OFFCURVE",
"595 -34 CURVE SMOOTH"
);
},
{
closed = 1;
nodes = (
"413 319 OFFCURVE",
"410 320 OFFCURVE",
"409 320 CURVE SMOOTH",
"407 321 OFFCURVE",
"406 321 OFFCURVE",
"406 322 CURVE",
"406 369 OFFCURVE",
"407 412 OFFCURVE",
"409 449 CURVE SMOOTH",
"409 465 OFFCURVE",
"410 481 OFFCURVE",
"412 496 CURVE SMOOTH",
"414 527 OFFCURVE",
"417 552 OFFCURVE",
"422 566 CURVE SMOOTH",
"425 574 OFFCURVE",
"427 577 OFFCURVE",
"431 577 CURVE SMOOTH",
"442 577 OFFCURVE",
"452 575 OFFCURVE",
"460 569 CURVE SMOOTH",
"477 559 OFFCURVE",
"487 542 OFFCURVE",
"493 523 CURVE SMOOTH",
"499 504 OFFCURVE",
"501 486 OFFCURVE",
"501 475 CURVE",
"501 468 OFFCURVE",
"501 465 OFFCURVE",
"501 464 CURVE SMOOTH",
"501 454 OFFCURVE",
"501 435 OFFCURVE",
"499 414 CURVE SMOOTH",
"497 392 OFFCURVE",
"491 368 OFFCURVE",
"480 350 CURVE SMOOTH",
"470 332 OFFCURVE",
"454 319 OFFCURVE",
"431 319 CURVE SMOOTH",
"424 319 OFFCURVE",
"419 319 OFFCURVE",
"416 319 CURVE"
);
}
);
width = 873;
}
);
leftKerningGroup = H;
rightKerningGroup = R;
unicode = 0052;
},
{
glyphname = S;
lastChange = "2016-07-08 07:51:01 +0000";
layers = (
{
anchors = (
{
name = bottom;
position = "{341, 0}";
},
{
name = top;
position = "{361, 676}";
}
);
background = {
paths = (
{
closed = 1;
nodes = (
"670 201 LINE",
"666 161 LINE",
"635 96 LINE",
"588 46 LINE",
"525 10 LINE",
"454 -13 LINE",
"375 -24 LINE",
"336 -24 LINE",
"299 -24 LINE",
"227 -16 LINE",
"160 0 LINE",
"100 22 LINE",
"76 37 LINE",
"63 79 LINE",
"49 167 LINE",
"43 213 LINE",
"43 216 LINE",
"44 221 LINE",
"50 231 LINE",
"56 234 LINE",
"92 211 LINE",
"163 188 LINE",
"206 188 LINE",
"215 188 LINE",
"246 186 LINE",
"278 189 LINE",
"306 200 LINE",
"311 212 LINE",
"285 226 LINE",
"228 252 LINE",
"173 283 LINE",
"124 319 LINE",
"86 366 LINE",
"64 424 LINE",
"64 462 LINE",
"64 510 LINE",
"93 583 LINE",
"144 634 LINE",
"211 668 LINE",
"287 687 LINE",
"367 695 LINE",
"405 695 LINE",
"445 695 LINE",
"513 688 LINE",
"572 679 LINE",
"624 669 LINE",
"647 667 LINE",
"649 667 LINE",
"654 662 LINE",
"658 657 LINE",
"662 652 LINE",
"664 652 LINE",
"665 652 LINE",
"665 653 LINE",
"666 653 LINE",
"667 626 LINE",
"674 573 LINE",
"674 546 LINE",
"674 537 LINE",
"673 519 LINE",
"668 501 LINE",
"660 486 LINE",
"652 481 LINE",
"560 492 LINE",
"556 492 LINE",
"544 493 LINE",
"536 493 LINE",
"520 493 LINE",
"477 489 LINE",
"438 482 LINE",
"412 477 LINE",
"412 475 LINE",
"412 460 LINE",
"431 438 LINE",
"458 422 LINE",
"484 412 LINE",
"492 409 LINE",
"530 398 LINE",
"597 360 LINE",
"646 312 LINE",
"674 258 LINE",
"674 233 LINE",
"674 225 LINE",
"672 211 LINE"
);
}
);
};
layerId = UUID0;
paths = (
{
closed = 1;
nodes = (
"389 -24 OFFCURVE",
"442 -17 OFFCURVE",
"490 -1 CURVE SMOOTH",
"537 14 OFFCURVE",
"580 38 OFFCURVE",
"612 71 CURVE SMOOTH",
"643 104 OFFCURVE",
"665 147 OFFCURVE",
"670 201 CURVE",
"673 214 OFFCURVE",
"674 222 OFFCURVE",
"674 233 CURVE SMOOTH",
"674 266 OFFCURVE",
"654 304 OFFCURVE",
"621 336 CURVE SMOOTH",
"588 368 OFFCURVE",
"542 395 OFFCURVE",
"492 409 CURVE",
"482 413 OFFCURVE",
"462 419 OFFCURVE",
"444 430 CURVE SMOOTH",
"427 441 OFFCURVE",
"412 456 OFFCURVE",
"412 475 CURVE SMOOTH",
"412 476 OFFCURVE",
"417 478 OFFCURVE",
"425 479 CURVE SMOOTH",
"434 481 OFFCURVE",
"445 483 OFFCURVE",
"458 486 CURVE SMOOTH",
"483 490 OFFCURVE",
"515 493 OFFCURVE",
"536 493 CURVE SMOOTH",
"542 493 OFFCURVE",
"546 493 OFFCURVE",
"550 493 CURVE SMOOTH",
"554 492 OFFCURVE",
"558 492 OFFCURVE",
"560 492 CURVE",
"652 481 LINE",
"662 487 OFFCURVE",
"668 498 OFFCURVE",
"671 510 CURVE SMOOTH",
"674 521 OFFCURVE",
"674 534 OFFCURVE",
"674 546 CURVE SMOOTH",
"674 564 OFFCURVE",
"673 582 OFFCURVE",
"671 600 CURVE SMOOTH",
"668 617 OFFCURVE",
"667 635 OFFCURVE",
"666 653 CURVE",
"666 653 OFFCURVE",
"665 653 OFFCURVE",
"665 652 CURVE SMOOTH",
"665 652 OFFCURVE",
"665 652 OFFCURVE",
"664 652 CURVE",
"661 652 OFFCURVE",
"658 656 OFFCURVE",
"656 660 CURVE",
"653 663 OFFCURVE",
"650 667 OFFCURVE",
"647 667 CURVE",
"631 668 OFFCURVE",
"615 671 OFFCURVE",
"598 674 CURVE SMOOTH",
"581 677 OFFCURVE",
"563 680 OFFCURVE",
"543 684 CURVE SMOOTH",
"503 689 OFFCURVE",
"458 695 OFFCURVE",
"405 695 CURVE SMOOTH",
"354 695 OFFCURVE",
"299 690 OFFCURVE",
"249 678 CURVE SMOOTH",
"198 665 OFFCURVE",
"152 643 OFFCURVE",
"119 608 CURVE SMOOTH",
"85 574 OFFCURVE",
"64 526 OFFCURVE",
"64 462 CURVE SMOOTH",
"64 437 OFFCURVE",
"68 415 OFFCURVE",
"75 395 CURVE SMOOTH",
"90 356 OFFCURVE",
"115 325 OFFCURVE",
"148 301 CURVE SMOOTH",
"182 277 OFFCURVE",
"219 257 OFFCURVE",
"257 239 CURVE SMOOTH",
"276 230 OFFCURVE",
"294 221 OFFCURVE",
"311 212 CURVE",
"308 204 OFFCURVE",
"302 198 OFFCURVE",
"292 194 CURVE SMOOTH",
"274 187 OFFCURVE",
"251 186 OFFCURVE",
"230 187 CURVE SMOOTH",
"220 188 OFFCURVE",
"212 188 OFFCURVE",
"206 188 CURVE SMOOTH",
"148 188 OFFCURVE",
"104 204 OFFCURVE",
"56 234 CURVE",
"48 230 OFFCURVE",
"44 222 OFFCURVE",
"43 216 CURVE",
"43 213 LINE",
"51 152 OFFCURVE",
"58 93 OFFCURVE",
"76 37 CURVE",
"107 18 OFFCURVE",
"148 2 OFFCURVE",
"193 -8 CURVE SMOOTH",
"238 -18 OFFCURVE",
"287 -24 OFFCURVE",
"336 -24 CURVE SMOOTH"
);
}
);
width = 721;
}
);
leftKerningGroup = S;
rightKerningGroup = S;
unicode = 0053;
},
{
glyphname = Germandbls;
lastChange = "2016-07-08 07:51:01 +0000";
layers = (
{
background = {
paths = (
{
closed = 1;
nodes = (
"446 219 LINE",
"473 224 LINE",
"526 229 LINE",
"554 234 LINE",
"567 236 LINE",
"579 256 LINE",
"579 266 LINE",
"579 276 LINE",
"563 280 LINE",
"534 298 LINE",
"483 312 LINE",
"455 313 LINE",
"456 433 LINE",
"461 436 LINE",
"474 442 LINE",
"485 449 LINE",
"494 453 LINE",
"495 453 LINE",
"500 455 LINE",
"515 459 LINE",
"528 469 LINE",
"536 486 LINE",
"536 500 LINE",
"536 510 LINE",
"511 521 LINE",
"477 526 LINE",
"442 528 LINE",
"434 528 LINE",
"418 528 LINE",
"401 517 LINE",
"393 497 LINE",
"391 472 LINE",
"391 458 LINE",
"391 457 LINE",
"391 445 LINE",
"391 427 LINE",
"392 406 LINE",
"392 388 LINE",
"392 375 LINE",
"390 316 LINE",
"390 313 LINE",
"391 291 LINE",
"393 266 LINE",
"394 244 LINE",
"394 241 LINE",
"394 190 LINE",
"394 170 LINE",
"392 135 LINE",
"391 102 LINE",
"390 67 LINE",
"390 46 LINE",
"389 42 LINE",
"385 30 LINE",
"379 20 LINE",
"372 12 LINE",
"367 12 LINE",
"354 9 LINE",
"335 7 LINE",
"319 5 LINE",
"302 5 LINE",
"290 5 LINE",
"224 5 LINE",
"135 5 LINE",
"82 9 LINE",
"59 17 LINE",
"59 25 LINE",
"59 31 LINE",
"60 61 LINE",
"60 98 LINE",
"61 140 LINE",
"62 176 LINE",
"62 204 LINE",
"62 208 LINE",
"62 231 LINE",
"60 274 LINE",
"56 317 LINE",
"54 360 LINE",
"54 383 LINE",
"54 461 LINE",
"78 569 LINE",
"121 638 LINE",
"181 676 LINE",
"253 693 LINE",
"335 696 LINE",
"378 696 LINE",
"393 696 LINE",
"407 696 LINE",
"415 695 LINE",
"420 695 LINE",
"428 694 LINE",
"442 694 LINE",
"457 694 LINE",
"485 690 LINE",
"551 681 LINE",
"618 665 LINE",
"680 640 LINE",
"728 601 LINE",
"756 545 LINE",
"756 506 LINE",
"756 469 LINE",
"727 417 LINE",
"697 398 LINE",
"688 394 LINE",
"667 388 LINE",
"663 382 LINE",
"666 378 LINE",
"713 369 LINE",
"778 338 LINE",
"819 289 LINE",
"840 219 LINE",
"844 171 LINE",
"845 166 LINE",
"846 156 LINE",
"846 150 LINE",
"846 131 LINE",
"831 91 LINE",
"795 55 LINE",
"736 24 LINE",
"648 1 LINE",
"528 -12 LINE",
"449 -12 LINE",
"446 -12 LINE"
);
}
);
};
layerId = UUID0;
paths = (
{
closed = 1;
nodes = (
"449 -12 LINE",
"554 -12 OFFCURVE",
"633 -2 OFFCURVE",
"692 13 CURVE SMOOTH",
"751 28 OFFCURVE",
"790 49 OFFCURVE",
"813 73 CURVE SMOOTH",
"836 97 OFFCURVE",
"846 125 OFFCURVE",
"846 150 CURVE SMOOTH",
"846 154 OFFCURVE",
"846 157 OFFCURVE",
"845 161 CURVE SMOOTH",
"845 164 OFFCURVE",
"845 167 OFFCURVE",
"844 171 CURVE",
"838 235 OFFCURVE",
"826 280 OFFCURVE",
"798 313 CURVE SMOOTH",
"771 346 OFFCURVE",
"729 366 OFFCURVE",
"666 378 CURVE",
"663 382 LINE",
"666 386 OFFCURVE",
"670 389 OFFCURVE",
"677 391 CURVE",
"684 393 OFFCURVE",
"690 396 OFFCURVE",
"697 398 CURVE",
"737 424 OFFCURVE",
"756 457 OFFCURVE",
"756 506 CURVE SMOOTH",
"756 558 OFFCURVE",
"735 595 OFFCURVE",
"704 621 CURVE SMOOTH",
"672 646 OFFCURVE",
"629 663 OFFCURVE",
"585 673 CURVE SMOOTH",
"540 683 OFFCURVE",
"494 688 OFFCURVE",
"457 694 CURVE",
"447 694 OFFCURVE",
"440 694 OFFCURVE",
"435 694 CURVE",
"430 694 OFFCURVE",
"426 694 OFFCURVE",
"424 695 CURVE",
"421 695 OFFCURVE",
"419 695 OFFCURVE",
"417 695 CURVE",
"416 695 OFFCURVE",
"414 695 OFFCURVE",
"411 696 CURVE",
"409 696 OFFCURVE",
"405 696 OFFCURVE",
"400 696 CURVE",
"395 696 OFFCURVE",
"388 696 OFFCURVE",
"378 696 CURVE SMOOTH",
"320 696 OFFCURVE",
"265 696 OFFCURVE",
"217 685 CURVE SMOOTH",
"168 673 OFFCURVE",
"128 650 OFFCURVE",
"100 604 CURVE SMOOTH",
"70 557 OFFCURVE",
"54 487 OFFCURVE",
"54 383 CURVE SMOOTH",
"54 353 OFFCURVE",
"56 325 OFFCURVE",
"58 296 CURVE SMOOTH",
"60 267 OFFCURVE",
"62 239 OFFCURVE",
"62 208 CURVE SMOOTH",
"62 205 OFFCURVE",
"62 199 OFFCURVE",
"62 190 CURVE",
"62 181 OFFCURVE",
"62 170 OFFCURVE",
"62 158 CURVE",
"61 146 OFFCURVE",
"61 133 OFFCURVE",
"61 119 CURVE SMOOTH",
"60 105 OFFCURVE",
"60 92 OFFCURVE",
"60 80 CURVE",
"60 67 OFFCURVE",
"60 56 OFFCURVE",
"60 46 CURVE",
"59 36 OFFCURVE",
"59 29 OFFCURVE",
"59 25 CURVE SMOOTH",
"59 20 OFFCURVE",
"63 16 OFFCURVE",
"70 13 CURVE",
"78 10 OFFCURVE",
"90 8 OFFCURVE",
"108 7 CURVE SMOOTH",
"126 6 OFFCURVE",
"150 5 OFFCURVE",
"180 5 CURVE SMOOTH",
"209 5 OFFCURVE",
"246 5 OFFCURVE",
"290 5 CURVE SMOOTH",
"298 5 OFFCURVE",
"305 5 OFFCURVE",
"311 5 CURVE SMOOTH",
"316 5 OFFCURVE",
"322 6 OFFCURVE",
"327 6 CURVE SMOOTH",
"338 7 OFFCURVE",
"349 8 OFFCURVE",
"367 12 CURVE",
"373 12 OFFCURVE",
"378 19 OFFCURVE",
"382 25 CURVE SMOOTH",
"386 32 OFFCURVE",
"388 41 OFFCURVE",
"390 46 CURVE",
"390 74 OFFCURVE",
"391 96 OFFCURVE",
"392 118 CURVE SMOOTH",
"393 140 OFFCURVE",
"394 163 OFFCURVE",
"394 190 CURVE SMOOTH",
"394 241 LINE SMOOTH",
"394 243 OFFCURVE",
"394 248 OFFCURVE",
"393 255 CURVE SMOOTH",
"393 262 OFFCURVE",
"393 270 OFFCURVE",
"392 278 CURVE SMOOTH",
"391 295 OFFCURVE",
"390 313 OFFCURVE",
"390 316 CURVE SMOOTH",
"392 375 LINE SMOOTH",
"392 375 OFFCURVE",
"392 377 OFFCURVE",
"392 382 CURVE SMOOTH",
"392 386 OFFCURVE",
"392 391 OFFCURVE",
"392 397 CURVE SMOOTH",
"392 403 OFFCURVE",
"392 409 OFFCURVE",
"392 417 CURVE",
"391 423 OFFCURVE",
"391 430 OFFCURVE",
"391 436 CURVE SMOOTH",
"391 442 OFFCURVE",
"391 447 OFFCURVE",
"391 451 CURVE SMOOTH",
"391 455 OFFCURVE",
"391 458 OFFCURVE",
"391 458 CURVE SMOOTH",
"391 476 OFFCURVE",
"391 494 OFFCURVE",
"397 507 CURVE SMOOTH",
"402 520 OFFCURVE",
"413 528 OFFCURVE",
"434 528 CURVE SMOOTH",
"445 528 OFFCURVE",
"471 527 OFFCURVE",
"494 523 CURVE SMOOTH",
"517 520 OFFCURVE",
"536 513 OFFCURVE",
"536 500 CURVE SMOOTH",
"536 491 OFFCURVE",
"535 483 OFFCURVE",
"532 478 CURVE",
"526 466 OFFCURVE",
"518 460 OFFCURVE",
"508 458 CURVE SMOOTH",
"503 456 OFFCURVE",
"499 455 OFFCURVE",
"495 453 CURVE",
"494 453 OFFCURVE",
"492 453 OFFCURVE",
"490 451 CURVE",
"487 450 OFFCURVE",
"483 448 OFFCURVE",
"479 446 CURVE",
"476 443 OFFCURVE",
"472 441 OFFCURVE",
"467 439 CURVE SMOOTH",
"463 437 OFFCURVE",
"459 435 OFFCURVE",
"456 433 CURVE",
"455 313 LINE",
"492 311 OFFCURVE",
"524 304 OFFCURVE",
"563 280 CURVE",
"573 277 OFFCURVE",
"579 272 OFFCURVE",
"579 266 CURVE SMOOTH",
"579 252 OFFCURVE",
"571 237 OFFCURVE",
"554 234 CURVE SMOOTH",
"536 231 OFFCURVE",
"518 229 OFFCURVE",
"500 227 CURVE SMOOTH",
"482 225 OFFCURVE",
"464 222 OFFCURVE",
"446 219 CURVE",
"446 -12 LINE"
);
}
);
width = 885;
}
);
leftKerningGroup = H;
rightKerningGroup = S;
unicode = 1E9E;
},
{
glyphname = Schwa;
lastChange = "2016-07-08 07:51:01 +0000";
layers = (
{
anchors = (
{
name = bottom;
position = "{430, 0}";
},
{
name = top;
position = "{430, 676}";
}
);
background = {
paths = (
{
closed = 1;
nodes = (
"1423 598 LINE",
"1348 647 LINE",
"1266 676 LINE",
"1184 688 LINE",
"980 688 LINE",
"795 661 LINE",
"777 637 LINE",
"777 493 LINE",
"794 475 LINE",
"921 498 LINE",
"1007 502 LINE",
"1034 502 LINE",
"1115 485 LINE",
"1161 448 LINE",
"1168 426 LINE",
"1173 386 LINE",
"1174 355 LINE",
"1132 352 LINE",
"1011 351 LINE",
"765 352 LINE",
"746 332 LINE",
"746 235 LINE",
"777 125 LINE",
"832 50 LINE",
"907 6 LINE",
"993 -17 LINE",
"1089 -24 LINE",
"1194 -24 LINE",
"1293 -12 LINE",
"1377 19 LINE",
"1443 72 LINE",
"1490 157 LINE",
"1514 275 LINE",
"1514 418 LINE",
"1480 522 LINE"
);
},
{
closed = 1;
nodes = (
"1167 149 LINE",
"1157 102 LINE",
"1141 72 LINE",
"1118 72 LINE",
"1103 98 LINE",
"1093 141 LINE",
"1088 180 LINE",
"1085 207 LINE",
"1085 237 LINE",
"1119 236 LINE",
"1176 240 LINE",
"1176 225 LINE",
"1173 194 LINE"
);
},
{
closed = 1;
nodes = (
"478 241 LINE",
"477 224 OFFCURVE",
"476 206 OFFCURVE",
"473 189 CURVE SMOOTH",
"465 146 OFFCURVE",
"463 110 OFFCURVE",
"451 88 CURVE SMOOTH",
"445 77 OFFCURVE",
"439 72 OFFCURVE",
"430 72 CURVE SMOOTH",
"414 72 OFFCURVE",
"402 93 OFFCURVE",
"396 125 CURVE SMOOTH",
"390 156 OFFCURVE",
"385 196 OFFCURVE",
"384 234 CURVE"
);
}
);
};
layerId = UUID0;
paths = (
{
closed = 1;
nodes = (
"573 -14 LINE SMOOTH",
"713 3 OFFCURVE",
"815 154 OFFCURVE",
"814 305 CURVE SMOOTH",
"813 388 LINE SMOOTH",
"812 538 OFFCURVE",
"694 660 OFFCURVE",
"545 676 CURVE SMOOTH",
"454 686 LINE",
"321 687 LINE SMOOTH",
"258 687 OFFCURVE",
"147 674 OFFCURVE",
"95 661 CURVE",
"77 637 LINE",
"77 493 LINE",
"94 475 LINE",
"136 483 OFFCURVE",
"193 496 OFFCURVE",
"236 498 CURVE SMOOTH",
"307 502 LINE",
"329 502 LINE",
"361 496 OFFCURVE",
"388 494 OFFCURVE",
"413 483 CURVE SMOOTH",
"447 469 OFFCURVE",
"463 452 OFFCURVE",
"468 426 CURVE",
"473 386 LINE",
"474 355 LINE",
"432 352 LINE",
"311 351 LINE",
"65 352 LINE",
"46 332 LINE",
"46 235 LINE SMOOTH",
"46 92 OFFCURVE",
"166 -16 OFFCURVE",
"368 -21 CURVE SMOOTH",
"494 -24 LINE"
);
},
{
closed = 1;
nodes = (
"414 72 OFFCURVE",
"402 93 OFFCURVE",
"396 125 CURVE SMOOTH",
"390 156 OFFCURVE",
"385 196 OFFCURVE",
"384 234 CURVE",
"478 241 LINE",
"477 224 OFFCURVE",
"476 206 OFFCURVE",
"473 189 CURVE SMOOTH",
"465 146 OFFCURVE",
"463 110 OFFCURVE",
"451 88 CURVE SMOOTH",
"445 77 OFFCURVE",
"439 72 OFFCURVE",
"430 72 CURVE SMOOTH"
);
}
);
width = 859;
}
);
leftKerningGroup = O;
leftMetricsKey = O;
rightKerningGroup = O;
rightMetricsKey = O;
unicode = 018F;
},
{
glyphname = T;
lastChange = "2016-07-08 07:51:01 +0000";
layers = (
{
anchors = (
{
name = bottom;
position = "{361, 0}";
},
{
name = center;
position = "{361, 338}";
},
{
name = top;
position = "{361, 676}";
}
);
background = {
paths = (
{
closed = 1;
nodes = (
"189 449 LINE",
"189 450 LINE",
"186 452 LINE",
"75 452 LINE",
"61 452 LINE",
"46 485 LINE",
"39 531 LINE",
"38 578 LINE",
"38 594 LINE",
"38 598 LINE",
"38 615 LINE",
"39 633 LINE",
"39 646 LINE",
"39 647 LINE",
"39 654 LINE",
"50 662 LINE",
"66 667 LINE",
"83 668 LINE",
"89 668 LINE",
"126 668 LINE",
"203 666 LINE",
"240 666 LINE",
"600 666 LINE",
"633 666 LINE",
"669 663 LINE",
"686 656 LINE",
"688 645 LINE",
"688 637 LINE",
"688 472 LINE",
"688 466 LINE",
"683 460 LINE",
"674 457 LINE",
"665 456 LINE",
"662 456 LINE",
"648 456 LINE",
"615 456 LINE",
"580 456 LINE",
"546 457 LINE",
"532 457 LINE",
"528 457 LINE",
"524 456 LINE",
"521 452 LINE",
"521 442 LINE",
"521 433 LINE",
"521 426 LINE",
"520 372 LINE",
"518 285 LINE",
"513 193 LINE",
"510 148 LINE",
"510 52 LINE",
"510 33 LINE",
"502 14 LINE",
"488 5 LINE",
"466 3 LINE",
"452 2 LINE",
"421 2 LINE",
"373 1 LINE",
"322 0 LINE",
"262 -1 LINE",
"221 -1 LINE",
"207 -1 LINE",
"192 34 LINE",
"185 95 LINE",
"185 179 LINE",
"187 276 LINE",
"189 394 LINE"
);
}
);
};
layerId = UUID0;
paths = (
{
closed = 1;
nodes = (
"248 -1 OFFCURVE",
"272 -1 OFFCURVE",
"292 0 CURVE SMOOTH",
"332 0 OFFCURVE",
"365 1 OFFCURVE",
"397 1 CURVE SMOOTH",
"414 2 OFFCURVE",
"432 2 OFFCURVE",
"452 2 CURVE",
"461 3 OFFCURVE",
"470 4 OFFCURVE",
"478 4 CURVE SMOOTH",
"485 5 OFFCURVE",
"491 7 OFFCURVE",
"496 10 CURVE SMOOTH",
"505 16 OFFCURVE",
"510 27 OFFCURVE",
"510 52 CURVE SMOOTH",
"510 148 LINE",
"512 178 OFFCURVE",
"514 208 OFFCURVE",
"516 239 CURVE SMOOTH",
"519 300 OFFCURVE",
"520 353 OFFCURVE",
"521 389 CURVE SMOOTH",
"521 407 OFFCURVE",
"521 418 OFFCURVE",
"521 423 CURVE SMOOTH",
"521 429 OFFCURVE",
"521 434 OFFCURVE",
"521 437 CURVE SMOOTH",
"521 440 OFFCURVE",
"522 443 OFFCURVE",
"523 444 CURVE",
"524 447 OFFCURVE",
"527 447 OFFCURVE",
"532 447 CURVE SMOOTH",
"542 447 OFFCURVE",
"552 447 OFFCURVE",
"563 447 CURVE",
"575 446 OFFCURVE",
"586 446 OFFCURVE",
"598 446 CURVE SMOOTH",
"609 446 OFFCURVE",
"620 446 OFFCURVE",
"631 446 CURVE SMOOTH",
"643 446 OFFCURVE",
"652 446 OFFCURVE",
"662 446 CURVE SMOOTH",
"666 446 OFFCURVE",
"673 446 OFFCURVE",
"679 448 CURVE SMOOTH",
"684 450 OFFCURVE",
"688 454 OFFCURVE",
"688 462 CURVE SMOOTH",
"688 627 LINE SMOOTH",
"688 637 OFFCURVE",
"688 645 OFFCURVE",
"677 649 CURVE SMOOTH",
"672 652 OFFCURVE",
"663 653 OFFCURVE",
"651 655 CURVE",
"639 656 OFFCURVE",
"622 656 OFFCURVE",
"600 656 CURVE SMOOTH",
"240 656 LINE SMOOTH",
"215 656 OFFCURVE",
"190 657 OFFCURVE",
"165 657 CURVE SMOOTH",
"139 658 OFFCURVE",
"114 658 OFFCURVE",
"89 658 CURVE SMOOTH",
"82 658 OFFCURVE",
"69 658 OFFCURVE",
"59 655 CURVE SMOOTH",
"48 652 OFFCURVE",
"39 646 OFFCURVE",
"39 637 CURVE SMOOTH",
"39 636 OFFCURVE",
"39 634 OFFCURVE",
"39 629 CURVE",
"39 625 OFFCURVE",
"39 620 OFFCURVE",
"39 614 CURVE",
"38 608 OFFCURVE",
"38 602 OFFCURVE",
"38 597 CURVE",
"38 591 OFFCURVE",
"38 586 OFFCURVE",
"38 584 CURVE SMOOTH",
"38 563 OFFCURVE",
"38 528 OFFCURVE",
"42 498 CURVE SMOOTH",
"47 467 OFFCURVE",
"56 442 OFFCURVE",
"75 442 CURVE SMOOTH",
"186 442 LINE",
"188 440 OFFCURVE",
"189 439 OFFCURVE",
"189 439 CURVE SMOOTH",
"189 402 OFFCURVE",
"189 366 OFFCURVE",
"188 331 CURVE SMOOTH",
"186 258 OFFCURVE",
"185 193 OFFCURVE",
"185 137 CURVE SMOOTH",
"185 82 OFFCURVE",
"190 40 OFFCURVE",
"200 17 CURVE SMOOTH",
"205 5 OFFCURVE",
"211 -1 OFFCURVE",
"221 -1 CURVE SMOOTH"
);
}
);
width = 722;
}
);
leftKerningGroup = T;
rightKerningGroup = T;
unicode = 0054;
},
{
glyphname = Tbar;
lastChange = "2016-07-08 07:51:01 +0000";
layers = (
{
background = {
paths = (
{
closed = 1;
nodes = (
"189 439 LINE",
"189 440 LINE",
"186 442 LINE",
"75 442 LINE",
"61 442 LINE",
"46 475 LINE",
"39 521 LINE",
"38 568 LINE",
"38 584 LINE",
"38 588 LINE",
"38 605 LINE",
"39 623 LINE",
"39 636 LINE",
"39 637 LINE",
"39 644 LINE",
"50 652 LINE",
"66 657 LINE",
"83 658 LINE",
"89 658 LINE",
"126 658 LINE",
"203 656 LINE",
"240 656 LINE",
"600 656 LINE",
"633 656 LINE",
"669 653 LINE",
"686 646 LINE",
"688 635 LINE",
"688 627 LINE",
"688 462 LINE",
"688 456 LINE",
"683 450 LINE",
"674 447 LINE",
"665 446 LINE",
"662 446 LINE",
"597 446 LINE",
"580 446 LINE",
"546 447 LINE",
"532 447 LINE",
"528 447 LINE",
"524 446 LINE",
"521 442 LINE",
"521 432 LINE",
"521 423 LINE",
"521 416 LINE",
"520 362 LINE",
"519 324 LINE",
"539 324 LINE",
"549 324 LINE",
"572 323 LINE",
"592 319 LINE",
"605 312 LINE",
"605 305 LINE",
"605 294 LINE",
"606 280 LINE",
"606 271 LINE",
"607 263 LINE",
"607 254 LINE",
"608 241 LINE",
"608 230 LINE",
"608 223 LINE",
"607 208 LINE",
"601 196 LINE",
"589 188 LINE",
"579 188 LINE",
"555 188 LINE",
"537 188 LINE",
"524 188 LINE",
"513 189 LINE",
"510 148 LINE",
"510 52 LINE",
"510 33 LINE",
"502 14 LINE",
"488 5 LINE",
"466 3 LINE",
"452 2 LINE",
"421 2 LINE",
"373 1 LINE",
"322 0 LINE",
"262 -1 LINE",
"221 -1 LINE",
"207 -1 LINE",
"192 34 LINE",
"185 95 LINE",
"185 137 LINE",
"185 163 LINE",
"185 191 LINE",
"169 191 LINE",
"154 191 LINE",
"138 191 LINE",
"111 194 LINE",
"94 203 LINE",
"94 211 LINE",
"94 227 LINE",
"94 250 LINE",
"94 271 LINE",
"93 294 LINE",
"93 310 LINE",
"93 313 LINE",
"99 319 LINE",
"107 324 LINE",
"117 328 LINE",
"122 328 LINE",
"188 328 LINE",
"188 330 LINE",
"189 384 LINE"
);
}
);
};
layerId = UUID0;
paths = (
{
closed = 1;
nodes = (
"248 -1 OFFCURVE",
"272 -1 OFFCURVE",
"292 0 CURVE SMOOTH",
"332 0 OFFCURVE",
"365 1 OFFCURVE",
"397 1 CURVE SMOOTH",
"414 2 OFFCURVE",
"432 2 OFFCURVE",
"452 2 CURVE",
"461 3 OFFCURVE",
"470 4 OFFCURVE",
"478 4 CURVE SMOOTH",
"485 5 OFFCURVE",
"491 7 OFFCURVE",
"496 10 CURVE SMOOTH",
"505 16 OFFCURVE",
"510 27 OFFCURVE",
"510 52 CURVE SMOOTH",
"510 148 LINE",
"513 189 LINE",
"528 188 OFFCURVE",
"547 188 OFFCURVE",
"579 188 CURVE SMOOTH",
"593 188 OFFCURVE",
"600 194 OFFCURVE",
"604 203 CURVE SMOOTH",
"608 210 OFFCURVE",
"608 221 OFFCURVE",
"608 230 CURVE SMOOTH",
"608 237 OFFCURVE",
"608 243 OFFCURVE",
"608 248 CURVE SMOOTH",
"607 252 OFFCURVE",
"607 255 OFFCURVE",
"607 259 CURVE",
"607 262 OFFCURVE",
"607 265 OFFCURVE",
"607 267 CURVE",
"606 270 OFFCURVE",
"606 272 OFFCURVE",
"606 275 CURVE",
"606 282 OFFCURVE",
"605 290 OFFCURVE",
"605 305 CURVE SMOOTH",
"605 314 OFFCURVE",
"596 319 OFFCURVE",
"583 321 CURVE SMOOTH",
"569 324 OFFCURVE",
"552 324 OFFCURVE",
"539 324 CURVE SMOOTH",
"519 324 LINE",
"520 349 OFFCURVE",
"520 371 OFFCURVE",
"521 389 CURVE SMOOTH",
"521 407 OFFCURVE",
"521 418 OFFCURVE",
"521 423 CURVE SMOOTH",
"521 429 OFFCURVE",
"521 434 OFFCURVE",
"521 437 CURVE SMOOTH",
"521 440 OFFCURVE",
"522 443 OFFCURVE",
"523 444 CURVE",
"524 447 OFFCURVE",
"527 447 OFFCURVE",
"532 447 CURVE SMOOTH",
"542 447 OFFCURVE",
"552 447 OFFCURVE",
"563 447 CURVE",
"575 446 OFFCURVE",
"586 446 OFFCURVE",
"597 446 CURVE SMOOTH",
"662 446 LINE SMOOTH",
"666 446 OFFCURVE",
"673 446 OFFCURVE",
"679 448 CURVE SMOOTH",
"684 450 OFFCURVE",
"688 454 OFFCURVE",
"688 462 CURVE SMOOTH",
"688 627 LINE SMOOTH",
"688 637 OFFCURVE",
"688 645 OFFCURVE",
"677 649 CURVE SMOOTH",
"672 652 OFFCURVE",
"663 653 OFFCURVE",
"651 655 CURVE",
"639 656 OFFCURVE",
"622 656 OFFCURVE",
"600 656 CURVE SMOOTH",
"240 656 LINE SMOOTH",
"215 656 OFFCURVE",
"190 657 OFFCURVE",
"165 657 CURVE SMOOTH",
"139 658 OFFCURVE",
"114 658 OFFCURVE",
"89 658 CURVE SMOOTH",
"82 658 OFFCURVE",
"69 658 OFFCURVE",
"59 655 CURVE SMOOTH",
"48 652 OFFCURVE",
"39 646 OFFCURVE",
"39 637 CURVE SMOOTH",
"39 636 OFFCURVE",
"39 634 OFFCURVE",
"39 629 CURVE",
"39 625 OFFCURVE",
"39 620 OFFCURVE",
"39 614 CURVE",
"38 608 OFFCURVE",
"38 602 OFFCURVE",
"38 597 CURVE",
"38 591 OFFCURVE",
"38 586 OFFCURVE",
"38 584 CURVE SMOOTH",
"38 563 OFFCURVE",
"38 528 OFFCURVE",
"42 498 CURVE SMOOTH",
"47 467 OFFCURVE",
"56 442 OFFCURVE",
"75 442 CURVE SMOOTH",
"186 442 LINE",
"188 440 OFFCURVE",
"189 439 OFFCURVE",
"189 439 CURVE SMOOTH",
"189 402 OFFCURVE",
"189 366 OFFCURVE",
"188 330 CURVE SMOOTH",
"188 328 LINE",
"122 328 LINE SMOOTH",
"116 328 OFFCURVE",
"109 325 OFFCURVE",
"103 322 CURVE SMOOTH",
"97 318 OFFCURVE",
"93 314 OFFCURVE",
"93 310 CURVE SMOOTH",
"93 300 OFFCURVE",
"93 291 OFFCURVE",
"94 283 CURVE",
"94 275 OFFCURVE",
"94 268 OFFCURVE",
"94 261 CURVE SMOOTH",
"94 253 OFFCURVE",
"94 246 OFFCURVE",
"94 238 CURVE",
"94 230 OFFCURVE",
"94 221 OFFCURVE",
"94 211 CURVE SMOOTH",
"94 206 OFFCURVE",
"97 201 OFFCURVE",
"103 198 CURVE SMOOTH",
"114 192 OFFCURVE",
"132 191 OFFCURVE",
"154 191 CURVE",
"165 191 OFFCURVE",
"174 191 OFFCURVE",
"185 191 CURVE",
"185 172 OFFCURVE",
"185 154 OFFCURVE",
"185 137 CURVE SMOOTH",
"185 82 OFFCURVE",
"190 40 OFFCURVE",
"200 17 CURVE SMOOTH",
"205 5 OFFCURVE",
"211 -1 OFFCURVE",
"221 -1 CURVE SMOOTH"
);
}
);
width = 722;
}
);
leftKerningGroup = T;
rightKerningGroup = T;
unicode = 0166;
},
{
glyphname = U;
lastChange = "2016-07-08 07:51:01 +0000";
layers = (
{
anchors = (
{
name = bottom;
position = "{443, 0}";
},
{
name = ogonek;
position = "{796, 10}";
},
{
name = top;
position = "{443, 676}";
},
{
name = topright;
position = "{691, 671}";
}
);
background = {
paths = (
{
closed = 1;
nodes = (
"502 35 LINE",
"477 22 LINE",
"419 1 LINE",
"359 -15 LINE",
"296 -23 LINE",
"265 -23 LINE",
"215 -23 LINE",
"145 0 LINE",
"98 42 LINE",
"71 99 LINE",
"58 167 LINE",
"55 245 LINE",
"55 286 LINE",
"55 326 LINE",
"59 406 LINE",
"64 488 LINE",
"68 572 LINE",
"68 615 LINE",
"68 626 LINE",
"64 646 LINE",
"64 657 LINE",
"64 668 LINE",
"85 674 LINE",
"98 674 LINE",
"127 674 LINE",
"188 675 LINE",
"249 673 LINE",
"312 667 LINE",
"344 661 LINE",
"358 657 LINE",
"375 648 LINE",
"384 633 LINE",
"387 608 LINE",
"387 589 LINE",
"387 549 LINE",
"385 465 LINE",
"382 372 LINE",
"380 265 LINE",
"380 202 LINE",
"380 166 LINE",
"386 132 LINE",
"399 132 LINE",
"415 132 LINE",
"445 141 LINE",
"458 146 LINE",
"473 153 LINE",
"486 161 LINE",
"486 563 LINE",
"484 574 LINE",
"482 598 LINE",
"481 618 LINE",
"481 632 LINE",
"481 634 LINE",
"481 643 LINE",
"484 655 LINE",
"492 662 LINE",
"508 665 LINE",
"521 665 LINE",
"532 665 LINE",
"573 667 LINE",
"619 669 LINE",
"660 671 LINE",
"669 672 LINE",
"671 672 LINE",
"691 671 LINE",
"703 670 LINE",
"716 669 LINE",
"733 669 LINE",
"768 665 LINE",
"806 657 LINE",
"825 649 LINE",
"830 641 LINE",
"830 636 LINE",
"830 561 LINE",
"826 413 LINE",
"821 266 LINE",
"817 118 LINE",
"817 43 LINE",
"817 22 LINE",
"800 3 LINE",
"780 3 LINE",
"773 3 LINE",
"746 2 LINE",
"712 1 LINE",
"674 0 LINE",
"656 -1 LINE",
"612 -3 LINE",
"562 -5 LINE",
"537 -5 LINE",
"508 14 LINE"
);
}
);
};
layerId = UUID0;
paths = (
{
closed = 1;
nodes = (
"306 -23 OFFCURVE",
"349 -17 OFFCURVE",
"389 -7 CURVE SMOOTH",
"430 3 OFFCURVE",
"469 18 OFFCURVE",
"502 35 CURVE",
"510 6 OFFCURVE",
"528 -5 OFFCURVE",
"562 -5 CURVE",
"595 -3 OFFCURVE",
"626 -2 OFFCURVE",
"656 -1 CURVE SMOOTH",
"681 0 OFFCURVE",
"707 1 OFFCURVE",
"729 2 CURVE SMOOTH",
"752 3 OFFCURVE",
"771 3 OFFCURVE",
"780 3 CURVE SMOOTH",
"806 3 OFFCURVE",
"817 16 OFFCURVE",
"817 43 CURVE SMOOTH",
"817 143 OFFCURVE",
"821 241 OFFCURVE",
"824 339 CURVE SMOOTH",
"827 437 OFFCURVE",
"830 535 OFFCURVE",
"830 636 CURVE SMOOTH",
"830 642 OFFCURVE",
"829 647 OFFCURVE",
"816 653 CURVE SMOOTH",
"810 655 OFFCURVE",
"800 658 OFFCURVE",
"787 661 CURVE",
"774 664 OFFCURVE",
"756 667 OFFCURVE",
"733 669 CURVE",
"722 669 OFFCURVE",
"712 670 OFFCURVE",
"703 670 CURVE SMOOTH",
"695 671 OFFCURVE",
"688 671 OFFCURVE",
"682 671 CURVE SMOOTH",
"675 672 OFFCURVE",
"671 672 OFFCURVE",
"669 672 CURVE",
"663 671 OFFCURVE",
"653 670 OFFCURVE",
"640 670 CURVE SMOOTH",
"626 669 OFFCURVE",
"611 668 OFFCURVE",
"596 668 CURVE SMOOTH",
"565 666 OFFCURVE",
"535 665 OFFCURVE",
"521 665 CURVE SMOOTH",
"503 665 OFFCURVE",
"494 664 OFFCURVE",
"488 659 CURVE",
"482 654 OFFCURVE",
"481 646 OFFCURVE",
"481 634 CURVE SMOOTH",
"481 632 OFFCURVE",
"481 629 OFFCURVE",
"481 625 CURVE SMOOTH",
"481 620 OFFCURVE",
"481 614 OFFCURVE",
"482 608 CURVE",
"482 594 OFFCURVE",
"484 578 OFFCURVE",
"486 563 CURVE",
"486 161 LINE",
"477 156 OFFCURVE",
"468 151 OFFCURVE",
"458 146 CURVE SMOOTH",
"441 139 OFFCURVE",
"420 132 OFFCURVE",
"399 132 CURVE SMOOTH",
"390 132 OFFCURVE",
"385 138 OFFCURVE",
"383 149 CURVE",
"381 160 OFFCURVE",
"380 178 OFFCURVE",
"380 202 CURVE SMOOTH",
"380 286 OFFCURVE",
"382 356 OFFCURVE",
"384 418 CURVE SMOOTH",
"386 481 OFFCURVE",
"387 536 OFFCURVE",
"387 589 CURVE SMOOTH",
"387 614 OFFCURVE",
"386 630 OFFCURVE",
"380 641 CURVE",
"374 650 OFFCURVE",
"362 656 OFFCURVE",
"344 661 CURVE",
"323 666 OFFCURVE",
"302 668 OFFCURVE",
"281 670 CURVE SMOOTH",
"239 674 OFFCURVE",
"198 675 OFFCURVE",
"158 674 CURVE SMOOTH",
"138 674 OFFCURVE",
"118 674 OFFCURVE",
"98 674 CURVE SMOOTH",
"81 674 OFFCURVE",
"64 671 OFFCURVE",
"64 657 CURVE SMOOTH",
"64 650 OFFCURVE",
"65 643 OFFCURVE",
"66 636 CURVE SMOOTH",
"68 630 OFFCURVE",
"68 623 OFFCURVE",
"68 615 CURVE SMOOTH",
"68 558 OFFCURVE",
"65 502 OFFCURVE",
"62 447 CURVE SMOOTH",
"58 393 OFFCURVE",
"55 339 OFFCURVE",
"55 286 CURVE SMOOTH",
"55 231 OFFCURVE",
"56 179 OFFCURVE",
"65 133 CURVE SMOOTH",
"74 87 OFFCURVE",
"90 48 OFFCURVE",
"121 21 CURVE SMOOTH",
"152 -7 OFFCURVE",
"198 -23 OFFCURVE",
"265 -23 CURVE SMOOTH"
);
}
);
width = 885;
}
);
leftKerningGroup = U;
rightKerningGroup = U;
unicode = 0055;
},
{
glyphname = Uhorn;
lastChange = "2016-07-08 07:51:01 +0000";
layers = (
{
anchors = (
{
name = bottom;
position = "{443, 0}";
},
{
name = top;
position = "{443, 676}";
}
);
background = {
paths = (
{
closed = 1;
nodes = (
"919 805 LINE",
"924 786 LINE",
"928 745 LINE",
"928 722 LINE",
"928 680 LINE",
"902 602 LINE",
"874 560 LINE",
"842 524 LINE",
"797 504 LINE",
"747 489 LINE",
"691 528 LINE",
"691 671 LINE",
"706 671 LINE",
"733 683 LINE",
"754 704 LINE",
"765 732 LINE",
"765 749 LINE",
"765 757 LINE",
"762 791 LINE",
"757 809 LINE"
);
},
{
closed = 1;
nodes = (
"502 35 LINE",
"477 22 LINE",
"419 1 LINE",
"359 -15 LINE",
"296 -23 LINE",
"265 -23 LINE",
"215 -23 LINE",
"145 0 LINE",
"98 42 LINE",
"71 99 LINE",
"58 167 LINE",
"55 245 LINE",
"55 286 LINE",
"55 326 LINE",
"59 406 LINE",
"64 488 LINE",
"68 572 LINE",
"68 615 LINE",
"68 626 LINE",
"64 646 LINE",
"64 657 LINE",
"64 668 LINE",
"85 674 LINE",
"98 674 LINE",
"127 674 LINE",
"188 675 LINE",
"249 673 LINE",
"312 667 LINE",
"344 661 LINE",
"358 657 LINE",
"375 648 LINE",
"384 633 LINE",
"387 608 LINE",
"387 589 LINE",
"387 549 LINE",
"385 465 LINE",
"382 372 LINE",
"380 265 LINE",
"380 202 LINE",
"380 166 LINE",
"386 132 LINE",
"399 132 LINE",
"415 132 LINE",
"445 141 LINE",
"458 146 LINE",
"473 153 LINE",
"486 161 LINE",
"486 563 LINE",
"484 574 LINE",
"482 598 LINE",
"481 618 LINE",
"481 632 LINE",
"481 634 LINE",
"481 643 LINE",
"484 655 LINE",
"492 662 LINE",
"508 665 LINE",
"521 665 LINE",
"532 665 LINE",
"573 667 LINE",
"619 669 LINE",
"660 671 LINE",
"669 672 LINE",
"671 672 LINE",
"691 671 LINE",
"703 670 LINE",
"716 669 LINE",
"733 669 LINE",
"768 665 LINE",
"806 657 LINE",
"825 649 LINE",
"830 641 LINE",
"830 636 LINE",
"830 561 LINE",
"826 413 LINE",
"821 266 LINE",
"817 118 LINE",
"817 43 LINE",
"817 22 LINE",
"800 3 LINE",
"780 3 LINE",
"773 3 LINE",
"746 2 LINE",
"712 1 LINE",
"674 0 LINE",
"656 -1 LINE",
"612 -3 LINE",
"562 -5 LINE",
"537 -5 LINE",
"508 14 LINE"
);
}
);
};
layerId = UUID0;
paths = (
{
closed = 1;
nodes = (
"306 -23 OFFCURVE",
"349 -17 OFFCURVE",
"389 -7 CURVE SMOOTH",
"430 3 OFFCURVE",
"469 18 OFFCURVE",
"502 35 CURVE",
"510 6 OFFCURVE",
"528 -5 OFFCURVE",
"562 -5 CURVE",
"595 -3 OFFCURVE",
"626 -2 OFFCURVE",
"656 -1 CURVE SMOOTH",
"729 2 LINE SMOOTH",
"752 3 OFFCURVE",
"771 3 OFFCURVE",
"780 3 CURVE SMOOTH",
"806 3 OFFCURVE",
"817 16 OFFCURVE",
"817 43 CURVE SMOOTH",
"817 143 OFFCURVE",
"821 241 OFFCURVE",
"824 339 CURVE SMOOTH",
"826 399 OFFCURVE",
"828 458 OFFCURVE",
"829 518 CURVE",
"853 536 LINE",
"874 560 LINE",
"898 598 LINE SMOOTH",
"913 622 OFFCURVE",
"919 654 OFFCURVE",
"926 700 CURVE",
"928 745 LINE",
"924 786 LINE",
"919 805 LINE",
"757 809 LINE",
"762 791 LINE",
"765 757 LINE",
"764 732 LINE",
"755 707 LINE SMOOTH",
"748 689 OFFCURVE",
"725 671 OFFCURVE",
"706 671 CURVE SMOOTH",
"691 671 LINE",
"674 672 LINE",
"672 672 LINE",
"669 672 LINE",
"660 671 LINE",
"655 670 OFFCURVE",
"648 670 OFFCURVE",
"640 670 CURVE",
"626 669 OFFCURVE",
"611 668 OFFCURVE",
"596 668 CURVE",
"565 666 OFFCURVE",
"535 665 OFFCURVE",
"521 665 CURVE SMOOTH",
"503 665 OFFCURVE",
"494 664 OFFCURVE",
"488 659 CURVE SMOOTH",
"482 654 OFFCURVE",
"481 646 OFFCURVE",
"481 634 CURVE SMOOTH",
"481 625 LINE SMOOTH",
"481 620 OFFCURVE",
"481 614 OFFCURVE",
"482 608 CURVE",
"482 594 OFFCURVE",
"484 578 OFFCURVE",
"486 563 CURVE",
"486 161 LINE",
"477 156 OFFCURVE",
"468 151 OFFCURVE",
"458 146 CURVE",
"441 139 OFFCURVE",
"420 132 OFFCURVE",
"399 132 CURVE SMOOTH",
"390 132 OFFCURVE",
"385 138 OFFCURVE",
"383 149 CURVE SMOOTH",
"381 160 OFFCURVE",
"380 178 OFFCURVE",
"380 202 CURVE SMOOTH",
"380 286 OFFCURVE",
"382 356 OFFCURVE",
"384 418 CURVE SMOOTH",
"386 481 OFFCURVE",
"387 536 OFFCURVE",
"387 589 CURVE SMOOTH",
"387 614 OFFCURVE",
"386 630 OFFCURVE",
"380 641 CURVE",
"374 650 OFFCURVE",
"362 656 OFFCURVE",
"344 661 CURVE",
"323 666 OFFCURVE",
"302 668 OFFCURVE",
"281 670 CURVE SMOOTH",
"239 674 OFFCURVE",
"198 675 OFFCURVE",
"158 674 CURVE SMOOTH",
"98 674 LINE SMOOTH",
"81 674 OFFCURVE",
"64 671 OFFCURVE",
"64 657 CURVE SMOOTH",
"64 650 OFFCURVE",
"65 643 OFFCURVE",
"66 636 CURVE",
"68 630 OFFCURVE",
"68 623 OFFCURVE",
"68 615 CURVE SMOOTH",
"68 558 OFFCURVE",
"65 502 OFFCURVE",
"62 447 CURVE SMOOTH",
"58 393 OFFCURVE",
"55 339 OFFCURVE",
"55 286 CURVE SMOOTH",
"55 231 OFFCURVE",
"56 179 OFFCURVE",
"65 133 CURVE SMOOTH",
"74 87 OFFCURVE",
"90 48 OFFCURVE",
"121 21 CURVE SMOOTH",
"152 -7 OFFCURVE",
"198 -23 OFFCURVE",
"265 -23 CURVE SMOOTH"
);
}
);
width = 885;
}
);
leftKerningGroup = Uhorn;
rightKerningGroup = Uhorn;
unicode = 01AF;
},
{
glyphname = V;
lastChange = "2016-07-08 07:51:01 +0000";
layers = (
{
anchors = (
{
name = bottom;
position = "{459, 0}";
},
{
name = top;
position = "{459, 676}";
}
);
background = {
paths = (
{
closed = 1;
nodes = (
"629 5 LINE",
"536 1 LINE",
"351 0 LINE",
"265 0 LINE",
"251 0 LINE",
"224 6 LINE",
"211 6 LINE",
"208 6 LINE",
"205 5 LINE",
"202 5 LINE",
"199 6 LINE",
"192 14 LINE",
"192 16 LINE",
"122 332 LINE",
"106 393 LINE",
"77 520 LINE",
"64 580 LINE",
"63 587 LINE",
"56 617 LINE",
"54 648 LINE",
"60 672 LINE",
"72 672 LINE",
"76 672 LINE",
"95 672 LINE",
"120 671 LINE",
"147 671 LINE",
"171 670 LINE",
"186 670 LINE",
"187 670 LINE",
"280 670 LINE",
"280 669 LINE",
"285 667 LINE",
"287 667 LINE",
"290 666 LINE",
"294 666 LINE",
"298 670 LINE",
"304 670 LINE",
"307 670 LINE",
"308 670 LINE",
"328 668 LINE",
"356 667 LINE",
"389 666 LINE",
"402 666 LINE",
"407 657 LINE",
"417 619 LINE",
"428 567 LINE",
"439 505 LINE",
"447 472 LINE",
"447 471 LINE",
"453 441 LINE",
"461 398 LINE",
"471 348 LINE",
"480 304 LINE",
"486 275 LINE",
"486 273 LINE",
"486 271 LINE",
"487 269 LINE",
"488 263 LINE",
"489 260 LINE",
"490 263 LINE",
"490 269 LINE",
"491 271 LINE",
"491 273 LINE",
"492 275 LINE",
"498 304 LINE",
"506 348 LINE",
"516 398 LINE",
"525 441 LINE",
"531 471 LINE",
"531 472 LINE",
"538 505 LINE",
"550 567 LINE",
"561 619 LINE",
"570 657 LINE",
"576 666 LINE",
"585 666 LINE",
"611 667 LINE",
"634 668 LINE",
"650 670 LINE",
"651 670 LINE",
"654 670 LINE",
"655 670 LINE",
"657 666 LINE",
"658 666 LINE",
"666 666 LINE",
"668 669 LINE",
"668 670 LINE",
"731 670 LINE",
"747 670 LINE",
"771 671 LINE",
"797 671 LINE",
"823 672 LINE",
"842 672 LINE",
"846 672 LINE",
"858 672 LINE",
"864 648 LINE",
"862 617 LINE",
"855 587 LINE",
"854 580 LINE",
"841 520 LINE",
"812 393 LINE",
"796 332 LINE",
"726 16 LINE",
"726 14 LINE",
"719 6 LINE",
"716 5 LINE",
"713 5 LINE",
"710 6 LINE",
"707 6 LINE",
"701 6 LINE",
"689 0 LINE",
"683 0 LINE",
"669 0 LINE",
"643 5 LINE"
);
}
);
};
layerId = UUID0;
paths = (
{
closed = 1;
nodes = (
"380 0 OFFCURVE",
"505 0 OFFCURVE",
"629 5 CURVE",
"638 5 OFFCURVE",
"647 4 OFFCURVE",
"656 2 CURVE SMOOTH",
"665 1 OFFCURVE",
"674 0 OFFCURVE",
"683 0 CURVE SMOOTH",
"687 0 OFFCURVE",
"691 1 OFFCURVE",
"695 3 CURVE SMOOTH",
"699 5 OFFCURVE",
"703 6 OFFCURVE",
"707 6 CURVE SMOOTH",
"709 6 OFFCURVE",
"710 6 OFFCURVE",
"712 5 CURVE",
"713 5 OFFCURVE",
"714 5 OFFCURVE",
"716 5 CURVE",
"720 7 OFFCURVE",
"726 13 OFFCURVE",
"726 16 CURVE",
"796 332 LINE",
"817 413 OFFCURVE",
"837 500 OFFCURVE",
"854 580 CURVE SMOOTH",
"855 584 OFFCURVE",
"856 592 OFFCURVE",
"859 602 CURVE SMOOTH",
"861 612 OFFCURVE",
"863 623 OFFCURVE",
"863 633 CURVE SMOOTH",
"865 654 OFFCURVE",
"862 672 OFFCURVE",
"846 672 CURVE SMOOTH",
"843 672 OFFCURVE",
"839 672 OFFCURVE",
"833 672 CURVE SMOOTH",
"826 672 OFFCURVE",
"818 672 OFFCURVE",
"810 672 CURVE",
"802 671 OFFCURVE",
"793 671 OFFCURVE",
"784 671 CURVE",
"775 671 OFFCURVE",
"767 671 OFFCURVE",
"759 671 CURVE",
"751 670 OFFCURVE",
"745 670 OFFCURVE",
"739 670 CURVE SMOOTH",
"734 670 OFFCURVE",
"731 670 OFFCURVE",
"731 670 CURVE",
"668 670 LINE",
"668 669 OFFCURVE",
"667 668 OFFCURVE",
"667 667 CURVE",
"666 667 OFFCURVE",
"663 666 OFFCURVE",
"658 666 CURVE SMOOTH",
"657 666 OFFCURVE",
"657 667 OFFCURVE",
"656 668 CURVE SMOOTH",
"656 669 OFFCURVE",
"655 670 OFFCURVE",
"654 670 CURVE SMOOTH",
"651 670 LINE SMOOTH",
"650 670 OFFCURVE",
"648 670 OFFCURVE",
"643 669 CURVE SMOOTH",
"637 669 OFFCURVE",
"630 668 OFFCURVE",
"623 668 CURVE SMOOTH",
"607 667 OFFCURVE",
"589 666 OFFCURVE",
"576 666 CURVE",
"572 660 OFFCURVE",
"569 651 OFFCURVE",
"565 638 CURVE SMOOTH",
"559 613 OFFCURVE",
"552 578 OFFCURVE",
"544 536 CURVE SMOOTH",
"540 515 OFFCURVE",
"536 494 OFFCURVE",
"531 472 CURVE",
"531 472 OFFCURVE",
"530 466 OFFCURVE",
"528 457 CURVE SMOOTH",
"526 446 OFFCURVE",
"523 434 OFFCURVE",
"521 420 CURVE SMOOTH",
"518 405 OFFCURVE",
"515 390 OFFCURVE",
"511 373 CURVE SMOOTH",
"505 339 OFFCURVE",
"499 309 OFFCURVE",
"495 290 CURVE SMOOTH",
"493 280 OFFCURVE",
"492 275 OFFCURVE",
"492 275 CURVE",
"491 272 OFFCURVE",
"490 270 OFFCURVE",
"490 266 CURVE",
"490 264 OFFCURVE",
"489 262 OFFCURVE",
"489 260 CURVE",
"488 262 OFFCURVE",
"488 264 OFFCURVE",
"487 266 CURVE SMOOTH",
"487 268 OFFCURVE",
"487 270 OFFCURVE",
"486 271 CURVE SMOOTH",
"486 272 OFFCURVE",
"486 273 OFFCURVE",
"486 275 CURVE SMOOTH",
"486 275 OFFCURVE",
"485 280 OFFCURVE",
"483 290 CURVE SMOOTH",
"479 309 OFFCURVE",
"473 339 OFFCURVE",
"466 373 CURVE SMOOTH",
"463 390 OFFCURVE",
"460 405 OFFCURVE",
"457 420 CURVE SMOOTH",
"454 434 OFFCURVE",
"452 446 OFFCURVE",
"450 457 CURVE SMOOTH",
"448 466 OFFCURVE",
"447 472 OFFCURVE",
"447 472 CURVE",
"442 494 OFFCURVE",
"438 515 OFFCURVE",
"434 536 CURVE SMOOTH",
"430 557 OFFCURVE",
"426 576 OFFCURVE",
"422 593 CURVE SMOOTH",
"415 628 OFFCURVE",
"409 654 OFFCURVE",
"402 666 CURVE",
"394 666 OFFCURVE",
"384 666 OFFCURVE",
"373 667 CURVE SMOOTH",
"351 667 OFFCURVE",
"331 668 OFFCURVE",
"318 669 CURVE SMOOTH",
"311 670 OFFCURVE",
"308 670 OFFCURVE",
"307 670 CURVE SMOOTH",
"304 670 LINE SMOOTH",
"300 670 OFFCURVE",
"297 669 OFFCURVE",
"296 668 CURVE SMOOTH",
"294 667 OFFCURVE",
"292 666 OFFCURVE",
"290 666 CURVE",
"286 667 OFFCURVE",
"280 669 OFFCURVE",
"280 670 CURVE",
"187 670 LINE SMOOTH",
"187 670 OFFCURVE",
"184 670 OFFCURVE",
"179 670 CURVE",
"168 670 OFFCURVE",
"152 671 OFFCURVE",
"134 671 CURVE SMOOTH",
"125 671 OFFCURVE",
"116 671 OFFCURVE",
"108 672 CURVE",
"100 672 OFFCURVE",
"92 672 OFFCURVE",
"85 672 CURVE SMOOTH",
"79 672 OFFCURVE",
"74 672 OFFCURVE",
"72 672 CURVE SMOOTH",
"64 672 OFFCURVE",
"59 668 OFFCURVE",
"57 660 CURVE SMOOTH",
"53 645 OFFCURVE",
"55 622 OFFCURVE",
"60 602 CURVE SMOOTH",
"62 592 OFFCURVE",
"63 584 OFFCURVE",
"64 580 CURVE",
"81 500 OFFCURVE",
"101 413 OFFCURVE",
"122 332 CURVE",
"192 16 LINE",
"192 13 OFFCURVE",
"198 7 OFFCURVE",
"202 5 CURVE",
"204 5 OFFCURVE",
"205 5 OFFCURVE",
"207 5 CURVE",
"208 6 OFFCURVE",
"209 6 OFFCURVE",
"211 6 CURVE SMOOTH",
"219 6 OFFCURVE",
"228 5 OFFCURVE",
"237 3 CURVE SMOOTH",
"247 1 OFFCURVE",
"256 0 OFFCURVE",
"265 0 CURVE SMOOTH"
);
}
);
width = 918;
}
);
leftKerningGroup = V;
rightKerningGroup = V;
unicode = 0056;
},
